<svg id="Capa_1" data-name="Capa 1" xmlns="http://www.w3.org/2000/svg" viewBox="0 0 463 463">
  <defs>
    <style>
      .cls-1 {
        fill: #ff4b4b;
      }
    </style>
  </defs>
  <path d="M391,183.5a23.54,23.54,0,0,0-16-22.27V77.77A23.5,23.5,0,0,0,367.5,32H351V15h.5a7.5,7.5,0,0,0,0-15h-64a7.5,7.5,0,0,0,0,15h.5V32H95.5A23.5,23.5,0,0,0,88,77.77v83.47a23.49,23.49,0,0,0,0,44.53v83.47a23.49,23.49,0,0,0,0,44.53v83.47A23.49,23.49,0,0,0,95.5,463h272a23.49,23.49,0,0,0,7.5-45.76V333.77a23.49,23.49,0,0,0,0-44.53V205.77A23.54,23.54,0,0,0,391,183.5ZM103,160V79H360v81ZM303,15h33V32H303ZM95.5,47h272a8.5,8.5,0,0,1,0,17H95.5a8.5,8.5,0,0,1,0-17Zm0,128h272a8.5,8.5,0,0,1,0,17H95.5a8.5,8.5,0,0,1,0-17ZM103,288V207H360v81Zm257,47v81H103V335Zm7.5,113H95.5a8.5,8.5,0,0,1,0-17h272a8.5,8.5,0,0,1,0,17Zm0-128H95.5a8.5,8.5,0,0,1,0-17h272a8.5,8.5,0,0,1,0,17Z"/>
  <rect class="cls-1" x="103" y="336.03" width="257" height="81"/>
</svg>
