<svg xmlns="http://www.w3.org/2000/svg" xmlns:xlink="http://www.w3.org/1999/xlink" viewBox="0 0 300 508"><title>jonas-start-serving</title><g id="jonas_start_serving" data-name="jonas start serving"><g id="bartender_back_legs" data-name="bartender back legs"><path d="M125.59,361.41c-.9-1.28.7-9.12.47-10.85-2.08-15.28-1.91-17.86.75-30,1.13-5.17,3.5-7.8,8.17-8.46,10-1.4,19.93-2.76,29.88-4.2,1.76-.25,3,0,3.33,2.15,2.63,17.4,8.59,33.8,13.26,50.59.16.58-.23,1.34-.37,2C162.56,363.42,144.13,359.67,125.59,361.41Z" fill="#a29afa"/><path d="M83.16,479c-3.68-20.33-2.05-40.66-.16-61,1.72-18.45,5.4-36.76,3.56-55.5-.26-2.64.94-5.44,1.47-8.17,7.4-22.5,14.31-45.15,16.59-69,.71-7.42,4.68-13.13,8.11-19.15,6.1,3.38,12.85,1.77,19.23,2.41,16.34,1.64,32.79,2,49.18-.07,3.66,7,12.29,10.51,12.39,20.11,0,.91,1.19,1.91,2,2.68a16.39,16.39,0,0,1,4.87,10.44,65.45,65.45,0,0,0,5.35,19.37c4.61,10.85,5.86,22.87,10.5,33.69,2.37,10.91,4.35,21.94,7.23,32.69,2.81,10.47,1.49,20.7.49,31.15-1.5,15.65,1.6,31.19,1.67,46.84,0,4,.65,8.78-2.81,10.3-1.7,1-4.28,3.83-5.27,3.3-6.55-3.54-12.29,0-19.19-.73-1.66-.66-1.33-2.21-1.32-3.54.12-30.73-6-60.54-11.59-90.43-1.36-7.26-1.91-14.7-4.4-21.69.14-.68.53-1.44.37-2-4.67-16.79-10.63-33.19-13.26-50.59-.33-2.19-1.57-2.4-3.33-2.15-10,1.44-19.92,2.8-29.88,4.2-4.67.66-6.57,2.05-7.08,8.14-1.15,13.81,0,25.65-2.31,41.19-1.06,22.89-9.43,44.33-11.09,67.29-1.17,16.2-4.66,32.31-5,48.74-.07,3.25-.12,7-4.88,6.2C97.47,482.08,90.49,479.62,83.16,479Z" fill="#2a2651"/><path d="M198.39,480.14c5.82-2,11.42-5.21,18-1.89,1,.5,3.3-1.61,5-2.51,10,5.68,19.45,12.32,30.52,15.94,4,1.32,7.3,3.79,6.31,8.58-1,4.63-4.56,7-9.09,7.19-10.7.55-21.41.56-31.95-1.82-2.6-.59-5.19-1.29-7.65.13-4.65,2.7-8.74,1.9-12.58-1.6-4.09-3.73-3.29-8.42-2.08-12.84C195.86,487.56,198,484.14,198.39,480.14Z" fill="#a29afa"/><path d="M83.16,479c7.33.58,14.31,3,21.46,4.6,3,4.74,6.85,9,4,15.7-3.33,7.79-10.69,10.55-17.15,5.35-2.75-2.21-5.15-2.46-8.44-2-10.23,1.3-20.54.91-30.82.51-3.31-.13-6.29-2-8.72-4.47S41,493.21,42,490.2c1-2.85,3.45-2.34,5.62-2.3,8.32.14,16.62.49,23.9-5.28,1.32-1,3.82-.45,5.77-.48C79.77,482.1,82.3,482.39,83.16,479Z" fill="#a29afa"/><path d="M112.74,266.13c-3.44,6-7.41,11.74-8.11,19.15-2.28,23.9-9.19,46.55-16.59,69-3.15-1.54-4.3-4.26-4.44-7.86-.41-10.58.25-21,4.1-30.9,6-15.37,8.18-31.82,11.85-47.86a15.82,15.82,0,0,1,.26-2.07c1.69-4.38,3.8-9.54,8.61-9.21S112,262.44,112.74,266.13Z" fill="#a29afa"/><path d="M216.25,354.75c-4.65-10.82-5.89-22.84-10.5-33.69a65.45,65.45,0,0,1-5.35-19.37,16.39,16.39,0,0,0-4.87-10.44c-.8-.77-2-1.77-2-2.68-.1-9.6-8.73-13.1-12.39-20.11a10.17,10.17,0,0,1,8.4-8.54c4.48-.94,5.86,3.06,7.92,6,10,14.19,11.3,31.54,15,47.93A144.25,144.25,0,0,1,216.25,354.75Z" fill="#a29afa"/></g><g id="hands"><g id="winking_hand" data-name="winking hand"><image id="hand" width="131" height="87" transform="matrix(-0.83, -0.57, 0.69, -0.98, 268.67, 143.01)" xlink:href="assets/bartenders/hand.png"/><path d="M263.48,112.9c-1.61,18.18-9.55,30.62-21.69,40.52a25.6,25.6,0,0,1-10,4.87c-13.56,3.62-27.15,6.27-41.12,4.53-3.93-.49-9,4.08-11.42-.08-1.74-3,2.78-7.07,3.94-11,3-10.25,3.35-9.71,13.51-10.71s20.15-1.37,29.71-5.86c6-2.8,11.27-10.85,12.51-17.45,1.62-8.67.85-16.92.42-25.51-.21-4.22,7.06-10.3,12.1-13.09,2.67-1.48,7.5,3.23,8.6,7.64C262.35,95.82,267.44,104.55,263.48,112.9Z" fill="#a69efe"/></g><g id="resting_hand" data-name="resting hand"><image id="hand-2" data-name="hand" width="131" height="87" transform="matrix(-0.96, 0.58, -0.59, -0.97, 117.57, 255.68)" xlink:href="assets/bartenders/hand.png"/><path d="M47.13,191.62l-8,14.48c-3.79,10.65-8,21.19-8,32.79,0,8.65.42,7.71,9,7.29,9.45-.46,11.95-4.88,12.35-12.83a20.2,20.2,0,0,1,2.27-7.16,199.22,199.22,0,0,1,28.82-45,25.36,25.36,0,0,1,12-7.91c10.52-3.16,15.58-13,12-23.16-.48-1.38-.47-2.91-.88-4.32-1-3.44-3.14-4.16-6.39-2.81-12,5-21.69,13.72-32.67,20.36-.88.53-2,1.29-2.24,2.16C62.31,176.29,51.59,181.78,47.13,191.62Z" fill="#a69efe"/></g></g><image id="backhead-jonas" width="274" height="325" transform="translate(88.89 -0.25) scale(0.39 0.41)" xlink:href="assets/bartenders/jonas-backhead.png"/><g id="bartender_back" data-name="bartender back"><path d="M172.25,136.83c-20.12,5.06-40.76,4.14-61.38,1.68-1.2-6.54-7.92-18.44.65-17.43,5.48.64,24.49,5,30.93,3.92,8.55-1.47,18.6-.93,27.56-2.19,5.6-.79,6.92-2.56,7.58,1.09C178.34,128.14,173.42,132.79,172.25,136.83Z" fill="#a6a0fd"/><path d="M109.25,264.9c-3.87-3.88-6-8.13-2.77-13.71A4.65,4.65,0,0,0,107,248c-3.85-13.71-1.14-29.42-10.93-41.33a5.15,5.15,0,0,1-1.34-4.16c1.47-11,3.06-22.05,4.26-33.12.9-8.27,2.13-16.36,5.25-24.1,3.21-8,5-9.08,13-7.12a35.4,35.4,0,0,0,5.45.5c13.11,2.45,26.15,3.17,38.94-1.89,5.68.25,11.06-3.34,17.19-.11,3,1.58,5.25,2.82,6.32,6.06a142.1,142.1,0,0,1,7.26,52.57c-.72,13.34-1,26.45.61,39.79,1.36,11-1.53,21.22-10.71,28.18-7.09,2.71-14.24,4.47-21.94,4.18-11.8-.44-23.4-2.75-35.15-3.42C119.87,263.76,114.44,262,109.25,264.9Z" fill="#022aaa"/><path d="M109.25,264.9c5.2-2.93,10.63-1.13,16-.83,11.75.67,23.36,3,35.15,3.42,7.7.29,14.85-1.47,21.94-4.18,4.65,5.61-.35,7.42-3.59,8.67a33.42,33.42,0,0,1-15.09,1.94c-4.95-.46-6.47,1.38-4.26,6.37q2.48,5.62,4.61,11.42c.73,2,1.62,4.5-.94,5.67-2.31,1.06-3.75-.75-4.85-2.78-3.1-5.73-4.77-12-6.69-18.26-.42-1.35-.33-3.33-2.32-3.32s-1.82,1.93-2,3.35c-.8,5.15-1.63,10.29-2.34,15.45-.35,2.51-1,5.44-3.57,5.23-3.61-.28-2.6-4-2.31-6.27.6-4.73,2.07-9.3,2.4-14.14.25-3.7-.9-5-4.34-5.26-7.51-.63-15-1.74-22.46-2.59A6.16,6.16,0,0,1,109.25,264.9Z" fill="#a6a0fd"/></g></g></svg>