<svg xmlns="http://www.w3.org/2000/svg" xmlns:xlink="http://www.w3.org/1999/xlink" viewBox="0 0 300 508"><title>jonas-front</title><g id="jonas_front" data-name="jonas front"><g id="bartender_front_legs" data-name="bartender front legs"><path d="M108.69,484.91c.43,3.21,4,4.64,4.31,8.21.67,7.38-3.79,11-9.32,14.24H98.51c-2.49-4.58-6.27-5.27-11.32-4.66-9.08,1.11-18.26,1.55-27.41,2a16.78,16.78,0,0,1-10.22-3.24c-3.08-2.11-3.46-5.26-2.6-8.46s3.79-2.12,6-2.08c7.84.16,15.39-.61,21.93-5.41,1.91-1.41,4.1-.92,6.2-1,2.37-.07,4.8.13,6.14-2.41C94.58,481.29,101.44,484.53,108.69,484.91Z" fill="#a49cfe"/><path d="M179.72,373.1c-18.22,2.47-36.43-1.07-54.64,0-2.45-.62-4.4-2.58-7.18-2.38-9.51.68-19-2.71-28.52-.18-9.61-6-6.54-15.27-5.76-23.5,1.13-12,7.32-22.85,9.06-34.79a152.32,152.32,0,0,1,5.47-22.67c2.24-7.28,6.26-9.62,13.39-7.46,10.6,3.22,21.66,4.1,32.52,6,7,1.19,14.4,3,20.6-3,.9-.88,3.49-.86,4.92-.31,4,1.53,7.1.44,10.11-2,3.35-2.73,6.94-2.7,9.83.27,5,5.15,9.31,10.54,11.41,17.89,3.7,12.95,8.72,25.61,10.41,39,1.19,9.49,4.92,18.85,2.47,28.66-3.55,1.15-6.85,3-10.91,2.32C195,369.5,187.27,370.63,179.72,373.1Z" fill="#a49cfe"/><path d="M89.38,370.52c9.52-2.53,19,.86,28.52.18,2.77-.2,4.73,1.76,7.18,2.38-.42,13.49-5.48,26.48-6.42,39.5-1.52,21.11-7.24,41.85-5.86,63.18.23,3.52.63,7.56-4.11,9.15-7.25-.38-14.11-3.62-21.52-2.82a144.51,144.51,0,0,1-2.55-46.21c1.55-14.6,1.86-29.32,2.85-44C88,384.77,88.74,377.65,89.38,370.52Z" fill="#2b2751"/><path d="M179.72,373.1c7.55-2.46,15.27-3.6,23.17-2.26,4.06.69,7.36-1.18,10.91-2.32,4.47,11.66,7.19,23.8,10.31,35.83,1.77,6.81-.87,13.35-1,20.06-.17,13.77,2.87,27.23,3.24,40.93.1,3.61-1,5.48-4,6.83-2.93,2.36-5.85,3.72-9.75,1.61a6,6,0,0,0-7.16,1.14,7.69,7.69,0,0,1-5.85,2,29,29,0,0,1-1.08-4.92c-1.29-28.12-8.41-55.23-14.66-82.5C182.63,384,181,378.61,179.72,373.1Z" fill="#2b2751"/><path d="M199.63,476.94a7.69,7.69,0,0,0,5.85-2,6,6,0,0,1,7.16-1.14c3.9,2.11,6.82.75,9.75-1.61,9.73,4.67,18.52,11.23,29.3,13.8,4.25,1,7.87,3.21,7.66,8-.23,5.14-4.35,7.15-8.81,7.7a108.12,108.12,0,0,1-28.23-.16c-4.25-.59-8.52-1.59-12.57.67-4.21,2.35-7.57.15-10.57-2.19a8.52,8.52,0,0,1-2.95-9.66C197.51,485.92,199.66,481.7,199.63,476.94Z" fill="#a49cfe"/></g><g id="bartender_front" data-name="bartender front"><path d="M147.12,291.38l-.07-1.88h4l-.07,1.88Z" fill="#a29bfd"/><path d="M151.06,289.5h-4c-3.88-1.67-7.81-1.34-12-1-10.62,1-21.57,2.9-29.75-7-2.49-3-4.69-6-5.62-9.75-3-12.36-5.37-24.59-1.73-37.43,1.74-6.13,1-12.83-1-19.18-1.08-3.51-1.25-7.47.77-10.46,6.7-9.88,5.54-21.42,7.64-32.24a44.43,44.43,0,0,1,3.74-11.31c1.08-2.19,18.53-7.54,21.12-6.83.41.11.82.25,1.23.37a13.08,13.08,0,0,1,.82,7.35c-2.07,12.71-4,25.71-.82,38.28,4.36,17.13,10.22,33.89,15.39,50.83.43,1.39.37,3.16,2.25,3.35,1.55.16,1.78-1.59,2.63-2.46,9.8-10,12.26-23.4,17.22-35.61,2.2-5.41,4.29-11.1,3.92-17.17-.82-13.57,1.81-26.88,3.06-40.3,3.29-3.42,6-3.32,10.56-.88,3.8,2,9.09,2.35,13.71,3.5,1.51.38,3.31-.11,3.8,2.4A140.85,140.85,0,0,1,206,205.82c-1.57,14.82-4.14,29.58-9.28,43.76a38,38,0,0,0-1.65,9.31c-1.74,18.38-8.6,25.92-27.11,29.61a2,2,0,0,0-2.71.38Z" fill="#032aaa"/><path d="M176,159c-1.25,13.41-3.88,26.73-3.06,40.3.37,6.07-1.72,11.76-3.92,17.17-5,12.21-7.42,25.64-17.22,35.61-.85.87-1.08,2.62-2.63,2.46-1.88-.19-1.82-2-2.25-3.35-5.17-16.93-11-33.7-15.39-50.83-3.2-12.58-1.25-25.57.82-38.28a13.08,13.08,0,0,0-.82-7.35,8.31,8.31,0,0,1,.43-1.18c2-3.69,3.13-8.76,6.26-10.7,3.58-2.22,6.42,3.37,10.09,4.65,3.94,1.38,7.6,2,11.78.6,8.67-2.91,9.88-2.18,12.95,6.15A10.59,10.59,0,0,0,176,159Z" fill="#a29bfd"/><path d="M165.29,288.88a2,2,0,0,1,2.71-.38C167.24,289.6,166.41,290.19,165.29,288.88Z" fill="#a29bfd"/></g><g id="bartender_hands_down" data-name="bartender hands down"><image id="hand" width="131" height="87" transform="matrix(1.06, 0.38, -0.38, 1.07, 40.02, 221.77)" xlink:href="assets/bartenders/hand.png"/><image id="hand-2" data-name="hand" width="131" height="87" transform="matrix(-1.06, 0.38, 0.38, 1.07, 259.67, 226.16)" xlink:href="assets/bartenders/hand.png"/><path d="M238,231.91q.28,8.26.56,16.53c-1.45,11.21-2.45,22.52-7.7,32.87C227,289,227,288,219.51,283.71c-8.22-4.69-8.44-9.76-5.19-17a20.2,20.2,0,0,0,1.23-7.41,199.22,199.22,0,0,0-5.3-53.18,25.36,25.36,0,0,0-7.16-12.51c-7.94-7.59-8-18.66-.23-26.1,1.05-1,1.74-2.38,2.74-3.45,2.44-2.61,4.69-2.29,7,.39,8.46,9.93,13.12,22.06,19.9,33a4.87,4.87,0,0,1,1,2.94C231.43,211.36,238.5,221.12,238,231.91Z" fill="#a69efe"/><path d="M105.81,174.54c-1.09,11.64-4.8,21.91-14.78,29.38-6.72,5-6.46,12.93-7.29,20.18-1.69,14.76,2.51,28.83,5.79,42.94,1,4.28.6,6.39-4.13,7a21.27,21.27,0,0,0-9.48,3.48c-2.32,1.61-4.94,1.74-6.35-1.49-3-6.77-6.37-13.41-8.66-20.4a29.6,29.6,0,0,1-.8-16.19,56.42,56.42,0,0,0,1.71-16.27c-.94-15.63,5.77-28.07,16.89-38.69,5.85-5.59,11.46-11.42,17.27-17.05,2-2,3.89-5.18,7.49-3.46,3.12,1.49,2.09,4.75,2.33,7.39C105.89,172.42,105.81,173.48,105.81,174.54Z" fill="#a69efe"/></g><path id="butterfly" d="M134,161.32c-.73-2.44-.06-5.09,0-7.63,0-2,3.37-5.06,6.91-3.57,7.16,3,1.85,7.37,12.66,4,1-.3,4.2-.64,5.14,0,3.59,2.42,6.32,1.1,9.53-1.95a4.67,4.67,0,0,1,4.88-1c1.91.75,1.58,2.76,1.74,4.46s1,2.7.91,4.79c-.2,4.22,0,6.06-6.09,6.06a9.47,9.47,0,0,1-2.61,0c-2.16-.62-4.31-5.09-7.84-2.2a6.64,6.64,0,0,1-7.66,0c-3.39-3.07-4.1-.1-8.25,2.29-2.85,1.64-5.23.76-7-1.83C135.45,163.66,134.37,162.64,134,161.32Z" fill="#c4ea37"/><image id="jonas" width="143" height="192" transform="translate(96.16 -0.64) scale(0.87 0.85)" xlink:href="assets/bartenders/jonas.png"/></g></svg>