<svg xmlns="http://www.w3.org/2000/svg" xmlns:xlink="http://www.w3.org/1999/xlink" viewBox="0 0 300 508"><title>klaus-changing-tap</title><g id="klaus_change_tap" data-name="klaus change tap"><g id="bartender_front_legs" data-name="bartender front legs"><path d="M109.13,484.9c.42,3.23,3.94,4.66,4.26,8.25.67,7.41-3.74,11.08-9.21,14.3h-5.1c-2.46-4.6-6.19-5.3-11.18-4.68-9,1.11-18,1.56-27.08,2a16.39,16.39,0,0,1-10.1-3.25c-3-2.12-3.42-5.29-2.57-8.5s3.74-2.13,5.89-2.09c7.74.16,15.21-.61,21.66-5.43,1.89-1.41,4-.93,6.12-1,2.34-.07,4.74.13,6.06-2.43C95.19,481.27,102,484.51,109.13,484.9Z" fill="#a49cfe"/><path d="M179.31,372.61c-18,2.48-36-1.07-54,0-2.42-.63-4.35-2.59-7.09-2.39-9.39.68-18.76-2.72-28.17-.18-9.49-6-6.46-15.34-5.7-23.6,1.12-12,7.23-22.94,9-34.94a155.08,155.08,0,0,1,5.4-22.76c2.21-7.31,6.18-9.67,13.23-7.49,10.47,3.23,21.4,4.12,32.13,6,6.92,1.2,14.23,3,20.35-3.05.89-.88,3.45-.86,4.86-.31,3.91,1.54,7,.44,10-2,3.31-2.74,6.85-2.72,9.71.28,4.95,5.18,9.2,10.59,11.27,18,3.66,13,8.62,25.72,10.28,39.15,1.18,9.53,4.86,18.93,2.44,28.79-3.51,1.15-6.76,3-10.78,2.33C194.4,369,186.77,370.13,179.31,372.61Z" fill="#a49cfe"/><path d="M90.06,370c9.41-2.54,18.78.86,28.17.18,2.74-.2,4.67,1.76,7.09,2.39-.42,13.55-5.42,26.59-6.34,39.67-1.5,21.2-7.15,42-5.79,63.45.23,3.54.62,7.6-4.06,9.18-7.17-.38-13.94-3.63-21.26-2.83a147.47,147.47,0,0,1-2.52-46.4c1.53-14.66,1.84-29.45,2.82-44.17C88.65,384.33,89.42,377.18,90.06,370Z" fill="#2b2751"/><path d="M179.31,372.61c7.46-2.47,15.09-3.62,22.89-2.27,4,.69,7.27-1.18,10.78-2.33,4.41,11.71,7.1,23.9,10.19,36,1.75,6.84-.86,13.4-.94,20.15-.17,13.83,2.83,27.34,3.2,41.1.1,3.62-1,5.5-4,6.86-2.9,2.37-5.78,3.73-9.64,1.62a5.82,5.82,0,0,0-7.08,1.15,7.53,7.53,0,0,1-5.78,2,29.57,29.57,0,0,1-1.06-4.94c-1.28-28.24-8.31-55.46-14.48-82.85C182.19,383.56,180.53,378.14,179.31,372.61Z" fill="#2b2751"/><path d="M199,476.9a7.53,7.53,0,0,0,5.78-2,5.82,5.82,0,0,1,7.08-1.15c3.85,2.11,6.74.76,9.64-1.62,9.61,4.69,18.3,11.28,28.94,13.86,4.2,1,7.77,3.22,7.56,8.06-.22,5.16-4.3,7.18-8.71,7.74a105.1,105.1,0,0,1-27.89-.16c-4.2-.59-8.42-1.6-12.42.67-4.16,2.36-7.48.15-10.44-2.2a8.64,8.64,0,0,1-2.91-9.7C196.88,485.91,199,481.67,199,476.9Z" fill="#a49cfe"/></g><g id="front_hands_carrying" data-name="front hands carrying"><image id="hand" width="131" height="87" transform="matrix(-0.99, -0.18, -0.2, 1.18, 305.46, 219.44)" xlink:href="assets/bartenders/hand.png"/><path d="M260.33,224.2c.95-18.22-5.17-31.66-15.81-43.16a25.6,25.6,0,0,0-9.18-6.21c-12.92-5.48-26-10-40.08-10.24-4-.07-8.31-5.3-11.32-1.52-2.14,2.69,1.76,7.39,2.36,11.44,1.57,10.58,2,10.08,11.87,12.5s19.76,4.18,28.6,10c5.51,3.61,9.64,12.32,9.94,19,.39,8.82-1.52,16.87-3.15,25.31-.8,4.15,5.55,11.19,10.15,14.66,2.43,1.83,7.87-2.15,9.59-6.36C256.83,241,263.09,233,260.33,224.2Z" fill="#a69efe"/><image id="hand-2" data-name="hand" width="131" height="87" transform="matrix(0.61, 0.79, 0.87, -0.73, -3.42, 233.97)" xlink:href="assets/bartenders/hand.png"/><path d="M33.24,224.2C32.29,206,38.42,192.54,49,181a25.6,25.6,0,0,1,9.18-6.21c12.92-5.48,26-10,40.08-10.24,4-.07,8.31-5.3,11.32-1.52,2.14,2.69-1.76,7.39-2.36,11.44-1.57,10.58-2,10.08-11.87,12.5s-19.76,4.18-28.6,10c-5.51,3.61-9.64,12.32-9.94,19-.39,8.82,1.52,16.87,3.15,25.31.8,4.15-5.55,11.19-10.15,14.66-2.43,1.83-7.87-2.15-9.59-6.36C36.75,241,30.49,233,33.24,224.2Z" fill="#a69efe"/></g><g id="bartender_front" data-name="bartender front"><path d="M145.76,289.71l-.07-1.89h4l-.07,1.89Z" fill="#a29bfd"/><path d="M149.65,287.82h-4c-3.83-1.68-7.71-1.34-11.81-1-10.49,1-21.31,2.91-29.39-7-2.46-3-4.64-6-5.55-9.8-3-12.41-5.3-24.7-1.71-37.59,1.72-6.16,1-12.89-.95-19.26-1.07-3.53-1.24-7.5.77-10.51,6.62-9.92,5.47-21.51,7.55-32.38a45.14,45.14,0,0,1,3.69-11.36c1.07-2.2,18.31-7.57,20.87-6.86.41.11.81.25,1.22.37a13.34,13.34,0,0,1,.81,7.38c-2,12.77-4,25.82-.81,38.45,4.31,17.2,10.1,34,15.21,51,.42,1.4.37,3.17,2.22,3.37,1.53.16,1.76-1.6,2.6-2.47,9.68-10,12.12-23.5,17-35.76,2.17-5.44,4.24-11.15,3.87-17.24-.81-13.63,1.79-27,3-40.47,3.25-3.43,5.93-3.34,10.43-.88,3.76,2,9,2.36,13.54,3.51,1.49.38,3.27-.11,3.75,2.41a143.75,143.75,0,0,1,1.92,42c-1.55,14.89-4.09,29.7-9.17,43.95a38.69,38.69,0,0,0-1.63,9.35c-1.72,18.46-8.49,26-26.79,29.74a2,2,0,0,0-2.68.38Z" fill="#032aaa"/><path d="M174.33,156.72c-1.24,13.47-3.83,26.84-3,40.47.36,6.09-1.7,11.81-3.87,17.24-4.9,12.26-7.34,25.75-17,35.76-.84.87-1.07,2.63-2.6,2.47-1.86-.19-1.8-2-2.22-3.37-5.11-17-10.9-33.84-15.21-51-3.16-12.63-1.24-25.68.81-38.45a13.34,13.34,0,0,0-.81-7.38,8.44,8.44,0,0,1,.43-1.18c2-3.71,3.09-8.79,6.18-10.75,3.53-2.23,6.34,3.38,10,4.67,3.89,1.38,7.51,2,11.64.6,8.56-2.92,9.76-2.19,12.79,6.17A10.66,10.66,0,0,0,174.33,156.72Z" fill="#a29bfd"/><path d="M163.71,287.2a2,2,0,0,1,2.68-.38C165.64,287.93,164.81,288.52,163.71,287.2Z" fill="#a29bfd"/></g><path id="butterfly" d="M121.42,164.13c-.59-2.49.23-5.12.43-7.67.16-2,3.65-4.89,7.12-3.2,7,3.42,1.44,7.51,12.44,4.74,1-.25,4.24-.4,5.14.29,3.45,2.64,6.26,1.46,9.64-1.42a4.67,4.67,0,0,1,4.93-.71c1.87.86,1.42,2.87,1.49,4.58s.86,2.77.64,4.86c-.44,4.23-.34,6.09-6.44,5.75a9.45,9.45,0,0,1-2.61-.15c-2.13-.75-4-5.36-7.72-2.65a6.63,6.63,0,0,1-7.66-.43c-3.22-3.28-4.09-.33-8.39,1.83-2.95,1.49-5.27.47-6.95-2.23C122.77,166.56,121.74,165.48,121.42,164.13Z" fill="#c4ea37"/><image id="Klaus" width="143" height="192" transform="translate(91.69 -0.55) scale(0.86 0.86)" xlink:href="assets/bartenders/klaus.png"/><g id="plate"><path d="M132.63,242.73l2.14,0a9.81,9.81,0,0,0,5.31,0l9,.29a5.94,5.94,0,0,0,5.6.33l3.75.56a2,2,0,0,0,2.8.08l3.47.35c4.14,1.82,8.47.89,12.76.62l3.38.38a9.36,9.36,0,0,0,6.56,1l1.59.28c1.19,1.37,2.73,1.17,4.33.67l1.53.23c1.07,1.17,2.47,1.1,4,.73l2.54.36a12.87,12.87,0,0,0,6.84,2l1.52.38,1.24.41,1.92.8a3.58,3.58,0,0,0,3.68,2.38l.91.8-.56,12-.32.76c-2.13.67-2.57,2.23-2.88,3.84l-1,.75-1,.74L209,275.11a5,5,0,0,0-4.08,1.84l-1.42.6c-1.81.1-3.56.35-4.85,1.57l-1.53.31a9.37,9.37,0,0,0-5.94,1l-3.53.26c-2-.25-4.06-.65-5.81.68l-3.46.18c-2.41-.09-5.08-1.14-6.8,1.28H131.36c-.47-1.2-1.68-1.36-2.93-1.37-4.7,0-9.41,0-14.11,0l-1.63-.08a1.85,1.85,0,0,0-2.85-.19c-3.58.75-6.59-1-9.85-1.64-8.32-1.55-16.56-3.43-24.81-5.25A7.23,7.23,0,0,1,71.89,273c-4.52-4.44-10.33-7.88-14.33-12.72V257.2c3.25-5.56,7.17-10.59,14.68-12.75a3.81,3.81,0,0,0,3.05-.32c4.07.28,7.84-1.29,11.86-1.36a1.83,1.83,0,0,0,2.46-.48c8.75-1.62,17.61-.66,26.41-.66,4.8,0,9.6.42,14.39.66A1.62,1.62,0,0,0,132.63,242.73Z" fill="#4d3b98"/></g><polygon points="115.47 250.75 89.16 250.75 86.06 188.52 118.41 188.52 115.47 250.75" fill="#bb7a00"/><polygon points="115.47 249.96 89.16 249.96 86.06 187.73 118.41 187.73 115.47 249.96" fill="none" stroke="#fff" stroke-miterlimit="10" stroke-width="2"/><rect x="86.43" y="188.71" width="31.32" height="13.1" fill="#fff"/><line x1="111.7" y1="207.88" x2="110.03" y2="241.74" fill="none" stroke="#fff" stroke-miterlimit="10"/><polygon points="154.47 247.19 128.17 247.19 125.07 184.97 157.42 184.97 154.47 247.19" fill="#bb7a00"/><polygon points="154.47 246.4 128.17 246.4 125.07 184.18 157.42 184.18 154.47 246.4" fill="none" stroke="#fff" stroke-miterlimit="10" stroke-width="2"/><rect x="125.43" y="185.16" width="31.32" height="13.1" fill="#fff"/><line x1="150.71" y1="204.32" x2="149.03" y2="238.18" fill="none" stroke="#fff" stroke-miterlimit="10"/><polygon points="122.05 254.72 95.75 254.72 92.65 192.5 124.99 192.5 122.05 254.72" fill="#bb7a00"/><polygon points="122.05 253.93 95.75 253.93 92.65 191.71 124.99 191.71 122.05 253.93" fill="none" stroke="#fff" stroke-miterlimit="10" stroke-width="2"/><rect x="93.01" y="192.69" width="31.32" height="13.1" fill="#fff"/><line x1="118.28" y1="211.86" x2="116.61" y2="245.72" fill="none" stroke="#fff" stroke-miterlimit="10"/><polygon points="162.2 260.29 135.9 260.29 132.8 198.07 165.14 198.07 162.2 260.29" fill="#bb7a00"/><polygon points="162.2 259.5 135.9 259.5 132.8 197.28 165.14 197.28 162.2 259.5" fill="none" stroke="#fff" stroke-miterlimit="10" stroke-width="2"/><rect x="133.16" y="198.26" width="31.32" height="13.1" fill="#fff"/><line x1="158.43" y1="217.42" x2="156.76" y2="251.28" fill="none" stroke="#fff" stroke-miterlimit="10"/><polygon points="105.88 260.69 79.57 260.69 76.47 198.47 108.82 198.47 105.88 260.69" fill="#bb7a00"/><polygon points="105.88 259.9 79.57 259.9 76.47 197.67 108.82 197.67 105.88 259.9" fill="none" stroke="#fff" stroke-miterlimit="10" stroke-width="2"/><rect x="76.84" y="198.66" width="31.32" height="13.1" fill="#fff"/><line x1="102.11" y1="217.82" x2="100.44" y2="251.68" fill="none" stroke="#fff" stroke-miterlimit="10"/><polygon points="141.1 267.97 114.8 267.97 111.7 205.75 144.05 205.75 141.1 267.97" fill="#bb7a00"/><polygon points="141.1 267.18 114.8 267.18 111.7 204.96 144.05 204.96 141.1 267.18" fill="none" stroke="#fff" stroke-miterlimit="10" stroke-width="2"/><rect x="112.07" y="205.94" width="31.32" height="13.1" fill="#fff"/><line x1="137.34" y1="225.1" x2="135.67" y2="258.96" fill="none" stroke="#fff" stroke-miterlimit="10"/></g></svg>