<svg xmlns="http://www.w3.org/2000/svg" xmlns:xlink="http://www.w3.org/1999/xlink" viewBox="0 0 300 508"><title>klaus-leaning</title><g id="Klaus_leaning" data-name="Klaus leaning"><path d="M2.9,459.53c2.83-2.94.52-6.8,1.81-10,2.35-5.93,4.72-11.63,13-9.75,1.87.42,3.95-.05,5.93-.12.11,7.93-.1,16,8.39,20.49-4,11-5.53,21.92-.45,33.12,2.73,6-2.8,8.29-6.12,11.44h-8c-10.7-4.33-11.94-12.79-10.8-23,.65-5.76.08-11.84-3.8-16.86Z" fill="#a39cfc"/><path d="M154.53,265.82C153,268,151.4,270.1,149,271.44c-5.85.2-5.6,5-6.73,8.84l-.08.08c-6.23.13-8.66,6.33-13.57,8.53-12.77,5.71-40.94-1.06-50.38-11.61-6.22-7-12.55-14-22.08-16.76-.76-3.85,1-7.65-.32-11.66-1.18-3.57,4.67-3.67,4.72-7.13,1.22-2.12.09-4.43.54-6.61,6.49-.43,4.95-7,7.66-9.91a129.94,129.94,0,0,1,19.39-16.64c3-2.2,4.9-4.19,4.81-7.87,11.32-8.08,23.05-15.83,24.44-31.59,2.54-4,5.88-4.52,10.09-2.69,4.4,1.91,9,3.48,13.44,5.19-1,4.71-4.07,8.28-6.86,11.88a49,49,0,0,0-9.21,20.28,300.11,300.11,0,0,1-8.14,32c-1,3-4.59,7.34-1.42,9.6,4.17,3,7.8-2.11,11.68-3.68.55-.22.91-.94,1.34-1.44,6.58-7.57,14.84-13.08,22.93-18.8,5-3.55,9.93-7.31,15-10.75,8-5.35,10.93-13.89,14.53-22.06a4.89,4.89,0,0,1,5,5c.21,5.34,2.89,10,3.66,15.12-1.4,5.25-3.54,10-7.64,13.85a20.83,20.83,0,0,0-5.12,8.15c-2.66.71-5.37,2.08-5.95,4.66-2.34,10.49-10.15,17.95-14.58,27.25A2.25,2.25,0,0,0,154.53,265.82Z" fill="#062dac"/><path d="M32,460.11c-8.49-4.5-8.28-12.56-8.39-20.49,1-1.92,2.69-3.77,2.94-5.79.4-3.24,2.2-3.93,4.83-4.14a38,38,0,0,0,17.23-6c9.32-5.81,12.87-13.93,10-24.54-2-7.44-4.24-14.81-6.37-22.2-1.18-9.68-3.51-19-9-27.25-9-20.21-10.43-41-4.66-62.32a61.66,61.66,0,0,0,1.87-6.31c1.05-6.68,8-21.46,16.89-20.15.38,2.3-6,13.11-6.72,15.19-6.05,18.32-6.68,36.75-2.41,55.66,1.54,6.84,5.3,8.23,11,8.63,5.2.37,10.55-1.37,15.59,1.11-2.13,2.63-4,5.7-3.62,9,1.54,13.73,3.06,27.49,7.35,40.73,1,3,2.12,6,6.12,5.88s6-2.85,7.69-6.24c2.81-5.7,4.15-12.32,8.59-17,7-7.36,9.91-16.48,12.74-25.77,9.23-3.29,18.46-.66,27.69,0-8.51,9-12.88,20.52-17.47,31.59-6.51,15.68-13.71,30.45-27.14,41.6-5.54,4.6-6.14,13-11.93,17.87-1,.8-1.25,4-.47,5,2.71,3.43,1,7.78,2.41,10.87C90,462,88,469.8,90.78,476.78c-3.39,3.29-7.09,4.13-11.29,1.53-2.54-1.57-5.1-2.36-7.47.35-1.51.05-3.57,1.72-4-1.41-1.41-10.67-2.87-21.34-4.23-32-.26-2-1.28-2.8-3.07-2.28-3.55,1-8,1.08-10.16,4.2-3.82,5.58-11.11,6.43-14.87,11.9C35.16,459.86,33.29,459.78,32,460.11Z" fill="#2a2651"/><path d="M141.36,348c-9.23-.63-18.47-3.26-27.69,0-13.51,1.09-25.91-4.38-38.86-6.58-5-2.49-10.39-.74-15.59-1.11-5.65-.4-9.41-1.79-11-8.63-4.27-18.91-3.64-37.33,2.41-55.66.69-2.08,1.71-4.08,1.33-6.37,2.19-2.7-.05-7.41,4.17-9.19,9.52,2.73,15.85,9.81,22.08,16.77,9.44,10.55,37.61,17.32,50.38,11.61,4.92-2.2,7.34-8.4,13.57-8.53-.8,2.4-.93,3.77.42,6.93,4.52,10.51,8.49,21.76,8.23,33.57-.1,4.73,1.63,9,2,13.51C153.5,344.2,151.4,346.85,141.36,348Z" fill="#a39cfc"/><image id="hand" width="131" height="87" transform="matrix(-0.12, 1.15, -1.15, -0.12, 101.19, 187.64)" xlink:href="assets/bartenders/klaus-leaning1.png"/><path d="M61.11,235.12c-.45,2.18.68,4.5-.54,6.61-3.17-.24-6.06.86-9,1.79-9.65,3-15.72.9-19.09-8.37-4.58-12.62-8.35-25.56-11.87-38.52-1.88-6.93,2-12.42,11-15.37,27.84-9.16,56.2-15.2,85.8-12.16C116,184.86,104.29,192.61,93,200.69c-2.65-3.13-5.66-3.9-9.92-3.17-8.92,1.53-18,.31-27,.41a12.05,12.05,0,0,0-10.09,5.26,5.23,5.23,0,0,0,.58,6.77c4.92,4.45,5.6,10.85,8,16.42C56,229.93,57.74,233.07,61.11,235.12Z" fill="#a39cfc"/><path d="M180.84,188.62c-3.6,8.17-6.58,16.7-14.53,22.06-5.11,3.44-10,7.2-15,10.75-8.1,5.72-16.36,11.23-22.93,18.8-.43.5-.79,1.22-1.34,1.44-3.87,1.57-7.51,6.65-11.68,3.68-3.17-2.26.43-6.58,1.42-9.6a300.11,300.11,0,0,0,8.14-32,49,49,0,0,1,9.21-20.28c2.79-3.6,5.89-7.17,6.86-11.88,3.24-.67,6.63,1,9.79-.54,4.84-2.34,8.16-5.82,8.49-11.53.1-1.74.06-3.91,2-4.52,1.64-.51,2.67,1.29,3.63,2.41,4.25,5,9.72,8.17,15.42,11,2.06,1,3.82,1.7,1.35,4C176.15,177.6,178,183.09,180.84,188.62Z" fill="#a39cfc"/><image id="hand-2" data-name="hand" width="131" height="87" transform="matrix(0.83, 0.78, 0.89, -0.95, 179.84, 259.49)" xlink:href="assets/bartenders/klaus-leaning2.png"/><path d="M176.78,230.74a20.83,20.83,0,0,1,5.12-8.15c4.1-3.81,6.23-8.61,7.64-13.85,5.74,7.79,10.84,16,13.38,25.4,2.33,8.62,6.65,14.37,15.89,16.47,10.29,2.33,20.35,5.65,30.52,8.5,1,.29,2.7.28,2.68,1.44-.12,5.2-3,9.56-5,14.13-1.24,2.83-4.19,1.61-6.51,1.42-14-1.13-27.17-6.36-41.08-8.1-8.17-1-13.08-5.95-15.36-14.11C181.92,246.11,178,238.84,176.78,230.74Z" fill="#a39cfc"/><path d="M72,478.66c2.37-2.72,4.93-1.92,7.47-.35,4.21,2.61,7.91,1.77,11.29-1.53,9.26,3.81,19,2.73,28.64,2.84,7.94.09,10.81,2.86,10.94,10.69.07,4.39-2.43,6.37-6.6,6.52-11.65.43-23.29,1-34.95,1.19-10.6.16-14.42-3.57-15.64-14.24A47.74,47.74,0,0,0,72,478.66Z" fill="#a39cfc"/><path id="butterfly" d="M136.52,179.79c-.2-2.5,1-4.91,1.55-7.35.45-1.91,4.26-4.19,7.35-2,6.25,4.35.27,7.47,11.32,6.43,1-.09,4.15.24,4.93,1,2.95,3.06,5.83,2.34,9.53.06a4.56,4.56,0,0,1,4.87,0c1.68,1.11.95,3,.76,4.65s.42,2.8-.1,4.8c-1,4-1.24,5.84-7.07,4.6a9.24,9.24,0,0,1-2.5-.53c-1.95-1-3.09-5.78-7.07-3.71a6.48,6.48,0,0,1-7.34-1.55c-2.63-3.64-3.91-.93-8.38.53-3.07,1-5.17-.33-6.38-3.19C137.46,182.34,136.63,181.14,136.52,179.79Z" fill="#c4ea37"/><image id="Klaus" width="143" height="192" transform="translate(111.58 15.74) scale(0.9 0.87)" xlink:href="assets/bartenders/klaus-leaning3.png"/></g></svg>