<svg xmlns="http://www.w3.org/2000/svg" xmlns:xlink="http://www.w3.org/1999/xlink" viewBox="0 0 300 508"><title>peter-back-carrying</title><g id="peter_back_carrying" data-name="peter back carrying"><g id="bartender_back_legs" data-name="bartender back legs"><path d="M125.59,361.41c-.9-1.28.7-9.12.47-10.85-2.08-15.28-1.91-17.86.75-30,1.13-5.17,3.5-7.8,8.17-8.46,10-1.4,19.93-2.76,29.88-4.2,1.76-.25,3,0,3.33,2.15,2.63,17.4,8.59,33.8,13.26,50.59.16.58-.23,1.34-.37,2C162.56,363.42,144.13,359.67,125.59,361.41Z" fill="#a29afa"/><path d="M83.16,479c-3.68-20.33-2.05-40.66-.16-61,1.72-18.45,5.4-36.76,3.56-55.5-.26-2.64.94-5.44,1.47-8.17,7.4-22.5,14.31-45.15,16.59-69,.71-7.42,4.68-13.13,8.11-19.15,6.1,3.38,12.85,1.77,19.23,2.41,16.34,1.64,32.79,2,49.18-.07,3.66,7,12.29,10.51,12.39,20.11,0,.91,1.19,1.91,2,2.68a16.39,16.39,0,0,1,4.87,10.44,65.45,65.45,0,0,0,5.35,19.37c4.61,10.85,5.86,22.87,10.5,33.69,2.37,10.91,4.35,21.94,7.23,32.69,2.81,10.47,1.49,20.7.49,31.15-1.5,15.65,1.6,31.19,1.67,46.84,0,4,.65,8.78-2.81,10.3-1.7,1-4.28,3.83-5.27,3.3-6.55-3.54-12.29,0-19.19-.73-1.66-.66-1.33-2.21-1.32-3.54.12-30.73-6-60.54-11.59-90.43-1.36-7.26-1.91-14.7-4.4-21.69.14-.68.53-1.44.37-2-4.67-16.79-10.63-33.19-13.26-50.59-.33-2.19-1.57-2.4-3.33-2.15-10,1.44-19.92,2.8-29.88,4.2-4.67.66-6.57,2.05-7.08,8.14-1.15,13.81,0,25.65-2.31,41.19-1.06,22.89-9.43,44.33-11.09,67.29-1.17,16.2-4.66,32.31-5,48.74-.07,3.25-.12,7-4.88,6.2C97.47,482.08,90.49,479.62,83.16,479Z" fill="#2a2651"/><path d="M198.39,480.14c5.82-2,11.42-5.21,18-1.89,1,.5,3.3-1.61,5-2.51,10,5.68,19.45,12.32,30.52,15.94,4,1.32,7.3,3.79,6.31,8.58-1,4.63-4.56,7-9.09,7.19-10.7.55-21.41.56-31.95-1.82-2.6-.59-5.19-1.29-7.65.13-4.65,2.7-8.74,1.9-12.58-1.6-4.09-3.73-3.29-8.42-2.08-12.84C195.86,487.56,198,484.14,198.39,480.14Z" fill="#a29afa"/><path d="M83.16,479c7.33.58,14.31,3,21.46,4.6,3,4.74,6.85,9,4,15.7-3.33,7.79-10.69,10.55-17.15,5.35-2.75-2.21-5.15-2.46-8.44-2-10.23,1.3-20.54.91-30.82.51-3.31-.13-6.29-2-8.72-4.47S41,493.21,42,490.2c1-2.85,3.45-2.34,5.62-2.3,8.32.14,16.62.49,23.9-5.28,1.32-1,3.82-.45,5.77-.48C79.77,482.1,82.3,482.39,83.16,479Z" fill="#a29afa"/><path d="M112.74,266.13c-3.44,6-7.41,11.74-8.11,19.15-2.28,23.9-9.19,46.55-16.59,69-3.15-1.54-4.3-4.26-4.44-7.86-.41-10.58.25-21,4.1-30.9,6-15.37,8.18-31.82,11.85-47.86a15.82,15.82,0,0,1,.26-2.07c1.69-4.38,3.8-9.54,8.61-9.21S112,262.44,112.74,266.13Z" fill="#a29afa"/><path d="M216.25,354.75c-4.65-10.82-5.89-22.84-10.5-33.69a65.45,65.45,0,0,1-5.35-19.37,16.39,16.39,0,0,0-4.87-10.44c-.8-.77-2-1.77-2-2.68-.1-9.6-8.73-13.1-12.39-20.11a10.17,10.17,0,0,1,8.4-8.54c4.48-.94,5.86,3.06,7.92,6,10,14.19,11.3,31.54,15,47.93A144.25,144.25,0,0,1,216.25,354.75Z" fill="#a29afa"/></g><image id="hand" width="131" height="87" transform="matrix(-0.99, -0.18, -0.2, 1.18, 304.44, 196.25)" xlink:href="assets/bartenders/hand.png"/><image id="hand-2" data-name="hand" width="131" height="87" transform="matrix(0.61, 0.79, 0.87, -0.73, -4.44, 210.78)" xlink:href="assets/bartenders/hand.png"/><g id="back_beers_and_plate" data-name="back beers and plate"><polygon points="148.72 224.87 175.63 224.87 178.81 156.62 145.7 156.62 148.72 224.87" fill="#af6e10"/><polygon points="148.72 224 175.63 224 178.81 155.75 145.7 155.75 148.72 224" fill="none" stroke="#fff" stroke-miterlimit="10" stroke-width="2"/><rect x="146.38" y="156.83" width="32.05" height="14.37" transform="translate(324.81 328.04) rotate(-180)" fill="#fff"/><line x1="152.57" y1="177.85" x2="154.28" y2="214.99" fill="none" stroke="#fff" stroke-miterlimit="10"/><polygon points="193.11 234.57 220.03 234.57 223.2 166.33 190.09 166.33 193.11 234.57" fill="#af6e10"/><polygon points="193.11 233.7 220.03 233.7 223.2 165.46 190.09 165.46 193.11 233.7" fill="none" stroke="#fff" stroke-miterlimit="10" stroke-width="2"/><rect x="190.77" y="166.54" width="32.05" height="14.37" transform="translate(413.59 347.44) rotate(-180)" fill="#fff"/><line x1="196.96" y1="187.55" x2="198.67" y2="224.69" fill="none" stroke="#fff" stroke-miterlimit="10"/><polygon points="175.57 253.32 202.49 253.32 205.66 185.07 172.56 185.07 175.57 253.32" fill="#af6e10"/><polygon points="175.57 252.45 202.49 252.45 205.66 184.2 172.56 184.2 175.57 252.45" fill="none" stroke="#fff" stroke-miterlimit="10" stroke-width="2"/><rect x="173.23" y="185.28" width="32.05" height="14.37" transform="translate(378.52 384.93) rotate(-180)" fill="#fff"/><line x1="179.42" y1="206.3" x2="181.14" y2="243.44" fill="none" stroke="#fff" stroke-miterlimit="10"/><polygon points="129.3 235 156.22 235 159.39 166.76 126.29 166.76 129.3 235" fill="#af6e10"/><polygon points="129.3 234.14 156.22 234.14 159.39 165.89 126.29 165.89 129.3 234.14" fill="none" stroke="#fff" stroke-miterlimit="10" stroke-width="2"/><rect x="126.96" y="166.97" width="32.05" height="14.37" transform="translate(285.98 348.31) rotate(-180)" fill="#fff"/><line x1="133.15" y1="187.99" x2="134.86" y2="225.12" fill="none" stroke="#fff" stroke-miterlimit="10"/><polygon points="139.91 257.78 166.83 257.78 170 189.54 136.9 189.54 139.91 257.78" fill="#af6e10"/><polygon points="139.91 256.91 166.83 256.91 170 188.67 136.9 188.67 139.91 256.91" fill="none" stroke="#fff" stroke-miterlimit="10" stroke-width="2"/><rect x="137.57" y="189.75" width="32.05" height="14.37" transform="translate(307.2 393.86) rotate(-180)" fill="#fff"/><line x1="143.76" y1="210.76" x2="145.48" y2="247.9" fill="none" stroke="#fff" stroke-miterlimit="10"/><polygon points="99.31 227.02 126.23 227.02 129.41 158.78 96.3 158.78 99.31 227.02" fill="#af6e10"/><polygon points="99.31 226.16 126.23 226.16 129.41 157.91 96.3 157.91 99.31 226.16" fill="none" stroke="#fff" stroke-miterlimit="10" stroke-width="2"/><rect x="96.98" y="158.99" width="32.05" height="14.37" transform="translate(226.01 332.34) rotate(-180)" fill="#fff"/><line x1="103.17" y1="180" x2="104.88" y2="217.14" fill="none" stroke="#fff" stroke-miterlimit="10"/><polygon points="75.89 243.92 102.8 243.92 105.98 175.68 72.87 175.68 75.89 243.92" fill="#af6e10"/><polygon points="75.89 243.05 102.8 243.05 105.98 174.81 72.87 174.81 75.89 243.05" fill="none" stroke="#fff" stroke-miterlimit="10" stroke-width="2"/><rect x="73.55" y="175.88" width="32.05" height="14.37" transform="translate(179.15 366.14) rotate(-180)" fill="#fff"/><line x1="79.74" y1="196.9" x2="81.45" y2="234.04" fill="none" stroke="#fff" stroke-miterlimit="10"/><polygon points="106.42 250.03 133.34 250.03 136.51 181.78 103.41 181.78 106.42 250.03" fill="#af6e10"/><polygon points="106.42 249.16 133.34 249.16 136.51 180.91 103.41 180.91 106.42 249.16" fill="none" stroke="#fff" stroke-miterlimit="10" stroke-width="2"/><rect x="104.08" y="181.99" width="32.05" height="14.37" transform="translate(240.22 378.35) rotate(-180)" fill="#fff"/><line x1="110.27" y1="203.01" x2="111.99" y2="240.15" fill="none" stroke="#fff" stroke-miterlimit="10"/><path id="plate_back" data-name="plate back" d="M155.8,219l-2.16-.06a10.57,10.57,0,0,1-5.35-.15l-9.11-.06a6.36,6.36,0,0,1-5.66.11l-3.8.4a2.13,2.13,0,0,1-2.83,0l-3.51.2c-4.23,1.57-8.57.53-12.88.12l-3.42.24a10,10,0,0,1-6.65.75l-1.62.21c-1.24,1.24-2.78,1-4.39.47l-1.55.16c-1.12,1.07-2.53.95-4,.54l-2.57.25a13.62,13.62,0,0,1-7,1.64l-1.54.3-1.27.34-2,.68a3.6,3.6,0,0,1-3.78,2.11l-.94.72.21,11.34.3.72c2.13.71,2.52,2.19,2.8,3.72l.94.74,1,.73,2.79,1.53a5.23,5.23,0,0,1,4.06,1.88l1.41.61c1.82.16,3.58.46,4.84,1.65l1.54.34a10.06,10.06,0,0,1,6,1.19l3.56.37c2-.16,4.11-.47,5.84.85l3.49.29c2.43,0,5.15-.89,6.82,1.45l40.51,1.44c.51-1.11,1.73-1.23,3-1.18,4.74.16,9.49.35,14.23.54l1.65,0a2,2,0,0,1,2.88-.08c3.59.84,6.68-.73,10-1.19,8.44-1.16,16.8-2.64,25.17-4.05a7.56,7.56,0,0,0,3.36-1.13c4.69-4,10.65-7.05,14.83-11.47l.09-2.93c-3.11-5.36-6.92-10.23-14.43-12.54a4.09,4.09,0,0,1-3.07-.41c-4.12.12-7.87-1.5-11.92-1.71a1.94,1.94,0,0,1-2.47-.54c-8.78-1.84-17.74-1.26-26.62-1.57-4.84-.17-9.69.05-14.53.1A1.7,1.7,0,0,1,155.8,219Z" fill="#4d3b98"/></g><g id="back_hands_carrying" data-name="back hands carrying"><path d="M259.32,201c.95-18.22-5.17-31.66-15.81-43.16a25.6,25.6,0,0,0-9.18-6.21c-12.92-5.48-26-10-40.08-10.24-4-.07-8.31-5.3-11.32-1.52-2.14,2.69,1.76,7.39,2.36,11.44,1.57,10.58,2,10.08,11.87,12.5s19.76,4.18,28.6,10c5.51,3.61,9.64,12.32,9.94,19,.39,8.82-1.52,16.87-3.15,25.31-.8,4.15,5.55,11.19,10.15,14.66,2.43,1.83,7.87-2.15,9.59-6.36C255.81,217.77,262.07,209.83,259.32,201Z" fill="#a69efe"/><path d="M32.22,201c-.95-18.22,5.17-31.66,15.81-43.16a25.6,25.6,0,0,1,9.18-6.21c12.92-5.48,26-10,40.08-10.24,4-.07,8.31-5.3,11.32-1.52,2.14,2.69-1.76,7.39-2.36,11.44-1.57,10.58-2,10.08-11.87,12.5s-19.76,4.18-28.6,10c-5.51,3.61-9.64,12.32-9.94,19-.39,8.82,1.52,16.87,3.15,25.31.8,4.15-5.55,11.19-10.15,14.66-2.43,1.83-7.87-2.15-9.59-6.36C35.73,217.77,29.47,209.83,32.22,201Z" fill="#a69efe"/></g><image id="backhead-peter" width="274" height="325" transform="translate(88.89 -0.25) scale(0.39 0.41)" xlink:href="assets/bartenders/klaus-backhead.png"/><g id="bartender_back" data-name="bartender back"><path d="M172.25,136.83c-20.12,5.06-40.76,4.14-61.38,1.68-1.2-6.54-7.92-18.44.65-17.43,5.48.64,24.49,5,30.93,3.92,8.55-1.47,18.6-.93,27.56-2.19,5.6-.79,6.92-2.56,7.58,1.09C178.34,128.14,173.42,132.79,172.25,136.83Z" fill="#a6a0fd"/><path d="M109.25,264.9c-3.87-3.88-6-8.13-2.77-13.71A4.65,4.65,0,0,0,107,248c-3.85-13.71-1.14-29.42-10.93-41.33a5.15,5.15,0,0,1-1.34-4.16c1.47-11,3.06-22.05,4.26-33.12.9-8.27,2.13-16.36,5.25-24.1,3.21-8,5-9.08,13-7.12a35.4,35.4,0,0,0,5.45.5c13.11,2.45,26.15,3.17,38.94-1.89,5.68.25,11.06-3.34,17.19-.11,3,1.58,5.25,2.82,6.32,6.06a142.1,142.1,0,0,1,7.26,52.57c-.72,13.34-1,26.45.61,39.79,1.36,11-1.53,21.22-10.71,28.18-7.09,2.71-14.24,4.47-21.94,4.18-11.8-.44-23.4-2.75-35.15-3.42C119.87,263.76,114.44,262,109.25,264.9Z" fill="#022aaa"/><path d="M109.25,264.9c5.2-2.93,10.63-1.13,16-.83,11.75.67,23.36,3,35.15,3.42,7.7.29,14.85-1.47,21.94-4.18,4.65,5.61-.35,7.42-3.59,8.67a33.42,33.42,0,0,1-15.09,1.94c-4.95-.46-6.47,1.38-4.26,6.37q2.48,5.62,4.61,11.42c.73,2,1.62,4.5-.94,5.67-2.31,1.06-3.75-.75-4.85-2.78-3.1-5.73-4.77-12-6.69-18.26-.42-1.35-.33-3.33-2.32-3.32s-1.82,1.93-2,3.35c-.8,5.15-1.63,10.29-2.34,15.45-.35,2.51-1,5.44-3.57,5.23-3.61-.28-2.6-4-2.31-6.27.6-4.73,2.07-9.3,2.4-14.14.25-3.7-.9-5-4.34-5.26-7.51-.63-15-1.74-22.46-2.59A6.16,6.16,0,0,1,109.25,264.9Z" fill="#a6a0fd"/></g></g></svg>