<svg id="bar-background" xmlns="http://www.w3.org/2000/svg" viewBox="0 0 1440 1024"><title>bar-background</title><rect id="wall" x="-3" y="-5" width="1448" height="1021" fill="#0d0627"/><g id="floor"><polygon points="1779.69 573.11 -276 573.09 -44.95 243 1521.14 243.21 1779.69 573.11" fill="#0d0627"/><polygon points="25 261.75 -58.06 261.74 -44.95 243 36.67 243.01 25 261.75" fill="#1b0b52"/><polygon points="97.46 281.19 12.9 281.18 25 261.75 108.05 261.76 97.46 281.19" fill="#1b0b52"/><polygon points="172.59 301.33 86.48 301.32 97.46 281.19 182.01 281.19 172.59 301.33" fill="#1b0b52"/><polygon points="250.53 322.23 162.81 322.22 172.59 301.33 258.69 301.34 250.53 322.23" fill="#1b0b52"/><polygon points="331.45 343.93 242.06 343.92 250.53 322.23 338.25 322.24 331.45 343.93" fill="#1b0b52"/><polygon points="415.52 366.47 324.39 366.46 331.45 343.93 420.83 343.94 415.52 366.47" fill="#1b0b52"/><polygon points="502.92 389.9 409.99 389.9 415.52 366.47 506.64 366.48 502.92 389.9" fill="#1b0b52"/><polygon points="593.86 414.29 499.05 414.28 502.92 389.9 595.84 389.91 593.86 414.29" fill="#1b0b52"/><polygon points="688.55 439.68 591.79 439.68 593.86 414.29 688.66 414.3 688.55 439.68" fill="#1b0b52"/><polygon points="787.24 466.14 688.44 466.14 688.55 439.68 785.31 439.69 787.24 466.14" fill="#1b0b52"/><polygon points="890.19 493.75 789.26 493.74 787.24 466.14 886.04 466.15 890.19 493.75" fill="#1b0b52"/><polygon points="997.67 522.57 894.52 522.57 890.19 493.75 991.11 493.75 997.67 522.57" fill="#1b0b52"/><polygon points="1109.98 552.68 1004.52 552.68 997.67 522.57 1100.81 522.57 1109.98 552.68" fill="#1b0b52"/><polygon points="1227.48 584.19 1119.59 584.19 1109.98 552.68 1215.44 552.69 1227.48 584.19" fill="#1b0b52"/><polygon points="0.37 301.31 -85.75 301.3 -71.66 281.17 12.9 281.18 0.37 301.31" fill="#1b0b52"/><polygon points="75.09 322.21 -12.64 322.2 0.37 301.31 86.48 301.32 75.09 322.21" fill="#1b0b52"/><polygon points="152.66 343.91 63.26 343.9 75.09 322.21 162.81 322.22 152.66 343.91" fill="#1b0b52"/><polygon points="233.26 366.45 142.12 366.44 152.66 343.91 242.06 343.92 233.26 366.45" fill="#1b0b52"/><polygon points="317.05 389.89 224.1 389.88 233.26 366.45 324.39 366.46 317.05 389.89" fill="#1b0b52"/><polygon points="404.23 414.28 309.41 414.27 317.05 389.89 409.99 389.9 404.23 414.28" fill="#1b0b52"/><polygon points="495.01 439.67 398.24 439.66 404.23 414.28 499.05 414.28 495.01 439.67" fill="#1b0b52"/><polygon points="589.63 466.13 490.81 466.13 495.01 439.67 591.79 439.68 589.63 466.13" fill="#1b0b52"/><polygon points="688.32 493.74 587.38 493.74 589.63 466.13 688.44 466.14 688.32 493.74" fill="#1b0b52"/><polygon points="791.36 522.56 688.2 522.56 688.32 493.74 789.26 493.74 791.36 522.56" fill="#1b0b52"/><polygon points="899.05 552.68 793.56 552.68 791.36 522.56 894.52 522.57 899.05 552.68" fill="#1b0b52"/><polygon points="1011.69 584.19 903.78 584.19 899.05 552.68 1004.52 552.68 1011.69 584.19" fill="#1b0b52"/><polygon points="50.97 366.44 -40.18 366.43 -26.15 343.89 63.26 343.9 50.97 366.44" fill="#1b0b52"/><polygon points="131.15 389.88 38.19 389.87 50.97 366.44 142.12 366.44 131.15 389.88" fill="#1b0b52"/><polygon points="214.58 414.26 119.74 414.26 131.15 389.88 224.1 389.88 214.58 414.26" fill="#1b0b52"/><polygon points="301.45 439.66 204.66 439.65 214.58 414.26 309.41 414.27 301.45 439.66" fill="#1b0b52"/><polygon points="391.99 466.13 293.16 466.12 301.45 439.66 398.24 439.66 391.99 466.13" fill="#1b0b52"/><polygon points="486.43 493.73 385.47 493.73 391.99 466.13 490.81 466.13 486.43 493.73" fill="#1b0b52"/><polygon points="585.03 522.55 481.85 522.55 486.43 493.73 587.38 493.74 585.03 522.55" fill="#1b0b52"/><polygon points="688.07 552.68 582.58 552.67 585.03 522.55 688.2 522.56 688.07 552.68" fill="#1b0b52"/><polygon points="795.87 584.19 687.94 584.19 688.07 552.68 793.56 552.68 795.87 584.19" fill="#1b0b52"/><polygon points="24.9 414.25 -69.95 414.24 -54.77 389.86 38.19 389.87 24.9 414.25" fill="#1b0b52"/><polygon points="107.86 439.65 11.05 439.64 24.9 414.25 119.74 414.26 107.86 439.65" fill="#1b0b52"/><polygon points="194.32 466.12 95.47 466.11 107.86 439.65 204.66 439.65 194.32 466.12" fill="#1b0b52"/><polygon points="284.51 493.72 183.53 493.72 194.32 466.12 293.16 466.12 284.51 493.72" fill="#1b0b52"/><polygon points="378.67 522.55 275.47 522.55 284.51 493.72 385.47 493.73 378.67 522.55" fill="#1b0b52"/><polygon points="477.07 552.67 371.56 552.67 378.67 522.55 481.85 522.55 477.07 552.67" fill="#1b0b52"/><polygon points="580.01 584.19 472.07 584.18 477.07 552.67 582.58 552.67 580.01 584.19" fill="#1b0b52"/><polygon points="-3.38 466.11 -102.24 466.1 -85.76 439.63 11.05 439.64 -3.38 466.11" fill="#1b0b52"/><polygon points="82.55 493.72 -18.43 493.71 -3.38 466.11 95.47 466.11 82.55 493.72" fill="#1b0b52"/><polygon points="172.27 522.54 69.06 522.54 82.55 493.72 183.53 493.72 172.27 522.54" fill="#1b0b52"/><polygon points="266.03 552.67 160.5 552.67 172.27 522.54 275.47 522.55 266.03 552.67" fill="#1b0b52"/><polygon points="364.12 584.18 256.16 584.18 266.03 552.67 371.56 552.67 364.12 584.18" fill="#1b0b52"/><polygon points="54.97 552.66 -50.58 552.66 -34.15 522.54 69.06 522.54 54.97 552.66" fill="#1b0b52"/><polygon points="148.19 584.18 40.22 584.18 54.97 552.66 160.5 552.67 148.19 584.18" fill="#1b0b52"/><polygon points="191.1 261.77 108.05 261.76 118.27 243.02 199.87 243.03 191.1 261.77" fill="#1b0b52"/><polygon points="266.56 281.2 182.01 281.19 191.1 261.77 274.15 261.79 266.56 281.2" fill="#1b0b52"/><polygon points="344.79 301.35 258.69 301.34 266.56 281.2 351.1 281.21 344.79 301.35" fill="#1b0b52"/><polygon points="425.96 322.25 338.25 322.24 344.79 301.35 430.89 301.36 425.96 322.25" fill="#1b0b52"/><polygon points="510.21 343.94 420.83 343.94 425.96 322.25 513.66 322.26 510.21 343.94" fill="#1b0b52"/><polygon points="597.75 366.49 506.64 366.48 510.21 343.94 599.59 343.95 597.75 366.49" fill="#1b0b52"/><polygon points="688.76 389.92 595.84 389.91 597.75 366.49 688.86 366.49 688.76 389.92" fill="#1b0b52"/><polygon points="783.46 414.3 688.66 414.3 688.76 389.92 781.67 389.93 783.46 414.3" fill="#1b0b52"/><polygon points="882.06 439.69 785.31 439.69 783.46 414.3 878.25 414.31 882.06 439.69" fill="#1b0b52"/><polygon points="984.83 466.15 886.04 466.15 882.06 439.69 978.81 439.7 984.83 466.15" fill="#1b0b52"/><polygon points="1092.02 493.76 991.11 493.75 984.83 466.15 1083.61 466.16 1092.02 493.76" fill="#1b0b52"/><polygon points="1203.94 522.57 1100.81 522.57 1092.02 493.76 1192.93 493.76 1203.94 522.57" fill="#1b0b52"/><polygon points="1320.89 552.69 1215.44 552.69 1203.94 522.57 1307.06 522.58 1320.89 552.69" fill="#1b0b52"/><polygon points="1443.24 584.19 1335.36 584.19 1320.89 552.69 1426.33 552.69 1443.24 584.19" fill="#1b0b52"/><polygon points="357.19 261.8 274.15 261.79 281.47 243.04 363.06 243.05 357.19 261.8" fill="#1b0b52"/><polygon points="435.64 281.23 351.1 281.21 357.19 261.8 440.23 261.81 435.64 281.23" fill="#1b0b52"/><polygon points="516.98 301.37 430.89 301.36 435.64 281.23 520.17 281.24 516.98 301.37" fill="#1b0b52"/><polygon points="601.36 322.27 513.66 322.26 516.98 301.37 603.06 301.38 601.36 322.27" fill="#1b0b52"/><polygon points="688.96 343.96 599.59 343.95 601.36 322.27 689.05 322.27 688.96 343.96" fill="#1b0b52"/><polygon points="779.96 366.5 688.86 366.49 688.96 343.96 778.32 343.97 779.96 366.5" fill="#1b0b52"/><polygon points="874.58 389.93 781.67 389.93 779.96 366.5 871.06 366.51 874.58 389.93" fill="#1b0b52"/><polygon points="973.03 414.31 878.25 414.31 874.58 389.93 967.48 389.94 973.03 414.31" fill="#1b0b52"/><polygon points="1075.54 439.7 978.81 439.7 973.03 414.31 1067.81 414.32 1075.54 439.7" fill="#1b0b52"/><polygon points="1182.38 466.16 1083.61 466.16 1075.54 439.7 1172.28 439.71 1182.38 466.16" fill="#1b0b52"/><polygon points="1293.83 493.76 1192.93 493.76 1182.38 466.16 1281.15 466.17 1293.83 493.76" fill="#1b0b52"/><polygon points="1410.18 522.58 1307.06 522.58 1293.83 493.76 1394.72 493.77 1410.18 522.58" fill="#1b0b52"/><polygon points="1531.77 552.69 1426.33 552.69 1410.18 522.58 1513.29 522.58 1531.77 552.69" fill="#1b0b52"/><polygon points="523.26 261.82 440.23 261.81 444.65 243.06 526.23 243.07 523.26 261.82" fill="#1b0b52"/><polygon points="604.7 281.25 520.17 281.24 523.26 261.82 606.28 261.83 604.7 281.25" fill="#1b0b52"/><polygon points="689.13 301.39 603.06 301.38 604.7 281.25 689.22 281.25 689.13 301.39" fill="#1b0b52"/><polygon points="776.73 322.28 689.05 322.27 689.13 301.39 775.21 301.4 776.73 322.28" fill="#1b0b52"/><polygon points="867.67 343.98 778.32 343.97 776.73 322.28 864.41 322.29 867.67 343.98" fill="#1b0b52"/><polygon points="962.15 366.52 871.06 366.51 867.67 343.98 957.02 343.99 962.15 366.52" fill="#1b0b52"/><polygon points="1060.38 389.95 967.48 389.94 962.15 366.52 1053.23 366.52 1060.38 389.95" fill="#1b0b52"/><polygon points="1162.58 414.33 1067.81 414.32 1060.38 389.95 1153.26 389.96 1162.58 414.33" fill="#1b0b52"/><polygon points="1269 439.72 1172.28 439.71 1162.58 414.33 1257.34 414.33 1269 439.72" fill="#1b0b52"/><polygon points="1379.91 466.17 1281.15 466.17 1269 439.72 1365.72 439.72 1379.91 466.17" fill="#1b0b52"/><polygon points="1495.6 493.77 1394.72 493.77 1379.91 466.17 1478.66 466.18 1495.6 493.77" fill="#1b0b52"/><polygon points="689.3 261.84 606.28 261.83 607.81 243.09 689.38 243.1 689.3 261.84" fill="#1b0b52"/><polygon points="773.74 281.26 689.22 281.25 689.3 261.84 772.32 261.85 773.74 281.26" fill="#1b0b52"/><polygon points="861.27 301.41 775.21 301.4 773.74 281.26 858.25 281.27 861.27 301.41" fill="#1b0b52"/><polygon points="952.09 322.3 864.41 322.29 861.27 301.41 947.34 301.42 952.09 322.3" fill="#1b0b52"/><polygon points="1046.37 344 957.02 343.99 952.09 322.3 1039.76 322.31 1046.37 344" fill="#1b0b52"/><polygon points="1144.31 366.53 1053.23 366.52 1046.37 344 1135.71 344 1144.31 366.53" fill="#1b0b52"/><polygon points="1246.15 389.96 1153.26 389.96 1144.31 366.53 1235.39 366.54 1246.15 389.96" fill="#1b0b52"/><polygon points="1352.1 414.34 1257.34 414.33 1246.15 389.96 1339.02 389.97 1352.1 414.34" fill="#1b0b52"/><polygon points="1462.43 439.73 1365.72 439.72 1352.1 414.34 1446.85 414.35 1462.43 439.73" fill="#1b0b52"/><polygon points="855.33 261.86 772.32 261.85 770.95 243.11 852.51 243.12 855.33 261.86" fill="#1b0b52"/><polygon points="942.75 281.29 858.25 281.27 855.33 261.86 938.33 261.87 942.75 281.29" fill="#1b0b52"/><polygon points="1033.39 301.43 947.34 301.42 942.75 281.29 1027.25 281.3 1033.39 301.43" fill="#1b0b52"/><polygon points="1127.42 322.32 1039.76 322.31 1033.39 301.43 1119.44 301.44 1127.42 322.32" fill="#1b0b52"/><polygon points="1225.04 344.01 1135.71 344 1127.42 322.32 1215.08 322.33 1225.04 344.01" fill="#1b0b52"/><polygon points="1326.45 366.55 1235.39 366.54 1225.04 344.01 1314.37 344.02 1326.45 366.55" fill="#1b0b52"/><polygon points="1431.89 389.98 1339.02 389.97 1326.45 366.55 1417.51 366.56 1431.89 389.98" fill="#1b0b52"/><polygon points="1541.59 414.36 1446.85 414.35 1431.89 389.98 1524.75 389.99 1541.59 414.36" fill="#1b0b52"/><polygon points="1021.34 261.88 938.33 261.87 934.07 243.13 1015.62 243.14 1021.34 261.88" fill="#1b0b52"/><polygon points="1111.75 281.31 1027.25 281.3 1021.34 261.88 1104.33 261.89 1111.75 281.31" fill="#1b0b52"/><polygon points="1205.49 301.44 1119.44 301.44 1111.75 281.31 1196.24 281.31 1205.49 301.44" fill="#1b0b52"/><polygon points="1302.73 322.34 1215.08 322.33 1205.49 301.44 1291.53 301.45 1302.73 322.34" fill="#1b0b52"/><polygon points="1403.69 344.03 1314.37 344.02 1302.73 322.34 1390.38 322.35 1403.69 344.03" fill="#1b0b52"/><polygon points="1508.57 366.56 1417.51 366.56 1403.69 344.03 1493 344.04 1508.57 366.56" fill="#1b0b52"/><polygon points="1187.32 261.9 1104.33 261.89 1097.17 243.15 1178.71 243.16 1187.32 261.9" fill="#1b0b52"/><polygon points="1280.72 281.32 1196.24 281.31 1187.32 261.9 1270.31 261.91 1280.72 281.32" fill="#1b0b52"/><polygon points="1377.56 301.46 1291.53 301.45 1280.72 281.32 1365.2 281.33 1377.56 301.46" fill="#1b0b52"/><polygon points="1478.02 322.36 1390.38 322.35 1377.56 301.46 1463.59 301.47 1478.02 322.36" fill="#1b0b52"/><polygon points="1359.93 261.92 1276.95 261.91 1266.78 243.17 1348.31 243.18 1359.93 261.92" fill="#1b0b52"/><polygon points="1456.44 281.35 1371.96 281.33 1359.93 261.92 1442.9 261.93 1456.44 281.35" fill="#1b0b52"/><polygon points="1525.87 261.94 1442.9 261.93 1429.84 243.19 1511.36 243.21 1525.87 261.94" fill="#1b0b52"/></g><rect x="90" y="-13" width="132" height="155" fill="#05002a" stroke="#4d4d4d" stroke-miterlimit="1"/><line x1="154.5" y1="1.5" x2="154.5" y2="141.5" fill="none" stroke="#4d4d4d" stroke-miterlimit="1"/><rect x="268" y="-13" width="132" height="155" fill="#05002a" stroke="#4d4d4d" stroke-miterlimit="1"/><line x1="332.5" y1="1.5" x2="332.5" y2="141.5" fill="none" stroke="#4d4d4d" stroke-miterlimit="1"/><rect x="1176" y="-11" width="132" height="155" fill="#05002a" stroke="#4d4d4d" stroke-miterlimit="1"/><line x1="1240.5" y1="3.5" x2="1240.5" y2="143.5" fill="none" stroke="#4d4d4d" stroke-miterlimit="1"/><rect x="1354" y="-11" width="132" height="155" fill="#05002a" stroke="#4d4d4d" stroke-miterlimit="1"/><line x1="1418.5" y1="3.5" x2="1418.5" y2="143.5" fill="none" stroke="#4d4d4d" stroke-miterlimit="1"/><g id="chair"><path d="M1250.5,237H1212V188.5a12,12,0,0,0-12-12h-17.5a12,12,0,0,0-12,12v57.1a12,12,0,0,0-.5,3.4v17.5a12,12,0,0,0,12,12h68.5a12,12,0,0,0,12-12V249a12,12,0,0,0-12-12Z" fill="#55257f"/><path d="M1253.5,237H1215V188.5a12,12,0,0,0-12-12h-17.5a12,12,0,0,0-12,12v57.1a12,12,0,0,0-.5,3.4v17.5a12,12,0,0,0,12,12h68.5a12,12,0,0,0,12-12V249a12,12,0,0,0-12-12Z" fill="#1b0b52"/></g><path d="M1369,238h38.5V189.5a12,12,0,0,1,12-12H1437a12,12,0,0,1,12,12v57.1a12,12,0,0,1,.5,3.4v17.5a12,12,0,0,1-12,12H1369a12,12,0,0,1-12-12V250A12,12,0,0,1,1369,238Z" fill="#55257f"/><path d="M1373,241h38.5V192.5a12,12,0,0,1,12-12H1441a12,12,0,0,1,12,12v57.1a12,12,0,0,1,.5,3.4v17.5a12,12,0,0,1-12,12H1373a12,12,0,0,1-12-12V253A12,12,0,0,1,1373,241Z" fill="#1b0b52"/><path d="M1356.81,214.5h0a7.5,7.5,0,0,1-7.5,7.5h-77.5a7.5,7.5,0,0,1-7.5-7.5h0a7.5,7.5,0,0,1,7.5-7.5h77.5A7.5,7.5,0,0,1,1356.81,214.5Z" fill="#55257f"/><rect x="1306.43" y="222" width="8.25" height="52" fill="#333"/><g id="flamingo"><polygon points="1058.04 35.55 1041.33 35.55 1038.94 30.78 1042.52 26 1056.84 26 1058.04 35.55" fill="#a8617f"/><rect x="1046.1" y="31.97" width="11.93" height="3.58" fill="#a8617f"/><path d="M1124.87,71.35h-38.64a10.28,10.28,0,0,1-10.29-10.27v-4.5a10.29,10.29,0,0,1,10.29-10.29h32.67l-2.39,9.55-4.77,6Z" fill="#a8617f"/><path d="M1117.71,53.45a7.15,7.15,0,0,1-7.16-7.14v0h8.35Z" fill="#f5a5c7"/><path d="M1084.29,71.35a7.16,7.16,0,0,1,0-14.32h25.06l19.1,14.32Z" fill="#f5a5c7"/><path d="M1071.16,59.42V33.16l-.46.12a6.94,6.94,0,0,0,.46-2.5,7.16,7.16,0,1,0-7.16,7.16,7,7,0,0,0,2.39-.42V63l4.77,2.39h4.78v-6Z" fill="#f5a5c7"/><polygon points="1100 86.02 1100 73.74 1097.22 73.74 1097.22 82.94 1094.04 82.63 1094.04 73.74 1091.25 73.74 1091.25 82.35 1085.29 81.75 1085.29 88.06 1088.07 88.06 1088.07 84.83 1091.25 85.14 1091.25 96.22 1085.48 96.22 1085.48 99 1096.22 99 1096.22 96.22 1094.04 96.22 1094.04 85.42 1100 86.02" fill="#8c44c1"/><rect x="1095.03" y="65.19" width="27.45" height="2.78" fill="#8c44c1"/><rect x="1086.68" y="55.64" width="22.68" height="2.78" fill="#8c44c1"/><path d="M1115.32,53.65a5,5,0,0,1-5-5h2.78a2.19,2.19,0,0,0,2.19,2.19Z" fill="#8c44c1"/><path d="M1085.58,69.83a8.26,8.26,0,0,1-8.25-8.25V55.94a8.27,8.27,0,0,1,8.25-8.26h31.88a19.92,19.92,0,0,1-5.75,12.74h-20.26V63.2h25.06V60.42h-1.1a22.62,22.62,0,0,0,4.88-14.13V44.9h-34.71a11,11,0,0,0-11,11v2.29a1,1,0,0,1-2,0V30.78a8.55,8.55,0,0,0-14.47-6.17h-13.17a7.36,7.36,0,0,0,0,14.72h0a5.65,5.65,0,0,0,.59,0V36.55a1.6,1.6,0,0,1,0-3.19h10.35c.09.27.19.54.3.8H1046.1v2.78h12a8.53,8.53,0,0,0,5.92,2.39h1V60.61a6.17,6.17,0,0,0,6.16,6.17h4.69a11,11,0,0,0,9.73,5.83l42.86.13V70Zm-44.43-35.26a4.49,4.49,0,0,1-.82-2.6,4.59,4.59,0,0,1,4.58-4.58h11.24a8.52,8.52,0,0,0-.69,3.19h-10a4.37,4.37,0,0,0-4.31,4Zm30,29.43a3.39,3.39,0,0,1-3.38-3.39V36.55H1064a5.77,5.77,0,1,1,5.77-5.77V58.23a3.78,3.78,0,0,0,3.78,3.77,3.66,3.66,0,0,0,1-.14,10.8,10.8,0,0,0,.27,2.14Z" fill="#8c44c1"/><rect x="1062.81" y="28.19" width="2.39" height="2.78" fill="#fff"/></g><g id="tree"><path d="M479.26,107.9l.8.41-.34.1-1.13.34h0a3.34,3.34,0,0,1,.11-.57c0-.21,0-.25.08-.38l.31-.28c.22.05.45.11.69.19l-.4-.09A2.05,2.05,0,0,1,479.26,107.9Z" fill="#55257f"/><path d="M483.22,107.43l-.44.11-1.14.32-.49.14-.2.06-.47-.17h0l-.06-.34v-.11l-.09-.07v.09c-.2-.09-.42-.19-.65-.31V107l.12-.1a.06.06,0,0,0,.06-.06l.47-.37.28-.23c.33-.27.69-.53,1.07-.8h0l.54-.36c-.07.32-.13.64-.18.94l.13.21c.23.42.45.81.65,1.19Z" fill="#55257f"/><path d="M475,107.57a24.28,24.28,0,0,1,2.6.37c.34.32.67.66,1,1A37.44,37.44,0,0,0,475,107.57Z" fill="#55257f"/><path d="M478.54,108.72a3.34,3.34,0,0,1,.11-.57l-1-.21-.62-.62c0-.08.1-.18.15-.28.5.29.78.41.84.32s0,0,0-.1c.33.06.68.14,1.07.23.22.05.45.11.69.19l-.4-.09a2.05,2.05,0,0,1-.07.31l.8.41.44-.13h0a1.11,1.11,0,0,0,0,.19v.23a.24.24,0,0,0,0,.08l-.88-.26-1.13.34S478.56,108.73,478.54,108.72Z" fill="#55257f"/><path d="M479.48,106.79a73.28,73.28,0,0,0-8.32-5,29,29,0,0,1,8.26,4.86l.31.26.53.48h0v.09c-.2-.09-.42-.19-.65-.31v-.11A2.17,2.17,0,0,1,479.48,106.79Z" fill="#55257f"/><path d="M480.37,107.54v-.11l.09.08h0v.36h0Z" fill="#55257f"/><path d="M477.61,107.94c.34.32.67.66,1,1a37.38,37.38,0,0,0-3.61-1.39A24.28,24.28,0,0,1,477.61,107.94Z" fill="#55257f"/><path d="M478.59,108.75h0a3.34,3.34,0,0,1,.11-.57c.38.08.73.17,1.07.26Z" fill="#55257f"/><path d="M480.53,109.2a4,4,0,0,1-.15-.79h0l-.33-.07h-.22C475.12,112.17,458.6,133,454,161.62c-4.52,27.81,4,51.81,5.5,51.64s-4-22,1.42-51.83C466,133.12,477.93,114.48,480.53,109.2Z" fill="#55257f"/><path d="M480.78,104.23q-.12,1.13-.3,2c0,.33-.12.63-.18.91v.17h0v.09c-.2-.09-.42-.19-.65-.31V107a2.17,2.17,0,0,1-.07-.24,1.27,1.27,0,0,1-.06-.18l.31.26.47-.37A26.53,26.53,0,0,1,480,103,9.06,9.06,0,0,0,480.78,104.23Z" fill="#55257f"/><path d="M482.78,107.54l.44-.11a17.27,17.27,0,0,1,6.34,1.42c4.35,1.89,6.82,5.22,9.19,9,7.29,11.5,11.53,23.66,10.81,23.94s-3.12-10.05-12.66-20.55A57.52,57.52,0,0,0,489,114a25.73,25.73,0,0,1,3.63,8.58c3.54,13.14,4,26,3.22,26.06s0-10.51-6-23.37a59.76,59.76,0,0,0-9.59-14.49,34.44,34.44,0,0,0-20,6.44c-10.77,7.85-14.58,20.32-15.23,19.37s2.41-16.53,12.21-24.23A24.45,24.45,0,0,1,475,107.57c1.37.45,2.58.94,3.61,1.39-.34-.36-.67-.7-1-1,.36.06.71.14,1,.21a3.2,3.2,0,0,1-.11.57h0l1.13-.34.88.26a.24.24,0,0,1,0-.08v-.23a1.11,1.11,0,0,1,0-.19h0l-.44.13-.8-.41a2.05,2.05,0,0,0,.07-.31l.4.09c-.24-.08-.47-.14-.69-.19-.39-.09-.74-.17-1.07-.23v.1a1.51,1.51,0,0,1-.84-.32c0,.1-.1.2-.15.28l.62.62a24.28,24.28,0,0,0-2.6-.37,33.13,33.13,0,0,0-16.69-1.22c-13.1,2.42-21.93,12-22.11,10.87s9.32-13.86,21.48-16.57a23.22,23.22,0,0,1,13.47,1.1,73.28,73.28,0,0,1,8.32,5,2.17,2.17,0,0,0,.07.24v.11c.23.12.45.22.65.31v-.09l.09.07v.11l.06.34h0l.47.17.27.09.31.13c-.06-.06-.15-.11-.22-.17l.31-.15a.36.36,0,0,1,0-.1Z" fill="#55257f"/><path d="M523.44,108.16c-.22.74-10.06-3.67-24.38-3.12a73.89,73.89,0,0,0-15.84,2.39h-.5c-.2-.38-.42-.77-.65-1.19l-.13-.21c0-.3.11-.62.18-.94l-.54.36h0c-.24-.38-.5-.78-.79-1.19s-.55-.76-.86-1.15a26.53,26.53,0,0,0,.28,3.42l-.47.37-.31-.26a29,29,0,0,0-8.26-4.86,68.79,68.79,0,0,0-8.8-3.82c-13.07-4.61-22-3.74-21.93-4.41,0-1.1,23.51-5.7,36.72,6.53l.1.1a70,70,0,0,0-7.38-14.23c-7.76-11.49-15.43-16.07-15-16.59.69-.86,22.3,9.4,25.64,27.09a4.15,4.15,0,0,0,.1.58,21.32,21.32,0,0,1,1.79-4.79c3.26-6.36,8.71-9.27,12.78-11.44,3.75-2,8.2-3.56,8.53-3,.49.92-9.54,4.83-16.07,14.19a33.8,33.8,0,0,0-4.68,9.82,23.12,23.12,0,0,1,7.58-9.16c5.86-4.1,12-4.14,16.65-4.16,4.25,0,8.91.68,8.92,1.37,0,1-10.69-.17-20.82,5.05a35,35,0,0,0-10.74,8.72,24.13,24.13,0,0,1,4.41-1.74,26.47,26.47,0,0,1,11.26-.46C512.64,103,523.68,107.38,523.44,108.16Z" fill="#55257f"/><path d="M482.78,107.54l-1.14.32a.36.36,0,0,0,0,.1l-.31.15s-.1-.08-.16-.11l-.64-.48h0l-.15-.11h-.09c-.18-.14-.39-.27-.59-.42l-.19-.14a73.28,73.28,0,0,0-8.32-5,29,29,0,0,1,8.26,4.86l.31.26.47-.37a26.53,26.53,0,0,1-.28-3.42c.31.39.6.77.86,1.15s.55.81.79,1.19h0c.13.2.25.39.36.58l.13.21c.23.42.45.81.65,1.19Z" fill="#55257f"/><path d="M480.53,108.17a1.11,1.11,0,0,0,0,.19h0v-.19Z" fill="#55257f"/><path d="M482.12,105.08c-.07.32-.13.64-.18.94a.79.79,0,0,0,0,.2c-.07.42-.14.82-.2,1.22l-.06.42a.36.36,0,0,0,0,.1l-.31.15h-.09L481,108l-.47-.17h0l-.06-.34v-.11h0l0-.23a6.22,6.22,0,0,0-.1-.68,26.53,26.53,0,0,1-.28-3.42c.31.39.6.77.86,1.15s.55.81.79,1.19h0Z" fill="#55257f"/><path d="M481.94,106l.13.21h-.62l-.08-.14c0-.18.11-.39.18-.62h0l.54-.36C482,105.4,482,105.72,481.94,106Z" fill="#55257f"/><path d="M480.55,108.36v.23l-.52-.28.44-.13h0A1.11,1.11,0,0,0,480.55,108.36Z" fill="#55257f"/><path d="M483.22,107.43l-.44.11-1.14.32a.36.36,0,0,0,0,.1l-.31.15c.07.06.16.11.22.17l-.31-.13-.27-.09-.47-.17h0l-.06-.34h.14c.36,0,.77-.07,1.19-.08s.66,0,1,0Z" fill="#55257f"/><path d="M480.6,108.67l-.88-.26-1.13.34h0a3.34,3.34,0,0,1,.11-.57l-1-.21-.62-.62c0-.08.1-.18.15-.28.5.29.78.41.84.32s0,0,0-.1c.33.06.68.14,1.07.23.22.05.45.11.69.19l-.4-.09a2.05,2.05,0,0,1-.07.31l.8.41.44-.13h0a1.11,1.11,0,0,0,0,.19v.23A.24.24,0,0,0,480.6,108.67Z" fill="#55257f"/><path d="M481.92,103.54l1,.44-.39.13-1.29.44h-.07a4.54,4.54,0,0,1,.11-.66c0-.24,0-.29.08-.44l.34-.34c.26.05.53.11.81.19l-.47-.08Q482,103.38,481.92,103.54Z" fill="#1b0b52"/><path d="M486.48,102.83l-.5.15-1.31.41-.56.18-.23.08-.54-.17h-.06l-.09-.4V103l-.1-.08V103l-.77-.33a1.13,1.13,0,0,0,0-.13l.14-.12.07-.07c.17-.15.34-.31.52-.45s.21-.19.32-.28c.37-.32.77-.64,1.2-1h0c.19-.15.39-.29.6-.44-.06.37-.12.74-.17,1.09l.16.24c.29.47.56.92.8,1.35Z" fill="#1b0b52"/><path d="M477,103.33q1.51.09,3,.32c.4.36.8.74,1.21,1.14Q479.14,104,477,103.33Z" fill="#1b0b52"/><path d="M481.12,104.51a4.54,4.54,0,0,1,.11-.66l-1.21-.2q-.37-.36-.75-.69c.06-.1.11-.21.17-.33.59.31.92.44,1,.34s0-.06,0-.12c.38.06.79.13,1.24.22.26.05.53.11.81.19l-.47-.08a3.29,3.29,0,0,1-.07.36l1,.44.5-.17h0V104a.47.47,0,0,0,0,.26.29.29,0,0,0,0,.09l-1-.26-1.29.44Z" fill="#1b0b52"/><path d="M482.13,102.24a84.78,84.78,0,0,0-9.83-5.48,33.68,33.68,0,0,1,9.76,5.28l.37.29.63.53h0V103l-.77-.33a1.13,1.13,0,0,0,0-.13Z" fill="#1b0b52"/><path d="M483.19,103.07v-.12l.11.09h0a2.63,2.63,0,0,0,.07.42h-.06Z" fill="#1b0b52"/><path d="M480,103.65c.4.36.8.74,1.21,1.14a44.8,44.8,0,0,0-4.24-1.46A30.3,30.3,0,0,1,480,103.65Z" fill="#1b0b52"/><path d="M481.19,104.55h-.07a4.54,4.54,0,0,1,.11-.66c.44.08.85.17,1.25.26Z" fill="#1b0b52"/><path d="M483.44,105a4.94,4.94,0,0,1-.2-.91h0l-.39-.07h-.25c-5.24,4.66-23.48,29.43-27.67,62.72-4.07,32.35,6.76,59.76,8.5,59.5s-5.57-25.24-.5-60C467.68,133.25,480.66,111.21,483.44,105Z" fill="#1b0b52"/><path d="M483.53,99.23c-.06.87-.15,1.66-.26,2.37a5.73,5.73,0,0,1-.17,1.06v.2h0V103l-.77-.33a1.13,1.13,0,0,0,0-.13l-.09-.28a1.18,1.18,0,0,1-.07-.2l.37.29c.17-.15.34-.31.52-.45a29.73,29.73,0,0,1-.46-3.95A14.23,14.23,0,0,0,483.53,99.23Z" fill="#1b0b52"/><path d="M486,103l.5-.15a20,20,0,0,1,7.4,1.38c5.11,2,8.1,5.75,11,10,8.9,13,14.31,26.89,13.49,27.24s-4-11.49-15.49-23.24a66.89,66.89,0,0,0-9.41-8A29.6,29.6,0,0,1,498,120c4.63,15,5.68,29.92,4.8,30s-.44-12.16-7.9-26.79a69.12,69.12,0,0,0-11.69-16.36,39.92,39.92,0,0,0-22.89,8.28c-12.13,9.52-16,24.1-16.82,23s2.11-19.22,13.12-28.53c6.49-5.49,14.23-6.65,20.34-6.27a44.8,44.8,0,0,1,4.24,1.46c-.41-.4-.81-.78-1.21-1.14l1.21.2a4.13,4.13,0,0,1-.11.66h.07l1.29-.44,1,.26a.29.29,0,0,1,0-.09.5.5,0,0,0,0-.26v-.22h0l-.5.17-1-.44a3.29,3.29,0,0,0,.07-.36l.47.08c-.28-.08-.55-.14-.81-.19-.45-.09-.86-.16-1.24-.22v.12a1.87,1.87,0,0,1-1-.34c-.06.12-.11.23-.17.33q.38.33.75.69-1.49-.23-3-.32a38.35,38.35,0,0,0-19.35-.72c-15,3.34-24.86,14.8-25.12,13.49s10.21-16.42,24.16-20a26.79,26.79,0,0,1,15.62.71,84.78,84.78,0,0,1,9.83,5.48l.09.28a1.13,1.13,0,0,1,0,.13l.77.33v-.11l.1.08v.12l.09.4h.06l.54.17.32.1.37.13-.27-.18.36-.19v-.12Z" fill="#1b0b52"/><path d="M533,102c-.22.86-11.79-3.83-28.32-2.6a85.26,85.26,0,0,0-18.23,3.42h-.58c-.24-.43-.51-.88-.8-1.35l-.16-.24c0-.35.11-.72.17-1.09-.21.15-.41.29-.6.44h0a15,15,0,0,0-1-1.34c-.39-.46-.67-.86-1-1.3a29.73,29.73,0,0,0,.46,3.95c-.18.14-.35.3-.52.45l-.37-.29a33.68,33.68,0,0,0-9.76-5.28A79,79,0,0,0,462,92.71c-15.31-4.8-25.55-3.42-25.55-4.2,0-1.27,27-7.56,42.74,6l.12.11a80.73,80.73,0,0,0-9.13-16.15c-9.45-13-18.51-18-18-18.57.76-1,26.18,10,30.77,30.27,0,.22.1.44.14.66A25.31,25.31,0,0,1,485,85.22c3.51-7.49,9.69-11.08,14.31-13.76C503.53,69,508.61,67,509,67.7c.61,1-10.83,6-18,17.07a38.84,38.84,0,0,0-5,11.55,26.75,26.75,0,0,1,8.39-10.9c6.61-5,13.74-5.29,19.08-5.5,4.92-.21,10.33.41,10.37,1.21,0,1.21-12.37.25-23.87,6.71A40.45,40.45,0,0,0,487.86,98.4a28.4,28.4,0,0,1,5-2.19c4.29-1.38,8.13-1.44,13-1C520.32,96.49,533.27,101.1,533,102Z" fill="#1b0b52"/><path d="M486,103l-1.31.41v.12l-.36.19-.19-.13-.76-.52h0l-.18-.12-.1-.06h0l-.7-.46-.23-.16a84.78,84.78,0,0,0-9.83-5.48,33.68,33.68,0,0,1,9.76,5.28l.37.29c.17-.15.34-.31.52-.45a29.73,29.73,0,0,1-.46-3.95,13.75,13.75,0,0,1,1,1.3c.28.43.67.91,1,1.34h0c.15.22.3.44.43.65l.16.24c.29.47.56.92.8,1.35C485.93,102.89,486,102.94,486,103Z" fill="#1b0b52"/><path d="M483.4,103.8V104h0a.31.31,0,0,0,0-.2Z" fill="#1b0b52"/><path d="M485.11,100.16c-.06.37-.12.74-.17,1.09a2,2,0,0,0,0,.24q-.11.72-.18,1.41l-.06.49v.12l-.36.19h-.1l-.32-.1-.54-.17h-.06l-.09-.4v-.12h0l-.06-.27c0-.24-.1-.51-.15-.78a29.73,29.73,0,0,1-.46-3.95,13.75,13.75,0,0,1,1,1.3c.28.43.67.91,1,1.34h0Z" fill="#1b0b52"/><path d="M484.94,101.25l.16.24h-.71l-.1-.15a3.51,3.51,0,0,1,.18-.73v-.06h0c.19-.15.39-.29.6-.44A9.2,9.2,0,0,1,484.94,101.25Z" fill="#1b0b52"/><path d="M483.43,104a.47.47,0,0,0,0,.26l-.61-.3.5-.17h0Z" fill="#1b0b52"/><path d="M486.48,102.83l-.5.15-1.31.41v.12l-.36.19.27.18-.37-.13-.32-.1-.54-.17h-.06l-.09-.4h.16c.42-.06.89-.12,1.38-.15s.76-.05,1.17-.06Z" fill="#1b0b52"/><path d="M483.5,104.37l-1-.26-1.29.44h-.07a4.54,4.54,0,0,1,.11-.66l-1.21-.2q-.37-.36-.75-.69c.06-.1.11-.21.17-.33.59.31.92.44,1,.34s0-.06,0-.12c.38.06.79.13,1.24.22.26.05.53.11.81.19l-.47-.08a3.29,3.29,0,0,1-.07.36l1,.44.5-.17h0v.22a.47.47,0,0,0,0,.26Z" fill="#1b0b52"/><path d="M494,246.26V271.5a1.91,1.91,0,0,1-1.9,1.9H426.23a1.67,1.67,0,0,1-1.67-1.67h0V246.26a10.56,10.56,0,0,1,9.63-10.49V213.21A11.85,11.85,0,0,1,446,201.4h26.61a11.85,11.85,0,0,1,11.81,11.81v22.56A10.57,10.57,0,0,1,494,246.26Z" fill="#55257f"/><path d="M488,246.26V271.5a1.91,1.91,0,0,1-1.9,1.9H420.23a1.67,1.67,0,0,1-1.67-1.67h0V246.26a10.56,10.56,0,0,1,9.63-10.49V213.21A11.85,11.85,0,0,1,440,201.4h26.61a11.85,11.85,0,0,1,11.81,11.81v22.56A10.57,10.57,0,0,1,488,246.26Z" fill="#1b0b52"/></g><g id="front_floor" data-name="front floor"><g id="floor-2"><polygon points="2131.62 1175.06 -634.47 1175.02 -303.75 592.82 1803.54 593.18 2131.62 1175.06" fill="#0d0627"/><polygon points="89.08 732.56 -28.95 732.55 -14.53 695.7 101.32 695.71 89.08 732.56" fill="#1b0b52"/><polygon points="196.67 770.83 76.39 770.82 89.08 732.56 207.12 732.57 196.67 770.83" fill="#1b0b52"/><polygon points="308.43 810.59 185.81 810.58 196.67 770.83 316.93 770.85 308.43 810.59" fill="#1b0b52"/><polygon points="424.63 851.93 299.59 851.91 308.43 810.59 431.04 810.61 424.63 851.93" fill="#1b0b52"/><polygon points="545.53 894.93 417.96 894.91 424.63 851.93 549.66 851.94 545.53 894.93" fill="#1b0b52"/><polygon points="671.42 939.71 541.22 939.71 545.53 894.93 673.09 894.94 671.42 939.71" fill="#1b0b52"/><polygon points="802.63 986.38 669.68 986.38 671.42 939.71 801.62 939.73 802.63 986.38" fill="#1b0b52"/><polygon points="939.5 1035.09 803.69 1035.07 802.63 986.38 935.57 986.4 939.5 1035.09" fill="#1b0b52"/><polygon points="63.19 810.57 -59.45 810.55 -43.91 770.8 76.39 770.82 63.19 810.57" fill="#1b0b52"/><polygon points="174.53 851.9 49.46 851.88 63.19 810.57 185.81 810.58 174.53 851.9" fill="#1b0b52"/><polygon points="290.37 894.91 162.78 894.9 174.53 851.9 299.59 851.91 290.37 894.91" fill="#1b0b52"/><polygon points="411 939.7 280.79 939.68 290.37 894.91 417.96 894.91 411 939.7" fill="#1b0b52"/><polygon points="536.73 986.37 403.76 986.37 411 939.7 541.22 939.71 536.73 986.37" fill="#1b0b52"/><polygon points="667.86 1035.06 532.04 1035.06 536.73 986.37 669.68 986.38 667.86 1035.06" fill="#1b0b52"/><polygon points="35.18 894.89 -92.43 894.87 -75.61 851.87 49.46 851.88 35.18 894.89" fill="#1b0b52"/><polygon points="150.55 939.67 20.31 939.67 35.18 894.89 162.78 894.9 150.55 939.67" fill="#1b0b52"/><polygon points="270.79 986.36 137.8 986.34 150.55 939.67 280.79 939.68 270.79 986.36" fill="#1b0b52"/><polygon points="396.2 1035.04 260.36 1035.04 270.79 986.36 403.76 986.37 396.2 1035.04" fill="#1b0b52"/><polygon points="4.81 986.34 -128.2 986.33 -109.94 939.66 20.31 939.67 4.81 986.34" fill="#1b0b52"/><polygon points="124.51 1035.03 -11.37 1035.03 4.81 986.34 137.8 986.34 124.51 1035.03" fill="#1b0b52"/><polygon points="12.75 625.93 -99 625.91 -84.12 592.86 25.68 592.87 12.75 625.93" fill="#1b0b52"/><polygon points="113.12 660.2 -0.65 660.18 12.75 625.93 124.5 625.96 113.12 660.2" fill="#1b0b52"/><polygon points="217.17 695.74 101.32 695.71 113.12 660.2 226.87 660.23 217.17 695.74" fill="#1b0b52"/><polygon points="325.14 732.59 207.12 732.57 217.17 695.74 333.03 695.75 325.14 732.59" fill="#1b0b52"/><polygon points="437.2 770.86 316.93 770.85 325.14 732.59 443.14 732.62 437.2 770.86" fill="#1b0b52"/><polygon points="553.64 810.62 431.04 810.61 437.2 770.86 557.47 770.87 553.64 810.62" fill="#1b0b52"/><polygon points="674.69 851.95 549.66 851.94 553.64 810.62 676.23 810.63 674.69 851.95" fill="#1b0b52"/><polygon points="800.65 894.96 673.09 894.94 674.69 851.95 799.71 851.97 800.65 894.96" fill="#1b0b52"/><polygon points="931.8 939.74 801.62 939.73 800.65 894.96 928.2 894.97 931.8 939.74" fill="#1b0b52"/><polygon points="1068.5 986.41 935.57 986.4 931.8 939.74 1061.99 939.75 1068.5 986.41" fill="#1b0b52"/><polygon points="1211.07 1035.1 1075.29 1035.09 1068.5 986.41 1201.41 986.41 1211.07 1035.1" fill="#1b0b52"/><polygon points="236.24 625.97 124.5 625.96 135.47 592.89 245.26 592.91 236.24 625.97" fill="#1b0b52"/><polygon points="340.63 660.24 226.87 660.23 236.24 625.97 347.97 625.98 340.63 660.24" fill="#1b0b52"/><polygon points="448.87 695.77 333.03 695.75 340.63 660.24 454.37 660.25 448.87 695.77" fill="#1b0b52"/><polygon points="561.15 732.63 443.14 732.62 448.87 695.77 564.7 695.78 561.15 732.63" fill="#1b0b52"/><polygon points="677.72 770.89 557.47 770.87 561.15 732.63 679.15 732.64 677.72 770.89" fill="#1b0b52"/><polygon points="798.82 810.65 676.23 810.63 677.72 770.89 797.96 770.9 798.82 810.65" fill="#1b0b52"/><polygon points="924.73 851.98 799.71 851.97 798.82 810.65 921.4 810.66 924.73 851.98" fill="#1b0b52"/><polygon points="1055.73 894.97 928.2 894.97 924.73 851.98 1049.73 851.98 1055.73 894.97" fill="#1b0b52"/><polygon points="1192.14 939.75 1061.99 939.75 1055.73 894.97 1183.27 894.98 1192.14 939.75" fill="#1b0b52"/><polygon points="1334.32 986.42 1201.41 986.41 1192.14 939.75 1322.32 939.77 1334.32 986.42" fill="#1b0b52"/><polygon points="1482.62 1035.11 1346.86 1035.1 1334.32 986.42 1467.22 986.44 1482.62 1035.11" fill="#1b0b52"/><polygon points="459.69 626 347.97 625.98 355.05 592.93 464.82 592.96 459.69 626" fill="#1b0b52"/><polygon points="568.11 660.27 454.37 660.25 459.69 626 571.4 626.03 568.11 660.27" fill="#1b0b52"/><polygon points="680.51 695.79 564.7 695.78 568.11 660.27 681.84 660.3 680.51 695.79" fill="#1b0b52"/><polygon points="797.13 732.66 679.15 732.64 680.51 695.79 796.34 695.82 797.13 732.66" fill="#1b0b52"/><polygon points="918.19 770.91 797.96 770.9 797.13 732.66 915.11 732.67 918.19 770.91" fill="#1b0b52"/><polygon points="1043.97 810.67 921.4 810.66 918.19 770.91 1038.42 770.94 1043.97 810.67" fill="#1b0b52"/><polygon points="1174.73 852 1049.73 851.98 1043.97 810.67 1166.52 810.69 1174.73 852" fill="#1b0b52"/><polygon points="1310.79 895 1183.27 894.98 1174.73 852 1299.71 852.01 1310.79 895" fill="#1b0b52"/><polygon points="1452.46 939.78 1322.32 939.77 1310.79 895 1438.3 895.01 1452.46 939.78" fill="#1b0b52"/><polygon points="683.11 626.04 571.4 626.03 574.59 592.97 684.35 592.98 683.11 626.04" fill="#1b0b52"/><polygon points="795.57 660.31 681.84 660.3 683.11 626.04 794.82 626.07 795.57 660.31" fill="#1b0b52"/><polygon points="912.13 695.84 796.34 695.82 795.57 660.31 909.28 660.32 912.13 695.84" fill="#1b0b52"/><polygon points="1033.09 732.68 915.11 732.67 912.13 695.84 1027.95 695.85 1033.09 732.68" fill="#1b0b52"/><polygon points="1158.64 770.96 1038.42 770.94 1033.09 732.68 1151.05 732.7 1158.64 770.96" fill="#1b0b52"/><polygon points="1289.08 810.7 1166.52 810.69 1158.64 770.96 1278.86 770.97 1289.08 810.7" fill="#1b0b52"/><polygon points="1424.7 852.02 1299.71 852.01 1289.08 810.7 1411.63 810.72 1424.7 852.02" fill="#1b0b52"/><polygon points="1565.8 895.02 1438.3 895.01 1424.7 852.02 1549.66 852.04 1565.8 895.02" fill="#1b0b52"/><polygon points="906.52 626.08 794.82 626.07 794.1 593.01 903.85 593.02 906.52 626.08" fill="#1b0b52"/><polygon points="1022.98 660.34 909.28 660.32 906.52 626.08 1018.2 626.1 1022.98 660.34" fill="#1b0b52"/><polygon points="1143.73 695.86 1027.95 695.85 1022.98 660.34 1136.68 660.37 1143.73 695.86" fill="#1b0b52"/><polygon points="1269 732.73 1151.05 732.7 1143.73 695.86 1259.52 695.89 1269 732.73" fill="#1b0b52"/><polygon points="1399.06 770.98 1278.86 770.97 1269 732.73 1386.96 732.74 1399.06 770.98" fill="#1b0b52"/><polygon points="1534.16 810.73 1411.63 810.72 1399.06 770.98 1519.26 771 1534.16 810.73" fill="#1b0b52"/><polygon points="1129.9 626.11 1018.2 626.1 1013.59 593.04 1123.33 593.07 1129.9 626.11" fill="#1b0b52"/><polygon points="1250.38 660.38 1136.68 660.37 1129.9 626.11 1241.57 626.14 1250.38 660.38" fill="#1b0b52"/><polygon points="1375.31 695.9 1259.52 695.89 1250.38 660.38 1364.07 660.39 1375.31 695.9" fill="#1b0b52"/><polygon points="1504.9 732.75 1386.96 732.74 1375.31 695.9 1491.08 695.92 1504.9 732.75" fill="#1b0b52"/><polygon points="1353.23 626.15 1241.57 626.14 1233.06 593.08 1342.77 593.11 1353.23 626.15" fill="#1b0b52"/><polygon points="1477.74 660.42 1364.07 660.39 1353.23 626.15 1464.9 626.16 1477.74 660.42" fill="#1b0b52"/></g></g><g id="stairs"><path d="M1447.83,812.12l-158.76-1.42c-9.6-31.4-11.87-44-21.85-84.89h180.61Z" fill="#0c052d"/><polygon points="1447.34 628.24 1447.34 727.34 1434.57 727.34 1434.57 641.6 1416.91 641.6 1416.91 727.39 1404.14 727.39 1404.14 641.6 1384.49 641.6 1384.49 727.39 1371.71 727.39 1371.71 641.6 1350.1 641.6 1350.1 727.39 1337.32 727.39 1337.32 641.6 1315.71 641.6 1315.71 726.36 1302.93 726.36 1302.93 641.6 1282.3 641.6 1282.3 725.3 1269.53 725.3 1269.53 641.6 1269.03 641.6 1269.03 628.24 1447.34 628.24" fill="#373360"/><path d="M1319.81,810.49l-29.87-.66c-7.47-19.73-12.11-38.22-19.57-58l21.25.24Z" fill="#3600d4"/><path d="M1352.64,810.73l-28,0L1308,774.39l23.09.34Z" fill="#3600d4"/><path d="M1380,810.12h-21.09c-5.15-7.72-9.6-15.43-14.73-23.14l18.68.63Z" fill="#3600d4"/><path d="M1407.19,810.12l-19.14.11c-3.68-3.88-5.51-8.4-9.19-12.29h17.6C1401.08,802.27,1402.55,805.8,1407.19,810.12Z" fill="#3600d4"/></g></svg>