<svg xmlns="http://www.w3.org/2000/svg" viewBox="0 0 618.21 304.5"><title>queue-single-3</title><g id="que"><path id="_Path_" data-name="&lt;Path&gt;" d="M90.2,112.55a24.94,24.94,0,0,1,5.53,6.27,10.56,10.56,0,0,0,4.06,4.65c1.84,1,11.06,12.55,13.63,14.17s2.77.21,2.77.21c.37,4.24.92,5.06.92,5.06l1.85,9.3c-2,2.23-5,34.39-5.7,40.26s-4.25,15-5,21.44-7,27.71-10.3,35-4.24,32.56-4.24,32.56a4.54,4.54,0,0,0,3.86,3.63c3.13,10.33,7,9.12,7,9.12,3.13-.61,3.68-7.28,3.68-7.28,1.84-.42,5.16,1.84,8.67,1s2.94-8.69,4.79-18.42,3.31-20.21,5.33-22.86,6.65-31.54,7.2-37.41,7.56-39.66,8.28-45.3,4.07-3.86,4.42-1.83S151.4,186,150.29,189s.37,18.79.37,23,2.39,23.88,1.65,29.75,4.42,38.63,4.42,40.85a3.43,3.43,0,0,0,2.22,3c1.3,4.65,7.92,5.46,7.92,5.46,5-1,3.31-7.68,3.31-7.68l8.1-1.82c2,0,.93-2.42.93-2.42a41.85,41.85,0,0,1-.75-14.77c.75-6.67,1.11-12.56.19-16s-2.76-19.83-2.76-24.47-2.73-21.89-2.73-21.89c-1.8-6.06-1.68-18-1.68-25.53s-2.92-32.82-2.92-32.82a6.71,6.71,0,0,0,1-4.45,36.38,36.38,0,0,1-.12-4.68c4.28-1.23,4.28-3.46,4.28-3.46s1.46-3.2,3.37-7,6.06-13.94,7.52-21,.23-8-.78-9.88-9.44-11.71-10.12-12.57-5.18-7.78-7.08-9.51-2.47-4.68-4.61-8.62-4.27-5.07-5.73-5.31a31.61,31.61,0,0,1-4.71-1.79l.26-.53,1.05.07-1-.19.41-1.09.38-.09-.36-.07a16.88,16.88,0,0,0,.63-4.23l.76-1.61c-.12,2.17-.42,4.18-.42,4.18a13,13,0,0,0,.43-4.19l.89-1.67.08-.19a44.81,44.81,0,0,1-.76,4.77,16.65,16.65,0,0,0,1.9-7.32,12.26,12.26,0,0,0,.53-2.42,29.62,29.62,0,0,1-.24,6,13.24,13.24,0,0,0,.27-6.22c.14-1.56,0-3.06,0-4.82V35a18.14,18.14,0,0,1,.9,3.78,12,12,0,0,0-.94-4.6l-.12-1.53a8.87,8.87,0,0,0-.15-3,14.75,14.75,0,0,1,.07,2.54,9,9,0,0,0-.77-2.3,15.66,15.66,0,0,1-.9-2.71l-.07-1.11a9.27,9.27,0,0,1,1.67,3.58A9,9,0,0,0,154.38,25a4,4,0,0,0-1-3.11,7,7,0,0,0-3.55-4.31c1.33,0,1.4-.62,1.4-.62l-1.51.54-.24-.54a10.61,10.61,0,0,0-3.93-4.25,4.08,4.08,0,0,1,1.75.56,3.77,3.77,0,0,0-2.15-.79l-1.58-.57,0-.58-.28.53-1-.11a1.68,1.68,0,0,1-.51-1.43c-.27.85.07,1.24.37,1.41h-.46c-.28-.52-1.23-1.77-3.59-.19H138a4.21,4.21,0,0,0-2.22-.67,6.51,6.51,0,0,1,1.9.67,9.34,9.34,0,0,0-3.94,1.21c-5.53.67-7,4.21-7,4.21,1.55-2.87,4.72-3.85,6.91-4.18a19,19,0,0,0-4.9,4.08,16.27,16.27,0,0,0-4.52,4,16.37,16.37,0,0,1,4.31-3.71,11.81,11.81,0,0,0-2,3.05c-.21.55-.48,1.3-.79,2.16a13.82,13.82,0,0,0-1.64,2.39c-2.92,2.18-2.92,5.61-2.73,7.19-2.28,3.77-4.51,8.12-4.61,10.91a9.83,9.83,0,0,1,2-3.89,20.92,20.92,0,0,0-.95,4.46A40.87,40.87,0,0,1,119,38.58l.15-.16a7.39,7.39,0,0,0-.18,3.34,25.47,25.47,0,0,1,1.94-4.71l.56-.3c-.21.87-.42,1.75-.59,2.58a16.94,16.94,0,0,1-1.28,2.59c.31-.43.7-1,1.1-1.7l-.19,1.11a14.73,14.73,0,0,0-2.4,4.76c-1.71.86-2.77,1.3-1.72,1.34l1.42-.17a20.39,20.39,0,0,0-.44,4.26,3.3,3.3,0,0,1-2.28-2.07s.18,2.26,1.48,2.92l-1.24.75a4.84,4.84,0,0,1-2.07-1.45,5.79,5.79,0,0,0,1.64,1.73c-.68.43-1.38.93-2.11,1.47v0a4.85,4.85,0,0,1-2.86-3,8.33,8.33,0,0,0,1.94,3.39l-.91.43a6.06,6.06,0,0,0-3.57.46,6.76,6.76,0,0,1,2.78,0A8.88,8.88,0,0,0,105.3,63a13.23,13.23,0,0,1,5.77-6.72h0c-2.75,2.52-5.15,5.93-5.1,10.1-1.23,2.75-2.64,6-3.85,7.33-1.67,1.8-2,5.05-3.87,7.69S88.9,101,88.17,103.85s.92,8.09,2,8.7Zm63.37-90.09a4.1,4.1,0,0,1,.81,2.49l-.27-.33-.2-.57-.34-1.59ZM156,105.87a75.1,75.1,0,0,0,.91-12.54c0-2,3.69-5.46,3.5-7.28,0,0,6.08,5.88,7.56,6.68s5.17,4.65,5.53,6.66,0,2.43-.93,5.25-3.31,4.86-3.87,9.11.55,2.83-1.29,5.46-3.7,5.86-3.7,7.09-4.24-11.73-6.25-13.37-2.42-1.81-1.47-7.07Zm-4.44-52h.06l0,.11,0-.11Zm0-.46.08-1.2.87-1.76a13.12,13.12,0,0,1-.73,3l-.23-.09Zm-.07-33.09-1.25-1.8a9.62,9.62,0,0,1,2.11,2.81l-.1,0-.77-1Zm-1.92,34.29,1.08-1,.44.17.27.61-.49.79c-.77-.34-1.3-.6-1.3-.6Zm-11-43.08c.89-.29,2.14-.53,2.76.21a4.9,4.9,0,0,0-1,.19,6.38,6.38,0,0,0-1.78-.4ZM125.13,24l-.77.43c.33-.57.77-1.23,1.25-1.92L125.14,24Zm-3.71,7.7c-.12-3.46,1.13-5.56,2.51-6.77a8.13,8.13,0,0,0-.74,2.19,12.4,12.4,0,0,1,1.06-2.46l.83-.58c-.43,1.26-.86,2.62-1.26,3.9-.75,1.1-1.58,2.38-2.4,3.73Zm-9.53,24.71,1,.23-2.81,2.69a21.17,21.17,0,0,0-2.76,4.25l-.85,1.76a23.86,23.86,0,0,1,5.4-8.93Zm1.43-.16-1-.31.16-.17.82.47Zm2.48-2.41-.1.11-1.69.47,1.14-.91.65.33Zm-1,1-.49.45-.71-.13,1.19-.32ZM117,52.52l-.4.56-.26.28-.69-.15,1.12-.76.23.07ZM118.61,47l.71-.33a40.82,40.82,0,0,1-1.56,4.24,27.71,27.71,0,0,1,.86-3.9Zm1.59-3.67-.47,1.91-.6.32a16.88,16.88,0,0,1,1.08-2.23Zm-18,62.35c1.29-2.23,7.56-12.34,10.5-18.61,0,0,11.61,23.88,7.93,40.26,0,0-4.61-5.26-5.91-8.1s-4.23-2.64-6.07-4.24a40.25,40.25,0,0,1-4.62-5.67s-3.13-1.42-1.84-3.63Zm4.6-49.15.59-.38-.59.38Zm27.93-45.59a3.69,3.69,0,0,1,1.06-.13Zm12.57,2.27.39.39-.39-.39Zm.47.48-.08-.1.08.1ZM122.5,23.52a15.42,15.42,0,0,1,1.72-2.74A11.54,11.54,0,0,0,122.5,23.52Zm-2.9,18.4-.64.81.64-.81Z" fill="#22187f"/></g></svg>