<svg xmlns="http://www.w3.org/2000/svg" viewBox="0 0 1030 295"><title>queue-group-2</title><g id="que"><path d="M713.63,2.09a12.6,12.6,0,0,0-5.14,1.59,4,4,0,0,1-1.7.44c-.69,0-1,.14-2.15.89a29.72,29.72,0,0,0-3.27,2.82c-1.69,1.68-2,2.06-2.24,2.92-.67,2.19-.92,8.74-.37,10.13.26.65.38,1.58.68,4.93.13,1.41.42,3.84.56,4.57a4.29,4.29,0,0,0,1.8,2.31,2.15,2.15,0,0,1,1,1.19,8.34,8.34,0,0,0,.89,1.75l.7,1.12-.09,2.54a16.58,16.58,0,0,1-.35,3.13,15,15,0,0,1-1.84,2.33,25.83,25.83,0,0,0-2.45,3.15,6,6,0,0,1-1.52,1.82c-1.09.69-9.68,4.3-14.8,6.21-4.07,1.52-5.16,2.25-6.09,4.11-1.2,2.39-1.76,5-3.15,14.45-.2,1.38-.53,3.59-.72,4.93-1.75,11.82-1.67,10.83-1.54,17.74a142.5,142.5,0,0,0,.84,14.68c.17.89.52,5,1.45,17.25.58,7.7.54,7.56,2.64,11.39,1.87,3.42,3.19,5.53,3.78,6.07a.83.83,0,0,1,.28.79c0,.26-.24,1.56-.44,2.89s-.49,3.11-.63,3.94a24.38,24.38,0,0,0-.51,4.9c.11.29.71.57,1.63.75.66.13.64.08,1.12,2.68,1.89,10.32,3.26,17,4.13,20.1.78,2.74,2.85,11.48,3.22,13.63.1.59.5,5,.89,9.76,1,12,1,13,1.45,20.8.2,3.8.62,11.36.91,16.78s.66,12.3.82,15.31.32,5.75.37,6.09c.21,1.42,2.21,2.49,4.95,2.66a3.82,3.82,0,0,1,1.54.3c.19.22-1.41,3.58-3.17,6.63-.83,1.44-.93,1.72-.93,2.66a4.55,4.55,0,0,0,1.31,3.64l.77.63,4.48-.07c4.24-.07,4.62-.09,7-.63a27.91,27.91,0,0,0,2.89-.75c.44-.24.56-.59.82-2.24s.4-1.78,1.59-2c1.64-.25,2.43-1.6,2.57-4.43.1-2,0-2.35-.58-3.27l-.44-.68.44-.4c.42-.38.44-.54.79-5.32.77-10.42.73-11.3-1.24-20.7L715,233.45a29.55,29.55,0,0,1-.47-3.15c-.13-1.73-.44-5.4-.56-6.63-.23-2.41-.14-18.57.14-25.28.44-10.33.89-24.07,1.14-34.57a41.35,41.35,0,0,1,.26-4.86,29.57,29.57,0,0,1,1.77,6.07c.49,2.23,1.25,6.89,1.47,9.15.51,5.15.87,8.74,1,9.41,0,.35.2,1.84.35,3.31s.33,3,.37,3.31.2,1.81.35,3.24.37,3.23.47,4,.21,2,.26,2.61c.15,2,.47,6,.54,6.75,0,.38.12,1.42.19,2.31s.15,2,.19,2.4c.22,2.5.61,14,.61,17.67,0,2.9-.18,4.55-1.49,13.35a113.71,113.71,0,0,0-.93,18.18c.11,5.74.12,5.9.54,6.72a3.76,3.76,0,0,0,1.38,1.68c.14,0,.06.41-.21,1.21a8.54,8.54,0,0,0-.09,4.83,4.73,4.73,0,0,0,2.47,2.54A6.79,6.79,0,0,1,727,280a7.13,7.13,0,0,0,1.59,1.68,45.37,45.37,0,0,0,8.71-.07,8,8,0,0,0,4.69-1.8c1.51-1.14,1.72-1.49,1.59-2.61-.16-1.33-1.12-3.19-3.15-6-2.43-3.4-2.41-3.72.3-4.46,2.19-.6,3.19-1,3.45-1.54.17-.31.19-2.69.07-10.36-.18-11.66-.19-12.47,0-32.19.15-17.25.29-21.36,1-29,.64-6.59.83-8.8,1.05-12.09.09-1.38.39-3.88.65-5.56a109.25,109.25,0,0,0,.72-15.48l0-3.43.86-.19a8.56,8.56,0,0,1,1.4-.19h.54v-2c0-1.11-.21-4.11-.47-6.68l-.47-4.67,1-1.61c.57-.88,1.43-2.18,1.91-2.89,2.47-3.64,3.74-7.56,5-15.38.93-5.88,1-6.48,1.05-17.58.08-10.67,0-12.07-.68-24-1-16-1.56-22.4-2.52-26.49a3.72,3.72,0,0,0-1.24-2.47c-1-1-1.29-1.14-11-3.85l-3.17-.89a51.59,51.59,0,0,1-9.24-4.08,16.5,16.5,0,0,1-3.85-4.36,7.21,7.21,0,0,1-1.12-3,8.65,8.65,0,0,1-.16-2.15,7.25,7.25,0,0,1,1.05-1.8c1.62-2.16,1.76-2.61,2.1-7l.21-2.8-.51-.75-.54-.77,0-3.59c-.1-8.09-.1-8-.54-8.73a46.44,46.44,0,0,0-5.72-5.6,21.29,21.29,0,0,0-4.55-.93,19,19,0,0,1-2-.37,4.78,4.78,0,0,0-1.28-.12Z" fill="#150060"/><path d="M588.68-2.36l-1.87.72c-1,.38-2.09.73-2.38.79a11.24,11.24,0,0,0-3.81,3c-1.9,2.33-2.24,3.48-2.48,8.79s-.26,5.65-.66,6.26-.27,3.53.46,6.11a7.54,7.54,0,0,0,1.51,3.17c.53.68,1.11,1.23,1.3,1.23.41,0,1,.79,1.35,1.81a5.17,5.17,0,0,1,0,2.66,7.33,7.33,0,0,1-.54,2.25c-.31.35-.8.68-6,3.94-3.66,2.31-5.37,3.29-11.38,6.44-7.86,4.13-10.6,5.74-11,6.47-.22.41-.58,2.69-1.18,7.57-.21,1.73-.6,4.82-.87,6.88-.47,3.61-.77,7.35-1,12.47-.06,1.35-.21,3.68-.31,5.19-.45,6.65-.63,17.26-.51,28.48.07,6.37.13,16.28.13,22v10.4l.69.33a6.5,6.5,0,0,0,1.48.46l.82.13-.13,1.79a61,61,0,0,0,.05,9.1,6.63,6.63,0,0,0,3,5,15.76,15.76,0,0,0,2.3,1.51l.64.28-.1,1.23c-.21,2.54-.5,9.45-.61,14.37-.19,8.53-.41,12.33-1.25,20.63-1.05,10.34-1,9.86-.89,17.28.07,3.89.21,8.74.33,10.79.29,5.08.21,20.51-.13,23.67a21.31,21.31,0,0,0-.18,2.56,4.32,4.32,0,0,0,1.15.36,3.16,3.16,0,0,1,1.18.43c.22.36-1.09,2.49-2.68,4.37-.9,1.07-2,2.45-2.51,3.07l-2,2.48c-1.44,1.81-1.79,2.45-1.92,3.68a3.52,3.52,0,0,0,.36,2.07c.52,1.21,1.08,1.55,2.89,1.71.62.05,2,.21,3.09.36a24.58,24.58,0,0,0,6.7.31,13.45,13.45,0,0,0,5-3.27c1.2-1.11,1.27-1.14,2.28-1.1l1,0,1.43-1.61c.79-.88,1.8-1.95,2.25-2.38a7.26,7.26,0,0,0,1-1.23,12.57,12.57,0,0,0,.2-3.09c0-2.36.06-2.66.38-2.89s.37-.71.49-5.75c.07-3,.14-7.9.15-10.81s.14-6.4.28-7.75.39-4,.56-5.85c.26-2.82.82-6.45,1.89-12.42.18-1,.41-1.95,3.32-12.65,1.17-4.32,2.27-8.35,2.43-8.95s1-3.45,1.76-6.36c1.8-6.44,3.64-13.57,3.89-15,.1-.59.25-1.65.36-2.35.19-1.25.35-2.05,1.2-6.67a15.07,15.07,0,0,0,.31-3c-.05-.41,0-.68.08-.61a.56.56,0,0,1,.18.43c0,.18.41,1.93.89,3.89s.92,4,1,4.6.32,3,.59,5.39c.37,3.33.53,6.25.69,12.63.12,4.57.16,8.39.1,8.49-.25.41-.09,26.61.2,33.38.22,5,.27,8.82.18,13.65-.13,6.42-.14,6.75.26,8.05a13.35,13.35,0,0,1,.49,5.37c-.21,1.46-.07,1.67,1.12,1.87.44.07.79.19.79.26a3,3,0,0,1-.36.72,8.65,8.65,0,0,0-1,4.86c.06,1.84.09,2,.64,2.53.77.81,2.2,1.44,5.19,2.3a11.46,11.46,0,0,1,5.44,2.66,31.07,31.07,0,0,0,3.63,2.28,11.07,11.07,0,0,0,4.5,1.2c1.55.21,3,.44,3.32.49h0a30.17,30.17,0,0,0,5.5-.26,13.28,13.28,0,0,0,5.11-2c.58-.54.62-.65.54-1.66a3.45,3.45,0,0,0-.49-1.61,26.29,26.29,0,0,0-5-4c-5.13-3.5-9-6.89-10-8.79-.32-.61-.34-.6.69-.89l.95-.28.13-5.09c.19-7.17.51-12.76.84-15.39.45-3.53.89-7.2,1.1-9.13.1-1,.33-2.48.49-3.35s.42-2.4.59-3.43.48-2.85.69-4c.43-2.37.79-4.82,1.25-8.44.17-1.3.43-3.39.59-4.65.49-3.76.83-22.06.54-28.86a52.74,52.74,0,0,1-.08-5.7c.08-.08,1.21-.81,2.51-1.64a16.79,16.79,0,0,0,5.39-4.83c1.64-2,1.68-2.18,2.35-5.78a21.84,21.84,0,0,1,.77-3,11.14,11.14,0,0,0,.54-3.22,14.91,14.91,0,0,1,.28-2.53c.12-.24.41-.29,1.3-.23a5.07,5.07,0,0,0,1.71-.15l.56-.2-.13-7.31c-.07-4-.2-10.41-.31-14.19s-.35-12-.51-18.35C637.59,90.31,637,78.7,636.5,75c-.11-.76-.32-2.32-.49-3.45s-.36-2.41-.41-2.84-.17-1.39-.28-2.15c-.39-2.68-.77-5.53-.89-6.59a95.7,95.7,0,0,0-3.17-11c-.31-.52-1-.88-4.19-2.35-2.1-1-7.15-3-11.2-4.5-6.74-2.52-7.48-2.85-8.74-3.81-2.37-1.8-3.79-3.17-4-3.94a16.61,16.61,0,0,1,.26-5.37c.33-2.07.52-2.56,1-2.56,1.06,0,1.75-2.46,2-6.82.13-2.66.14-2.82-.28-3.53s-.44-.77-.18-3.4c.14-1.46.26-3.45.26-4.42,0-2.5-.51-3.45-3.22-6.19-3.28-3.31-5.18-4-11-4.24l-3.25-.13Z" fill="#150060"/><path d="M457,6.57c-1.28,0-2.06.4-4.91,1.76-2.56,1.23-2.92,1.52-4.5,3.89s-1.91,4-2.2,9.89c-.13,2.61-.16,2.81-.59,3.14s-.46.52-.46,2c0,2.3.69,5.09,1.48,6A2.79,2.79,0,0,0,447,34c.63.13,1,.79,1,1.74a21.49,21.49,0,0,0,1.81,4.86,4.47,4.47,0,0,1,.59,3c0,1.69-.06,1.76-.69,2.4-.88.91-10,5.46-18,9a37.21,37.21,0,0,0-7.18,3.89c-.68.59-.71.64-1.28,3.94-1.27,7.34-1.56,9.88-1.56,13.68,0,9.09-.43,20.73-.87,23.82,0,.32-.23,1.88-.41,3.45s-.39,3.15-.46,3.53c-.16.84-.12,9.16.05,11.66.07,1,.2,3.57.31,5.73.17,3.46.25,4.45.51,6.57,0,.27.21,1.83.38,3.45s.36,3.2.41,3.53.22,2.17.38,4.12.35,3.91.41,4.37l.1.84h1.69l-.1,1.74a7.92,7.92,0,0,0,.54,3.73,13.67,13.67,0,0,0,2.17,4.29c.85,1.27,1.72,2.5,1.94,2.74a7.64,7.64,0,0,0,4.12,1.56,16.53,16.53,0,0,1,2,.38,20.17,20.17,0,0,0,2.84.26l2.68.13,0,3.73,0,3.73,2.61,9.59c1.42,5.28,2.61,9.64,2.66,9.71s1.76,6.34,2.4,9a29.05,29.05,0,0,1,.66,4.91c.1,1.62.23,3.2.28,3.53s.26,2.49.49,4.81.46,4.48.51,4.81a82.31,82.31,0,0,1,.92,14.06c-.06,6.27.16,12.08.51,12.73a14.14,14.14,0,0,0,1.28,1.58c1.22,1.37,1.47,2.11,2.07,6.08A15.68,15.68,0,0,1,455,257c-.41,2.32-.5,2.54-1.81,3.94-.62.66-1.66,1.87-2.3,2.68L449.71,265v1.51a3.55,3.55,0,0,0,.64,2.51,4.51,4.51,0,0,1,.64,1.38,1.55,1.55,0,0,0,.33.79c.28.35.69.46,2.35.64,1.16.13,2,.3,1.89.41s.14.11.51,0a1.1,1.1,0,0,1,.95.13c.28.23.31.24.2-.05s.13-.68.33-.36,1.22.22,5.32.2l3.14,0c1.51,0,3.29,0,4,.1,1.09.1,1.22.08,1.23-.23s.07-.26.15-.13a1.59,1.59,0,0,0,.79.33c.61.12.62.11.41-.31a4.84,4.84,0,0,0-.59-.84c-.29-.32-.35-.78-.38-2.45a16.52,16.52,0,0,0-.2-2.63,1.12,1.12,0,0,1,.1-1,9.25,9.25,0,0,0,.33-3l.1-2.61,1.18-1.18,1.2-1.15.41-2.22a28,28,0,0,0,.74-7.31c-.12-1.45-1.91-8.87-3.55-14.75a32,32,0,0,1-1.56-8.38c-.17-2-.36-4-.41-4.4s-.22-3.24-.38-6.26a59.14,59.14,0,0,1,0-9.71c.44-6.12.62-31,.28-37.76-.28-5.56-.23-5.93.69-5.06s1.65,2.31,5.06,10.12c2.94,6.74,4.09,9.55,7.26,17.66.51,1.31.53.91-.08,10.33-.59,9.26-.13,31.3.92,43.81a34.3,34.3,0,0,0,2.38,8.92l1.51,4H489l.13,2.38c.07,1.31.13,2.93.13,3.6a2.05,2.05,0,0,0,.84,2.07c.57.58.75.86.56.92a2.24,2.24,0,0,0-.64.46c-.33.33-.38.72-.38,3.89a27.42,27.42,0,0,0,.13,3.63c.2.2.23.17.13-.41-.05-.3,0-.49.05-.41s.31.06.51-.05a.7.7,0,0,1,.69,0,1,1,0,0,0,.82,0,1,1,0,0,1,.69-.05,3.82,3.82,0,0,0,2.22.05c.16-.13.28-.13.36,0s.3.11.69,0a1.5,1.5,0,0,1,1.2.05c.42.17.65.2.74.05a3.82,3.82,0,0,1,2.43,0c.09.12.21.11.33-.08s.2-.23.2-.08.13.2.51.05a1,1,0,0,1,.64-.08c.06.06,0,.1-.15.1s-.24,0-.18.1.35,0,.64-.1.51-.14.51,0,.05.18.23,0c.33-.33.56-.29.56.1s0,.29.23.1a.89.89,0,0,1,.56-.23c.19,0,.59-.37.89-.79a5.28,5.28,0,0,1,3.4-1.69,3.4,3.4,0,0,0,1.66-.95c.89-.81.89-.87.89-2a6.66,6.66,0,0,0-1.71-4.52c-3.11-2.73-3.6-3.23-4.09-4.24a10.07,10.07,0,0,1-.66-1.76c-.15-.66-.12-.72.49-1s.66-.38,1.15-2.35a17.27,17.27,0,0,0,.51-3.22,9.5,9.5,0,0,1,.77-3.27,17.66,17.66,0,0,0,1-4.12c.31-2.66.18-46.71-.15-49.21-.12-.92-.4-3.39-.61-5.5-.75-7.37-1-9.36-1.28-10.91-.16-.86-.45-2.35-.61-3.32s-.64-3.76-1.07-6.19c-2.38-13.34-2.76-15.78-2.56-16.69a32.22,32.22,0,0,0,.69-8.26c-.08-1.46-.13-3.14-.13-3.73v-1.07l1.1-.05a4.6,4.6,0,0,0,1.1-.13s.85-5.08,1.89-11.22L509,114.85l.08-7.82c.08-7.71.06-7.85-.43-10.4-.27-1.42-.67-3.78-.89-5.24-.65-4.16-1.94-11.69-2.38-14a70.74,70.74,0,0,1-1.43-9.71,16.65,16.65,0,0,0-1.2-6,43.39,43.39,0,0,0-3.43-7.87c-.46-.55-1.07-.75-9.53-3-5-1.34-10.13-2.71-11.48-3-4.29-1-5-1.38-6.62-3.78a4.41,4.41,0,0,1-.74-4.4,18.3,18.3,0,0,0,.49-2.68c.17-1.65.39-2.15,1.81-4.22a4.84,4.84,0,0,0,1.12-3c.31-2.69.25-3.33-.33-4.19s-.52-.77-.49-4.37,0-3.63-.56-5.42c-.92-2.73-1.51-3.8-2.66-4.93-2.51-2.47-6.5-3.88-11.81-4.17-.63,0-1.11-.06-1.53-.05Z" fill="#150060"/><path d="M850.09,2.15l-4.3.11c-4.77.1-6,.32-7.81,1.42a13.1,13.1,0,0,0-5.51,6.38,17.12,17.12,0,0,0-.11,7.23c.18,1.11.61,4.21.95,6.88.55,4.34,1.16,7.33,1.61,7.91a2.65,2.65,0,0,1,.26.74,15.55,15.55,0,0,0,2.22,4.33,5.18,5.18,0,0,1,1.37,3.43c0,1.75-.37,2.56-2,4.51-2.42,3-3.85,4.15-8.31,6.83-4.83,2.9-6.19,3.8-7.31,4.83-1.56,1.44-1.9,2.8-3.51,14.24-1.56,11.09-1.95,20.36-1.66,38.48l.18,12.37.53,1.61a17.67,17.67,0,0,0,5.43,7.86c1.26.92,1.38,1,1.24,1.53-.27,1-.1,9.33.34,16.14l.42,6.7,1.21,5.67c1.38,6.42,3.23,17.22,4.43,25.92.45,3.23,1.25,8.88,1.77,12.55s1.06,7.62,1.21,8.73a114.9,114.9,0,0,1,.79,12.95c-.17,1.85-1.43,12.14-1.85,15-.28,1.92-.92,4.9-2.9,13.34a11.84,11.84,0,0,0-.37,2.14,2.88,2.88,0,0,1-.69,1.24c-.4.5-1.31,1.77-2.06,2.85a17.21,17.21,0,0,1-1.87,2.37,18.39,18.39,0,0,1-2.48,1.24,92,92,0,0,0-10.89,5.54c-.79.69-.81.74-.76,1.87a3.24,3.24,0,0,0,1.93,3.19c2.58.92,3.7,1,8.39.45,6.58-.76,6.94-.9,10.1-3.27a21.09,21.09,0,0,1,2.93-1.85c1-.47,1.14-.5,1.93-.24a17.66,17.66,0,0,0,4.27.29c3.32,0,3.49,0,4.56-.55.61-.3,1.6-.74,2.22-1,1.43-.56,1.84-.91,1.85-1.69,0-.34.31-2.1.69-3.88.69-3.27.75-3.42,1.82-4.06a1.77,1.77,0,0,0,.5-1c.1-.43.3-4.44.42-8.91.21-7.65.42-15.07.82-27.37.09-2.9.4-7.73.69-10.73s.63-6.52.74-7.81.29-3.19.4-4.25.24-3.75.32-6a22.89,22.89,0,0,1,.29-3.85c.23.27,4.44,12.69,7.17,21.15,2.49,7.69,2.72,8.66,3.16,12.66.12,1.11.59,4.16,1,6.78s.93,6.57,1.11,8.81c.77,10,1.14,14.4,1.24,14.56s.22,2.32.37,5c.29,5.06,1,12.61,1.27,12.84a5.93,5.93,0,0,0,1.66.18,5.41,5.41,0,0,1,1.77.24c.18.14.27.89.26,2.45a6.29,6.29,0,0,1-.5,3.3c-1,2.07-2.88,4.47-6.72,8.39s-3.87,4-4.11,5.06a2.43,2.43,0,0,0,.16,2.06,3.39,3.39,0,0,0,.87,1.24,44.48,44.48,0,0,0,6.86,1.42,18,18,0,0,0,5.7-.58,35.63,35.63,0,0,0,6.57-2.22,19.25,19.25,0,0,0,4.27-4.22c1.21-1.53,1.34-1.65,2.11-1.69a2.8,2.8,0,0,0,1.27-.37c.25-.18.94-.64,1.53-1a5.08,5.08,0,0,0,2.4-3.3,26.92,26.92,0,0,0-.11-3.88,18.66,18.66,0,0,0-.84-4.88l-.63-1.93,0-10.63c0-5.85.11-14.79.21-19.86s.21-12.07.21-15.56c0-6.94,0-6.73-1.45-11.68-.33-1.11-.93-4-1.32-6.38s-1-6-1.4-8.1c-.59-3.21-2.71-15.58-3.67-21.36a23.73,23.73,0,0,0-.69-3,22.6,22.6,0,0,1-.79-9.76c.35-3,.47-3.31,1.37-3.67l.76-.29-.47-3.82c-.26-2.11-.56-6-.66-8.7a94,94,0,0,0-1.32-12.66c-.63-4.29-1.17-8.72-1.24-9.84l-.13-2,.66-.82c1.42-1.76,8.43-12.16,9.18-13.61a21.93,21.93,0,0,0,.74-3.85c.23-1.77.47-3.36.53-3.56a24.78,24.78,0,0,0-.11-5.46c-.12-.81-.24-2.72-.29-4.22-.07-2.42-1-11.1-2.16-20.75-.46-3.82-2.46-14.27-2.93-15.3a12,12,0,0,0-1.13-1.77c-.69-.9-1.14-1.19-3.16-2.19-2.5-1.22-3.59-1.6-12.16-4.22L865.62,42l-1.32-1.61c-.73-.88-2.31-2.64-3.51-3.9l-2.16-2.29V30l1-2.11a16,16,0,0,0,2-7.49c.06-1.93,0-2.41-.24-2.66s-.36-1.06-.5-3.22c-.27-4.2-.82-5.52-3.45-8.33-1.2-1.28-1.63-1.54-5.64-3.3l-1.69-.74Z" fill="#150060"/><path d="M916.1,2.29a14.27,14.27,0,0,0-2.26.25,9.81,9.81,0,0,0-6.25,3c-1.94,1.74-2.62,2.57-2.86,3.55a6.67,6.67,0,0,1-1,1.64c-2,2.5-2.43,4.41-2.18,10.45.19,4.6.6,6.54,2,9.55a11.55,11.55,0,0,1,1.28,3.71,5.48,5.48,0,0,0,2,3.38l1,1,.19,2.29.16,2.26-1.5,1.47c-1.66,1.61-2.94,2.52-8,5.59-1.88,1.13-4.21,2.56-5.16,3.19A49.46,49.46,0,0,0,886.31,60c-1.14,1.57-1.32,2.78-2.1,13-.07.86-.26,2.94-.44,4.61s-.49,5.31-.71,8.08-.59,6.86-.82,9.11c-1.76,17-1.8,18.12-1.75,41.09,0,19.92.05,20.23.46,20.57s.44.59.44,4.28c0,4.57-.1,4.29,2.26,6.82,1.37,1.46,1.61,1.63,2.84,2a8.86,8.86,0,0,0,2.81.27c1.54-.09,2-.37,3.85-2.21a2.08,2.08,0,0,1,1.58-.63,1.7,1.7,0,0,0,1.5-.63l.87-1.06a1.42,1.42,0,0,1,.93-.46c.42,0,.57.15.74.79.46,1.71,1.48,6.24,2.43,10.72a48.46,48.46,0,0,0,1.36,5.46,119.79,119.79,0,0,1,3,12.36c.29,1.55.73,4.53,1,6.6s.59,5.1.82,6.71.65,4.71,1,6.9l.55,4,.93,1.42a4.14,4.14,0,0,1,.57,4.37,11.58,11.58,0,0,0-.35,3.77c0,2.49.09,2.8,1.12,6.38l1.09,3.77-.05,3.47-.05,3.46,1,2.84A32.74,32.74,0,0,0,915,252.1l.85,1.42-.33,2.24c-.88,6.08-.56,10.3.82,10.64.4.1.46.31.57,1.61a4.48,4.48,0,0,1-.11,1.91,37.53,37.53,0,0,1-5,5.1,7,7,0,0,0-2.95,5.1c-.11,1.14-.06,1.45.27,2l.38.65,2.89.14c1.59.08,5.37.14,8.4.14h5.51l.74-.63a3.53,3.53,0,0,0,.85-1c.1-.31.42-.34,2.84-.27l2.73.08.44-1c.33-.75.49-1.89.74-5l.33-4,.74-.63c.61-.52.74-.76.63-1.17s0-2.73.08-5.46c.19-4.35.19-5.13-.11-6.38-.19-.79-.39-1.64-.44-1.86a2.63,2.63,0,0,1,.35-1.26c.39-.74.47-1.29.55-4.09l.08-3.25-.85-2.62-.85-2.62.11-4a35.19,35.19,0,0,0-.65-9c-.42-2.75-.88-6.38-1.06-8.08a39.4,39.4,0,0,0-1.36-6.85c-.57-2.07-1.12-4.15-1.23-4.61-.2-.87-.49-5-.87-12.69-.2-4.12-.45-7.08-1.34-16.64-.49-5.23-.7-13.93-.35-14.21s.65.12.65.68,2.25,9.79,3.3,13.72a61.28,61.28,0,0,1,1.64,9c1,7.9,1.27,9.53,2.32,14.65.52,2.55,1.08,6.06,1.26,7.86.6,6.28.46,5.68,1.58,7.58.78,1.33.85,1.51,1,4,.11,1.43.24,2.9.3,3.27s.31,2.45.55,4.61c.62,5.7.77,7.06.79,7.12s.36.43.79.9a3.71,3.71,0,0,1,1,2.35,8.8,8.8,0,0,1,.05,2.76c-.1.7-.23,2.85-.3,4.75l-.14,3.44,1.61,1.69c1.57,1.63,1.6,1.7,1.47,2.51a8.29,8.29,0,0,1-.55,1.77c-.58,1.28-.55,2.25.19,4.61a14.55,14.55,0,0,1,.74,4.67c.12,3.15.34,3.74,1.5,3.74h.74v2.56a9.86,9.86,0,0,0,.22,2.78,13.1,13.1,0,0,1,.74,3.87,2.8,2.8,0,0,0,.41,1.36,6.61,6.61,0,0,0,2.46.16,9,9,0,0,1,4.15.55l2,.63,4.28-.08c3.74-.08,4.56-.18,6.22-.63,2.06-.56,3.34-1.19,3.52-1.75.28-.88-.31-2.87-1.5-5a15,15,0,0,0-3.14-4.17c-1.79-1.79-1.94-2-1.94-2.76s.06-.85.9-1.23l.9-.41-.38-4.91c-.2-2.71-.51-6-.71-7.42-.31-2.11-.37-4.24-.41-13.81,0-12.22-.34-17.16-1.17-20.35a56.3,56.3,0,0,0-3.14-9.44c-.79-1.44-.85-1.72-1.86-7.94a288.37,288.37,0,0,1-2.95-38.69v-3.66l1.88-.82a7.31,7.31,0,0,0,2.62-1.61,3.58,3.58,0,0,0,.74-1c0-.38,1.9-2.26,2.84-2.81a2.25,2.25,0,0,0,1.12-1.2,29,29,0,0,0,.6-4.83c0-.12.18-.33.44-.46a3.06,3.06,0,0,0,.57-.38c.29-.3,2.29-14.91,3.14-23,.19-1.79.52-4.81.74-6.71a144.81,144.81,0,0,0,.74-14.65c-.06-.4-.29-3.32-.52-6.49s-.53-6.55-.65-7.5c-.26-1.91-1.56-6-6.17-19.62-2.89-8.53-3.42-10.4-4.23-15-.38-2.17-1.11-3.55-2.32-4.37-.86-.58-9.1-3.62-16.83-6.22-8.23-2.77-9.91-3.58-12.52-6.08-.76-.73-.87-1-.87-1.69,0-.91.26-1.42,1.47-2.76.76-.84.76-.89.87-3a6.19,6.19,0,0,1,.49-2.67,31.2,31.2,0,0,0,2.07-6.33c.32-1.59.32-1.73-.16-4.15a18.88,18.88,0,0,0-.85-3.16,3.11,3.11,0,0,1-.35-1.15,4.2,4.2,0,0,0-1.2-2c-.09-.06-1-1.27-2.1-2.67a22.54,22.54,0,0,0-2.48-2.92A13.75,13.75,0,0,1,925,4.45c-1.18-1.23-2-1.5-6.08-1.94a26.9,26.9,0,0,0-2.84-.22Z" fill="#150060"/><path d="M340.77,5.44A12.6,12.6,0,0,0,335.64,7a4,4,0,0,1-1.7.44c-.69,0-1,.14-2.15.89a29.72,29.72,0,0,0-3.27,2.82c-1.69,1.68-2,2.06-2.24,2.92-.67,2.19-.92,8.74-.37,10.13.26.65.38,1.58.68,4.93.13,1.41.42,3.84.56,4.57a4.29,4.29,0,0,0,1.8,2.31,2.15,2.15,0,0,1,1,1.19A8.34,8.34,0,0,0,330.8,39l.7,1.12-.09,2.54a16.58,16.58,0,0,1-.35,3.13,15,15,0,0,1-1.84,2.33,25.83,25.83,0,0,0-2.45,3.15,6,6,0,0,1-1.52,1.82c-1.09.69-9.68,4.3-14.8,6.21-4.07,1.52-5.16,2.25-6.09,4.11-1.2,2.39-1.76,5-3.15,14.45-.2,1.38-.53,3.59-.72,4.93-1.75,11.82-1.67,10.83-1.54,17.74a142.5,142.5,0,0,0,.84,14.68c.17.89.52,5,1.45,17.25.58,7.7.54,7.56,2.64,11.39,1.87,3.42,3.19,5.53,3.78,6.07a.83.83,0,0,1,.28.79c0,.26-.24,1.56-.44,2.89s-.49,3.11-.63,3.94a24.38,24.38,0,0,0-.51,4.9c.11.29.71.57,1.63.75.66.13.64.08,1.12,2.68,1.89,10.32,3.26,17,4.13,20.1.78,2.74,2.85,11.48,3.22,13.63.1.59.5,5,.89,9.76,1,12,1,13,1.45,20.8.2,3.8.62,11.36.91,16.78s.66,12.3.82,15.31.32,5.75.37,6.09c.21,1.42,2.21,2.49,4.95,2.66a3.82,3.82,0,0,1,1.54.3c.19.22-1.41,3.58-3.17,6.63-.83,1.44-.93,1.72-.93,2.66a4.55,4.55,0,0,0,1.31,3.64l.77.63,4.48-.07c4.24-.07,4.62-.09,7-.63a27.91,27.91,0,0,0,2.89-.75c.44-.24.56-.59.82-2.24s.4-1.78,1.59-2c1.64-.25,2.43-1.6,2.57-4.43.1-2,0-2.35-.58-3.27l-.44-.68.44-.4c.42-.38.44-.54.79-5.32.77-10.42.73-11.3-1.24-20.7l-1.59-7.61a29.55,29.55,0,0,1-.47-3.15c-.13-1.73-.44-5.4-.56-6.63-.23-2.41-.14-18.57.14-25.28.44-10.33.89-24.07,1.14-34.57a41.35,41.35,0,0,1,.26-4.86,29.57,29.57,0,0,1,1.77,6.07c.49,2.23,1.25,6.89,1.47,9.15.51,5.15.87,8.74,1,9.41,0,.35.2,1.84.35,3.31s.33,3,.37,3.31.2,1.81.35,3.24.37,3.23.47,4,.21,2,.26,2.61c.15,2,.47,6,.54,6.75,0,.38.12,1.42.19,2.31s.15,2,.19,2.4c.22,2.5.61,14,.61,17.67,0,2.9-.18,4.55-1.49,13.35a113.71,113.71,0,0,0-.93,18.18c.11,5.74.12,5.9.54,6.72a3.76,3.76,0,0,0,1.38,1.68c.14,0,.06.41-.21,1.21a8.54,8.54,0,0,0-.09,4.83,4.73,4.73,0,0,0,2.47,2.54,6.79,6.79,0,0,1,2.33,2.22,7.13,7.13,0,0,0,1.59,1.68,45.37,45.37,0,0,0,8.71-.07,8,8,0,0,0,4.69-1.8c1.51-1.14,1.72-1.49,1.59-2.61-.16-1.33-1.12-3.19-3.15-6-2.43-3.4-2.41-3.72.3-4.46,2.19-.6,3.19-1,3.45-1.54.17-.31.19-2.69.07-10.36-.18-11.66-.19-12.47,0-32.19.15-17.25.29-21.36,1-29,.64-6.59.83-8.8,1.05-12.09.09-1.38.39-3.88.65-5.56a109.25,109.25,0,0,0,.72-15.48l0-3.43.86-.19a8.56,8.56,0,0,1,1.4-.19h.54v-2c0-1.11-.21-4.11-.47-6.68l-.47-4.67,1-1.61c.57-.88,1.43-2.18,1.91-2.89,2.47-3.64,3.74-7.56,5-15.38.93-5.88,1-6.48,1.05-17.58.08-10.67,0-12.07-.68-24-1-16-1.56-22.4-2.52-26.49a3.72,3.72,0,0,0-1.24-2.47c-1-1-1.29-1.14-11-3.85L367,51.49a51.59,51.59,0,0,1-9.24-4.08A16.5,16.5,0,0,1,353.89,43a7.21,7.21,0,0,1-1.12-3,8.65,8.65,0,0,1-.16-2.15,7.25,7.25,0,0,1,1.05-1.8c1.62-2.16,1.76-2.61,2.1-7l.21-2.8-.51-.75-.54-.77,0-3.59c-.1-8.09-.1-8-.54-8.73a46.44,46.44,0,0,0-5.72-5.6,21.29,21.29,0,0,0-4.55-.93,19,19,0,0,1-2-.37,4.78,4.78,0,0,0-1.28-.12Z" fill="#130960"/><path d="M215.82,1,214,1.71c-1,.38-2.09.73-2.38.79a11.24,11.24,0,0,0-3.81,3c-1.9,2.33-2.24,3.48-2.48,8.79s-.26,5.65-.66,6.26-.27,3.53.46,6.11a7.54,7.54,0,0,0,1.51,3.17c.53.68,1.11,1.23,1.3,1.23.41,0,1,.79,1.35,1.81a5.17,5.17,0,0,1,0,2.66,7.33,7.33,0,0,1-.54,2.25c-.31.35-.8.68-6,3.94-3.66,2.31-5.37,3.29-11.38,6.44-7.86,4.13-10.6,5.74-11,6.47-.22.41-.58,2.69-1.18,7.57-.21,1.73-.6,4.82-.87,6.88-.47,3.61-.77,7.35-1,12.47-.06,1.35-.21,3.68-.31,5.19-.45,6.65-.63,17.26-.51,28.48.07,6.37.13,16.28.13,22v10.4l.69.33a6.5,6.5,0,0,0,1.48.46l.82.13-.13,1.79a61,61,0,0,0,.05,9.1,6.63,6.63,0,0,0,3,5,15.76,15.76,0,0,0,2.3,1.51l.64.28-.1,1.23c-.21,2.54-.5,9.45-.61,14.37-.19,8.53-.41,12.33-1.25,20.63-1.05,10.34-1,9.86-.89,17.28.07,3.89.21,8.74.33,10.79.29,5.08.21,20.51-.13,23.67a21.31,21.31,0,0,0-.18,2.56,4.32,4.32,0,0,0,1.15.36,3.16,3.16,0,0,1,1.18.43c.22.36-1.09,2.49-2.68,4.37-.9,1.07-2,2.45-2.51,3.07l-2,2.48c-1.44,1.81-1.79,2.45-1.92,3.68a3.52,3.52,0,0,0,.36,2.07c.52,1.21,1.08,1.55,2.89,1.71.62.05,2,.21,3.09.36a24.58,24.58,0,0,0,6.7.31,13.45,13.45,0,0,0,5-3.27c1.2-1.11,1.27-1.14,2.28-1.1l1,0,1.43-1.61c.79-.88,1.8-1.95,2.25-2.38a7.26,7.26,0,0,0,1-1.23,12.57,12.57,0,0,0,.2-3.09c0-2.36.06-2.66.38-2.89s.37-.71.49-5.75c.07-3,.14-7.9.15-10.81s.14-6.4.28-7.75.39-4,.56-5.85c.26-2.82.82-6.45,1.89-12.42.18-1,.41-1.95,3.32-12.65,1.17-4.32,2.27-8.35,2.43-8.95s1-3.45,1.76-6.36c1.8-6.44,3.64-13.57,3.89-15,.1-.59.25-1.65.36-2.35.19-1.25.35-2.05,1.2-6.67a15.07,15.07,0,0,0,.31-3c-.05-.41,0-.68.08-.61a.56.56,0,0,1,.18.43c0,.18.41,1.93.89,3.89s.92,4,1,4.6.32,3,.59,5.39c.37,3.33.53,6.25.69,12.63.12,4.57.16,8.39.1,8.49-.25.41-.09,26.61.2,33.38.22,5,.27,8.82.18,13.65-.13,6.42-.14,6.75.26,8.05a13.35,13.35,0,0,1,.49,5.37c-.21,1.46-.07,1.67,1.12,1.87.44.07.79.19.79.26a3,3,0,0,1-.36.72,8.65,8.65,0,0,0-1,4.86c.06,1.84.09,2,.64,2.53.77.81,2.2,1.44,5.19,2.3a11.46,11.46,0,0,1,5.44,2.66,31.07,31.07,0,0,0,3.63,2.28,11.07,11.07,0,0,0,4.5,1.2c1.55.21,3,.44,3.32.49h0a30.17,30.17,0,0,0,5.5-.26,13.28,13.28,0,0,0,5.11-2c.58-.54.62-.65.54-1.66a3.45,3.45,0,0,0-.49-1.61,26.29,26.29,0,0,0-5-4c-5.13-3.5-9-6.89-10-8.79-.32-.61-.34-.6.69-.89l.95-.28.13-5.09c.19-7.17.51-12.76.84-15.39.45-3.53.89-7.2,1.1-9.13.1-1,.33-2.48.49-3.35s.42-2.4.59-3.43.48-2.85.69-4c.43-2.37.79-4.82,1.25-8.44.17-1.3.43-3.39.59-4.65.49-3.76.83-22.06.54-28.86a52.74,52.74,0,0,1-.08-5.7c.08-.08,1.21-.81,2.51-1.64a16.79,16.79,0,0,0,5.39-4.83c1.64-2,1.68-2.18,2.35-5.78a21.84,21.84,0,0,1,.77-3,11.14,11.14,0,0,0,.54-3.22,14.91,14.91,0,0,1,.28-2.53c.12-.24.41-.29,1.3-.23a5.07,5.07,0,0,0,1.71-.15l.56-.2-.13-7.31c-.07-4-.2-10.41-.31-14.19s-.35-12-.51-18.35c-.37-14.2-.93-25.81-1.46-29.55-.11-.76-.32-2.32-.49-3.45s-.36-2.41-.41-2.84-.17-1.39-.28-2.15c-.39-2.68-.77-5.53-.89-6.59a95.7,95.7,0,0,0-3.17-11c-.31-.52-1-.88-4.19-2.35-2.1-1-7.15-3-11.2-4.5-6.74-2.52-7.48-2.85-8.74-3.81-2.37-1.8-3.79-3.17-4-3.94a16.61,16.61,0,0,1,.26-5.37c.33-2.07.52-2.56,1-2.56,1.06,0,1.75-2.46,2-6.82.13-2.66.14-2.82-.28-3.53s-.44-.77-.18-3.4c.14-1.46.26-3.45.26-4.42,0-2.5-.51-3.45-3.22-6.19-3.28-3.31-5.18-4-11-4.24L215.82,1Z" fill="#130960"/><path d="M84.11,9.92c-1.28,0-2.06.4-4.91,1.76-2.56,1.23-2.92,1.52-4.5,3.89s-1.91,4-2.2,9.89c-.13,2.61-.16,2.81-.59,3.14s-.46.52-.46,2c0,2.3.69,5.09,1.48,6a2.79,2.79,0,0,0,1.2.79c.63.13,1,.79,1,1.74A21.49,21.49,0,0,0,77,43.92a4.47,4.47,0,0,1,.59,3c0,1.69-.06,1.76-.69,2.4-.88.91-10,5.46-18,9a37.21,37.21,0,0,0-7.18,3.89c-.68.59-.71.64-1.28,3.94C49.15,73.5,48.86,76,48.86,79.83c0,9.09-.43,20.73-.87,23.82,0,.32-.23,1.88-.41,3.45s-.39,3.15-.46,3.53c-.16.84-.12,9.16.05,11.66.07,1,.2,3.57.31,5.73.17,3.46.25,4.45.51,6.57,0,.27.21,1.83.38,3.45s.36,3.2.41,3.53.22,2.17.38,4.12.35,3.91.41,4.37l.1.84h1.69l-.1,1.74a7.92,7.92,0,0,0,.54,3.73A13.67,13.67,0,0,0,54,160.66c.85,1.27,1.72,2.5,1.94,2.74A7.64,7.64,0,0,0,60,165a16.53,16.53,0,0,1,2,.38,20.17,20.17,0,0,0,2.84.26l2.68.13,0,3.73,0,3.73,2.61,9.59c1.42,5.28,2.61,9.64,2.66,9.71s1.76,6.34,2.4,9a29.05,29.05,0,0,1,.66,4.91c.1,1.62.23,3.2.28,3.53s.26,2.49.49,4.81.46,4.48.51,4.81a82.31,82.31,0,0,1,.92,14.06c-.06,6.27.16,12.08.51,12.73A14.14,14.14,0,0,0,80,247.88C81.19,249.25,81.44,250,82,254a15.68,15.68,0,0,1,.1,6.36c-.41,2.32-.5,2.54-1.81,3.94-.62.66-1.66,1.87-2.3,2.68l-1.18,1.46v1.51a3.55,3.55,0,0,0,.64,2.51,4.51,4.51,0,0,1,.64,1.38,1.55,1.55,0,0,0,.33.79c.28.35.69.46,2.35.64,1.16.13,2,.3,1.89.41s.14.11.51,0a1.1,1.1,0,0,1,.95.13c.28.23.31.24.2-.05s.13-.68.33-.36,1.22.22,5.32.2l3.14,0c1.51,0,3.29,0,4,.1,1.09.1,1.22.08,1.23-.23s.07-.26.15-.13a1.59,1.59,0,0,0,.79.33c.61.12.62.11.41-.31a4.84,4.84,0,0,0-.59-.84c-.29-.32-.35-.78-.38-2.45a16.52,16.52,0,0,0-.2-2.63,1.12,1.12,0,0,1,.1-1,9.25,9.25,0,0,0,.33-3l.1-2.61,1.18-1.18,1.2-1.15.41-2.22a28,28,0,0,0,.74-7.31c-.12-1.45-1.91-8.87-3.55-14.75a32,32,0,0,1-1.56-8.38c-.17-2-.36-4-.41-4.4s-.22-3.24-.38-6.26a59.14,59.14,0,0,1,0-9.71c.44-6.12.62-31,.28-37.76-.28-5.56-.23-5.93.69-5.06s1.65,2.31,5.06,10.12c2.94,6.74,4.09,9.55,7.26,17.66.51,1.31.53.91-.08,10.33-.59,9.26-.13,31.3.92,43.81a34.3,34.3,0,0,0,2.38,8.92l1.51,4h1.46l.13,2.38c.07,1.31.13,2.93.13,3.6a2.05,2.05,0,0,0,.84,2.07c.57.58.75.86.56.92a2.24,2.24,0,0,0-.64.46c-.33.33-.38.72-.38,3.89a27.42,27.42,0,0,0,.13,3.63c.2.2.23.17.13-.41-.05-.3,0-.49.05-.41s.31.06.51-.05a.7.7,0,0,1,.69,0,1,1,0,0,0,.82,0,1,1,0,0,1,.69-.05,3.82,3.82,0,0,0,2.22.05c.16-.13.28-.13.36,0s.3.11.69,0a1.5,1.5,0,0,1,1.2.05c.42.17.65.2.74.05a3.82,3.82,0,0,1,2.43,0c.09.12.21.11.33-.08s.2-.23.2-.08.13.2.51.05a1,1,0,0,1,.64-.08c.06.06,0,.1-.15.1s-.24,0-.18.1.35,0,.64-.1.51-.14.51,0,.05.18.23,0c.33-.33.56-.29.56.1s0,.29.23.1a.89.89,0,0,1,.56-.23c.19,0,.59-.37.89-.79a5.28,5.28,0,0,1,3.4-1.69,3.4,3.4,0,0,0,1.66-.95c.89-.81.89-.87.89-2a6.66,6.66,0,0,0-1.71-4.52c-3.11-2.73-3.6-3.23-4.09-4.24a10.07,10.07,0,0,1-.66-1.76c-.15-.66-.12-.72.49-1s.66-.38,1.15-2.35a17.27,17.27,0,0,0,.51-3.22,9.5,9.5,0,0,1,.77-3.27,17.66,17.66,0,0,0,1-4.12c.31-2.66.18-46.71-.15-49.21-.12-.92-.4-3.39-.61-5.5-.75-7.37-1-9.36-1.28-10.91-.16-.86-.45-2.35-.61-3.32s-.64-3.76-1.07-6.19c-2.38-13.34-2.76-15.78-2.56-16.69a32.22,32.22,0,0,0,.69-8.26c-.08-1.46-.13-3.14-.13-3.73v-1.07l1.1-.05a4.6,4.6,0,0,0,1.1-.13s.85-5.08,1.89-11.22l1.92-11.17.08-7.82c.08-7.71.06-7.85-.43-10.4-.27-1.42-.67-3.78-.89-5.24-.65-4.16-1.94-11.69-2.38-14a70.74,70.74,0,0,1-1.43-9.71,16.65,16.65,0,0,0-1.2-6,43.39,43.39,0,0,0-3.43-7.87c-.46-.55-1.07-.75-9.53-3-5-1.34-10.13-2.71-11.48-3-4.29-1-5-1.38-6.62-3.78a4.41,4.41,0,0,1-.74-4.4,18.3,18.3,0,0,0,.49-2.68c.17-1.65.39-2.15,1.81-4.22a4.84,4.84,0,0,0,1.12-3c.31-2.69.25-3.33-.33-4.19s-.52-.77-.49-4.37,0-3.63-.56-5.42c-.92-2.73-1.51-3.8-2.66-4.93-2.51-2.47-6.5-3.88-11.81-4.17-.63,0-1.11-.06-1.53-.05Z" fill="#130960"/><path d="M543.24,5.65a14.27,14.27,0,0,0-2.26.25,9.81,9.81,0,0,0-6.25,3c-1.94,1.74-2.62,2.57-2.86,3.55a6.67,6.67,0,0,1-1,1.64c-2,2.5-2.43,4.41-2.18,10.45.19,4.6.6,6.54,2,9.55a11.55,11.55,0,0,1,1.28,3.71,5.48,5.48,0,0,0,2,3.38l1,1,.19,2.29.16,2.26-1.5,1.47c-1.66,1.61-2.94,2.52-8,5.59-1.88,1.13-4.21,2.56-5.16,3.19a49.46,49.46,0,0,0-7.18,6.38c-1.14,1.57-1.32,2.78-2.1,13-.07.86-.26,2.94-.44,4.61s-.49,5.31-.71,8.08-.59,6.86-.82,9.11c-1.76,17-1.8,18.12-1.75,41.09,0,19.92.05,20.23.46,20.57s.44.59.44,4.28c0,4.57-.1,4.29,2.26,6.82,1.37,1.46,1.61,1.63,2.84,2a8.86,8.86,0,0,0,2.81.27c1.54-.09,2-.37,3.85-2.21a2.08,2.08,0,0,1,1.58-.63,1.7,1.7,0,0,0,1.5-.63l.87-1.06a1.42,1.42,0,0,1,.93-.46c.42,0,.57.15.74.79.46,1.71,1.48,6.24,2.43,10.72a48.46,48.46,0,0,0,1.36,5.46,119.79,119.79,0,0,1,3,12.36c.29,1.55.73,4.53,1,6.6s.59,5.1.82,6.71.65,4.71,1,6.9l.55,4,.93,1.42a4.14,4.14,0,0,1,.57,4.37,11.58,11.58,0,0,0-.35,3.77c0,2.49.09,2.8,1.12,6.38l1.09,3.77-.05,3.47-.05,3.46,1,2.84a32.74,32.74,0,0,0,1.83,4.26l.85,1.42-.33,2.24c-.88,6.08-.56,10.3.82,10.64.4.1.46.31.57,1.61a4.48,4.48,0,0,1-.11,1.91,37.53,37.53,0,0,1-5,5.1,7,7,0,0,0-2.95,5.1c-.11,1.14-.06,1.45.27,2l.38.65,2.89.14c1.59.08,5.37.14,8.4.14h5.51l.74-.63a3.53,3.53,0,0,0,.85-1c.1-.31.42-.34,2.84-.27l2.73.08.44-1c.33-.75.49-1.89.74-5l.33-4,.74-.63c.61-.52.74-.76.63-1.17s0-2.73.08-5.46c.19-4.35.19-5.13-.11-6.38-.19-.79-.39-1.64-.44-1.86a2.63,2.63,0,0,1,.35-1.26c.39-.74.47-1.29.55-4.09l.08-3.25-.85-2.62-.85-2.62.11-4a35.19,35.19,0,0,0-.65-9c-.42-2.75-.88-6.38-1.06-8.08a39.4,39.4,0,0,0-1.36-6.85c-.57-2.07-1.12-4.15-1.23-4.61-.2-.87-.49-5-.87-12.69-.2-4.12-.45-7.08-1.34-16.64-.49-5.23-.7-13.93-.35-14.21s.65.12.65.68,2.25,9.79,3.3,13.72a61.28,61.28,0,0,1,1.64,9c1,7.9,1.27,9.53,2.32,14.65.52,2.55,1.08,6.06,1.26,7.86.6,6.28.46,5.68,1.58,7.58.78,1.33.85,1.51,1,4,.11,1.43.24,2.9.3,3.27s.31,2.45.55,4.61c.62,5.7.77,7.06.79,7.12s.36.43.79.9a3.71,3.71,0,0,1,1,2.35,8.8,8.8,0,0,1,.05,2.76c-.1.7-.23,2.85-.3,4.75l-.14,3.44,1.61,1.69c1.57,1.63,1.6,1.7,1.47,2.51a8.29,8.29,0,0,1-.55,1.77c-.58,1.28-.55,2.25.19,4.61a14.55,14.55,0,0,1,.74,4.67c.12,3.15.34,3.74,1.5,3.74H576v2.56a9.86,9.86,0,0,0,.22,2.78,13.1,13.1,0,0,1,.74,3.87,2.8,2.8,0,0,0,.41,1.36,6.61,6.61,0,0,0,2.46.16,9,9,0,0,1,4.15.55l2,.63,4.28-.08c3.74-.08,4.56-.18,6.22-.63,2.06-.56,3.34-1.19,3.52-1.75.28-.88-.31-2.87-1.5-5a15,15,0,0,0-3.14-4.17c-1.79-1.79-1.94-2-1.94-2.76s.06-.86.9-1.23l.9-.41-.38-4.91c-.2-2.71-.51-6-.71-7.42-.31-2.11-.37-4.24-.41-13.81,0-12.22-.34-17.16-1.17-20.35a56.3,56.3,0,0,0-3.14-9.44c-.79-1.44-.85-1.72-1.86-7.94a288.37,288.37,0,0,1-2.95-38.69v-3.66l1.88-.82a7.31,7.31,0,0,0,2.62-1.61,3.58,3.58,0,0,0,.74-1c0-.38,1.9-2.26,2.84-2.81a2.25,2.25,0,0,0,1.12-1.2,29,29,0,0,0,.6-4.83c0-.12.18-.33.44-.46a3.06,3.06,0,0,0,.57-.38c.29-.3,2.29-14.91,3.14-23,.19-1.79.52-4.81.74-6.71A144.81,144.81,0,0,0,600,107c-.06-.4-.29-3.32-.52-6.49S599,94,598.85,93c-.26-1.91-1.56-6-6.17-19.62-2.89-8.53-3.42-10.4-4.23-15-.38-2.17-1.11-3.55-2.32-4.37-.86-.58-9.1-3.62-16.83-6.22-8.23-2.77-9.91-3.58-12.52-6.08-.76-.73-.87-1-.87-1.69,0-.91.26-1.42,1.47-2.76.76-.84.76-.89.87-3a6.19,6.19,0,0,1,.49-2.67,31.2,31.2,0,0,0,2.07-6.33c.32-1.59.32-1.73-.16-4.15a18.88,18.88,0,0,0-.85-3.16,3.11,3.11,0,0,1-.35-1.15,4.2,4.2,0,0,0-1.2-2c-.09-.06-1-1.27-2.1-2.67a22.54,22.54,0,0,0-2.48-2.92,13.75,13.75,0,0,1-1.5-1.39c-1.18-1.23-2-1.5-6.08-1.94a26.9,26.9,0,0,0-2.84-.22Z" fill="#130960"/></g></svg>