<svg xmlns="http://www.w3.org/2000/svg" viewBox="0 0 618.21 304.5"><title>queue-single-7</title><g id="que"><path d="M432.65,3.21a14.27,14.27,0,0,0-2.26.25,9.81,9.81,0,0,0-6.25,3c-1.94,1.74-2.62,2.57-2.86,3.55a6.67,6.67,0,0,1-1,1.64c-2,2.5-2.43,4.41-2.18,10.45.19,4.6.6,6.54,2,9.55a11.55,11.55,0,0,1,1.28,3.71,5.48,5.48,0,0,0,2,3.38l1,1,.19,2.29.16,2.26-1.5,1.47c-1.66,1.61-2.94,2.52-8,5.59-1.88,1.13-4.21,2.56-5.16,3.19a49.46,49.46,0,0,0-7.18,6.38c-1.14,1.57-1.32,2.78-2.1,13-.07.86-.26,2.94-.44,4.61s-.49,5.31-.71,8.08-.59,6.86-.82,9.11c-1.76,17-1.8,18.12-1.75,41.09,0,19.92.05,20.23.46,20.57s.44.59.44,4.28c0,4.57-.1,4.29,2.26,6.82,1.37,1.46,1.61,1.63,2.84,2a8.86,8.86,0,0,0,2.81.27c1.54-.09,2-.37,3.85-2.21a2.08,2.08,0,0,1,1.58-.63,1.7,1.7,0,0,0,1.5-.63l.87-1.06a1.42,1.42,0,0,1,.93-.46c.42,0,.57.15.74.79.46,1.71,1.48,6.24,2.43,10.72a48.46,48.46,0,0,0,1.36,5.46,119.79,119.79,0,0,1,3,12.36c.29,1.55.73,4.53,1,6.6s.59,5.1.82,6.71.65,4.71,1,6.9l.55,4,.93,1.42a4.14,4.14,0,0,1,.57,4.37,11.58,11.58,0,0,0-.35,3.77c0,2.49.09,2.8,1.12,6.38l1.09,3.77-.05,3.47-.05,3.46,1,2.84a32.74,32.74,0,0,0,1.83,4.26l.85,1.42-.33,2.24c-.88,6.08-.56,10.3.82,10.64.4.1.46.31.57,1.61a4.48,4.48,0,0,1-.11,1.91,37.53,37.53,0,0,1-5,5.1,7,7,0,0,0-2.95,5.1c-.11,1.14-.06,1.45.27,2l.38.65,2.89.14c1.59.08,5.37.14,8.4.14h5.51l.74-.63a3.53,3.53,0,0,0,.85-1c.1-.31.42-.34,2.84-.27l2.73.08.44-1c.33-.75.49-1.89.74-5l.33-4,.74-.63c.61-.52.74-.76.63-1.17s0-2.73.08-5.46c.19-4.35.19-5.13-.11-6.38-.19-.79-.39-1.64-.44-1.86a2.63,2.63,0,0,1,.35-1.26c.39-.74.47-1.29.55-4.09l.08-3.25-.85-2.62-.85-2.62.11-4a35.19,35.19,0,0,0-.65-9c-.42-2.75-.88-6.38-1.06-8.08a39.4,39.4,0,0,0-1.36-6.85c-.57-2.07-1.12-4.15-1.23-4.61-.2-.87-.49-5-.87-12.69-.2-4.12-.45-7.08-1.34-16.64-.49-5.23-.7-13.93-.35-14.21s.65.12.65.68,2.25,9.79,3.3,13.72a61.28,61.28,0,0,1,1.64,9c1,7.9,1.27,9.53,2.32,14.65.52,2.55,1.08,6.06,1.26,7.86.6,6.28.46,5.68,1.58,7.58.78,1.33.85,1.51,1,4,.11,1.43.24,2.9.3,3.27s.31,2.45.55,4.61c.62,5.7.77,7.06.79,7.12s.36.43.79.9a3.71,3.71,0,0,1,1,2.35,8.8,8.8,0,0,1,.05,2.76c-.1.7-.23,2.85-.3,4.75l-.14,3.44,1.61,1.69c1.57,1.63,1.6,1.7,1.47,2.51a8.29,8.29,0,0,1-.55,1.77c-.58,1.28-.55,2.25.19,4.61a14.55,14.55,0,0,1,.74,4.67c.12,3.15.34,3.74,1.5,3.74h.74V275a9.86,9.86,0,0,0,.22,2.78,13.1,13.1,0,0,1,.74,3.87,2.8,2.8,0,0,0,.41,1.36,6.61,6.61,0,0,0,2.46.16,9,9,0,0,1,4.15.55l2,.63,4.28-.08c3.74-.08,4.56-.18,6.22-.63,2.06-.56,3.34-1.19,3.52-1.75.28-.88-.31-2.87-1.5-5a15,15,0,0,0-3.14-4.17c-1.79-1.79-1.94-2-1.94-2.76s.06-.86.9-1.23l.9-.41-.38-4.91c-.2-2.71-.51-6-.71-7.42-.31-2.11-.37-4.24-.41-13.81,0-12.22-.34-17.16-1.17-20.35a56.3,56.3,0,0,0-3.14-9.44c-.79-1.44-.85-1.72-1.86-7.94A288.37,288.37,0,0,1,474,165.74v-3.66l1.88-.82a7.31,7.31,0,0,0,2.62-1.61,3.58,3.58,0,0,0,.74-1c0-.38,1.9-2.26,2.84-2.81a2.25,2.25,0,0,0,1.12-1.2,29,29,0,0,0,.6-4.83c0-.12.18-.33.44-.46a3.06,3.06,0,0,0,.57-.38c.29-.3,2.29-14.91,3.14-23,.19-1.79.52-4.81.74-6.71a144.81,144.81,0,0,0,.74-14.65c-.06-.4-.29-3.32-.52-6.49s-.53-6.55-.65-7.5c-.26-1.91-1.56-6-6.17-19.62-2.89-8.53-3.42-10.4-4.23-15-.38-2.17-1.11-3.55-2.32-4.37-.86-.58-9.1-3.62-16.83-6.22-8.23-2.77-9.91-3.58-12.52-6.08-.76-.73-.87-1-.87-1.69,0-.91.26-1.42,1.47-2.76.76-.84.76-.89.87-3a6.19,6.19,0,0,1,.49-2.67,31.2,31.2,0,0,0,2.07-6.33c.32-1.59.32-1.73-.16-4.15a18.88,18.88,0,0,0-.85-3.16,3.11,3.11,0,0,1-.35-1.15,4.2,4.2,0,0,0-1.2-2c-.09-.06-1-1.27-2.1-2.67a22.54,22.54,0,0,0-2.48-2.92,13.75,13.75,0,0,1-1.5-1.39c-1.18-1.23-2-1.5-6.08-1.94a26.9,26.9,0,0,0-2.84-.22Z" fill="#1d1589"/></g></svg>