<svg xmlns="http://www.w3.org/2000/svg" viewBox="0 0 618.21 304.5"><title>queue-single-4</title><g id="que"><path d="M201.38,12.38A12.6,12.6,0,0,0,196.25,14a4,4,0,0,1-1.7.44c-.69,0-1,.14-2.15.89a29.72,29.72,0,0,0-3.27,2.82c-1.69,1.68-2,2.06-2.24,2.92-.67,2.19-.92,8.74-.37,10.13.26.65.38,1.58.68,4.93.13,1.41.42,3.84.56,4.57a4.29,4.29,0,0,0,1.8,2.31,2.15,2.15,0,0,1,1,1.19,8.34,8.34,0,0,0,.89,1.75l.7,1.12L192,49.59a16.58,16.58,0,0,1-.35,3.13,15,15,0,0,1-1.84,2.33,25.83,25.83,0,0,0-2.45,3.15A6,6,0,0,1,185.86,60c-1.09.69-9.68,4.3-14.8,6.21-4.07,1.52-5.16,2.25-6.09,4.11-1.2,2.39-1.76,5-3.15,14.45-.2,1.38-.53,3.59-.72,4.93-1.75,11.82-1.67,10.83-1.54,17.74a142.5,142.5,0,0,0,.84,14.68c.17.89.52,5,1.45,17.25.58,7.7.54,7.56,2.64,11.39,1.87,3.42,3.19,5.53,3.78,6.07a.83.83,0,0,1,.28.79c0,.26-.24,1.56-.44,2.89s-.49,3.11-.63,3.94a24.38,24.38,0,0,0-.51,4.9c.11.29.71.57,1.63.75.66.13.64.08,1.12,2.68,1.89,10.32,3.26,17,4.13,20.1.78,2.74,2.85,11.48,3.22,13.63.1.59.5,5,.89,9.76,1,12,1,13,1.45,20.8.2,3.8.62,11.36.91,16.78s.66,12.3.82,15.31.32,5.75.37,6.09c.21,1.42,2.21,2.49,4.95,2.66a3.82,3.82,0,0,1,1.54.3c.19.22-1.41,3.58-3.17,6.63-.83,1.44-.93,1.72-.93,2.66a4.55,4.55,0,0,0,1.31,3.64l.77.63,4.48-.07c4.24-.07,4.62-.09,7-.63a27.91,27.91,0,0,0,2.89-.75c.44-.24.56-.59.82-2.24s.4-1.78,1.59-2c1.64-.25,2.43-1.6,2.57-4.43.1-2,0-2.35-.58-3.27l-.44-.68.44-.4c.42-.38.44-.54.79-5.32.77-10.42.73-11.3-1.24-20.7l-1.59-7.61a29.55,29.55,0,0,1-.47-3.15c-.13-1.73-.44-5.4-.56-6.63-.23-2.41-.14-18.57.14-25.28.44-10.33.89-24.07,1.14-34.57a41.35,41.35,0,0,1,.26-4.86,29.57,29.57,0,0,1,1.77,6.07c.49,2.23,1.25,6.89,1.47,9.15.51,5.15.87,8.74,1,9.41,0,.35.2,1.84.35,3.31s.33,3,.37,3.31.2,1.81.35,3.24.37,3.23.47,4,.21,2,.26,2.61c.15,2,.47,6,.54,6.75,0,.38.12,1.42.19,2.31s.15,2,.19,2.4c.22,2.5.61,14,.61,17.67,0,2.9-.18,4.55-1.49,13.35a113.71,113.71,0,0,0-.93,18.18c.11,5.74.12,5.9.54,6.72a3.76,3.76,0,0,0,1.38,1.68c.14,0,.06.41-.21,1.21a8.54,8.54,0,0,0-.09,4.83,4.73,4.73,0,0,0,2.47,2.54,6.79,6.79,0,0,1,2.33,2.22,7.13,7.13,0,0,0,1.59,1.68,45.37,45.37,0,0,0,8.71-.07,8,8,0,0,0,4.69-1.8c1.51-1.14,1.72-1.49,1.59-2.61-.16-1.33-1.12-3.19-3.15-6-2.43-3.4-2.41-3.72.3-4.46,2.19-.6,3.19-1,3.45-1.54.17-.31.19-2.69.07-10.36-.18-11.66-.19-12.47,0-32.19.15-17.25.29-21.36,1-29,.64-6.59.83-8.8,1.05-12.09.09-1.38.39-3.88.65-5.56a109.25,109.25,0,0,0,.72-15.48l0-3.43.86-.19a8.56,8.56,0,0,1,1.4-.19h.54v-2c0-1.11-.21-4.11-.47-6.68l-.47-4.67,1-1.61c.57-.88,1.43-2.18,1.91-2.89,2.47-3.64,3.74-7.56,5-15.38.93-5.88,1-6.48,1.05-17.58.08-10.67,0-12.07-.68-24-1-16-1.56-22.4-2.52-26.49a3.72,3.72,0,0,0-1.24-2.47c-1-1-1.29-1.14-11-3.85l-3.17-.89a51.59,51.59,0,0,1-9.24-4.08A16.5,16.5,0,0,1,214.5,50a7.21,7.21,0,0,1-1.12-3,8.65,8.65,0,0,1-.16-2.15,7.25,7.25,0,0,1,1.05-1.8c1.62-2.16,1.76-2.61,2.1-7l.21-2.8-.51-.75-.54-.77,0-3.59c-.1-8.09-.1-8-.54-8.73a46.44,46.44,0,0,0-5.72-5.6,21.29,21.29,0,0,0-4.55-.93,19,19,0,0,1-2-.37,4.78,4.78,0,0,0-1.28-.12Z" fill="#201d99"/></g></svg>