<svg xmlns="http://www.w3.org/2000/svg" viewBox="0 0 618.21 304.5"><title>queue-single-1</title><g id="que"><path d="M37.09,23.36c-1.28,0-2.06.4-4.91,1.76-2.56,1.23-2.92,1.52-4.5,3.89s-1.91,4-2.2,9.89c-.13,2.61-.16,2.81-.59,3.14s-.46.52-.46,2c0,2.3.69,5.09,1.48,6a2.79,2.79,0,0,0,1.2.79c.63.13,1,.79,1,1.74A21.49,21.49,0,0,0,30,57.36a4.47,4.47,0,0,1,.59,3c0,1.69-.06,1.76-.69,2.4-.88.91-10,5.46-18,9a37.21,37.21,0,0,0-7.18,3.89C4,76.26,4,76.3,3.4,79.6c-1.27,7.34-1.56,9.88-1.56,13.68,0,9.09-.43,20.73-.87,23.82,0,.32-.23,1.88-.41,3.45S.17,123.7.1,124.07c-.16.84-.12,9.16.05,11.66.07,1,.2,3.57.31,5.73.17,3.46.25,4.45.51,6.57,0,.27.21,1.83.38,3.45s.36,3.2.41,3.53.22,2.17.38,4.12.35,3.91.41,4.37l.1.84H4.34l-.1,1.74a7.92,7.92,0,0,0,.54,3.73,13.67,13.67,0,0,0,2.17,4.29c.85,1.27,1.72,2.5,1.94,2.74A7.64,7.64,0,0,0,13,178.39a16.53,16.53,0,0,1,2,.38,20.17,20.17,0,0,0,2.84.26l2.68.13,0,3.73,0,3.73,2.61,9.59c1.42,5.28,2.61,9.64,2.66,9.71s1.76,6.34,2.4,9A29.05,29.05,0,0,1,29,219.8c.1,1.62.23,3.2.28,3.53s.26,2.49.49,4.81.46,4.48.51,4.81A82.31,82.31,0,0,1,31.16,247c-.06,6.27.16,12.08.51,12.73a14.14,14.14,0,0,0,1.28,1.58c1.22,1.37,1.47,2.11,2.07,6.08a15.68,15.68,0,0,1,.1,6.36c-.41,2.32-.5,2.54-1.81,3.94-.62.66-1.66,1.87-2.3,2.68l-1.18,1.46v1.51a3.55,3.55,0,0,0,.64,2.51,4.51,4.51,0,0,1,.64,1.38,1.55,1.55,0,0,0,.33.79c.28.35.69.46,2.35.64,1.16.13,2,.3,1.89.41s.14.11.51,0a1.1,1.1,0,0,1,.95.13c.28.23.31.24.2-.05s.13-.68.33-.36,1.22.22,5.32.2l3.14,0c1.51,0,3.29,0,4,.1,1.09.1,1.22.08,1.23-.23s.07-.26.15-.13a1.59,1.59,0,0,0,.79.33c.61.12.62.11.41-.31a4.84,4.84,0,0,0-.59-.84c-.29-.32-.35-.78-.38-2.45a16.52,16.52,0,0,0-.2-2.63,1.12,1.12,0,0,1,.1-1,9.25,9.25,0,0,0,.33-3l.1-2.61,1.18-1.18,1.2-1.15.41-2.22a28,28,0,0,0,.74-7.31c-.12-1.45-1.91-8.87-3.55-14.75a32,32,0,0,1-1.56-8.38c-.17-2-.36-4-.41-4.4s-.22-3.24-.38-6.26a59.14,59.14,0,0,1,0-9.71c.44-6.12.62-31,.28-37.76-.28-5.56-.23-5.93.69-5.06s1.65,2.31,5.06,10.12c2.94,6.74,4.09,9.55,7.26,17.66.51,1.31.53.91-.08,10.33-.59,9.26-.13,31.3.92,43.81a34.3,34.3,0,0,0,2.38,8.92l1.51,4h1.46l.13,2.38c.07,1.31.13,2.93.13,3.6a2.05,2.05,0,0,0,.84,2.07c.57.58.75.86.56.92a2.24,2.24,0,0,0-.64.46c-.33.33-.38.72-.38,3.89a27.42,27.42,0,0,0,.13,3.63c.2.2.23.17.13-.41-.05-.3,0-.49.05-.41s.31.06.51-.05a.7.7,0,0,1,.69,0,1,1,0,0,0,.82,0,1,1,0,0,1,.69-.05A3.82,3.82,0,0,0,75,289c.16-.13.28-.13.36,0s.3.11.69,0a1.5,1.5,0,0,1,1.2.05c.42.17.65.2.74.05a3.82,3.82,0,0,1,2.43,0c.09.12.21.11.33-.08s.2-.23.2-.08.13.2.51.05a1,1,0,0,1,.64-.08c.06.06,0,.1-.15.1s-.24,0-.18.1.35,0,.64-.1.51-.14.51,0,.05.18.23,0c.33-.33.56-.29.56.1s0,.29.23.1a.89.89,0,0,1,.56-.23c.19,0,.59-.37.89-.79a5.28,5.28,0,0,1,3.4-1.69,3.4,3.4,0,0,0,1.66-.95c.89-.81.89-.87.89-2A6.66,6.66,0,0,0,89.67,279c-3.11-2.73-3.6-3.23-4.09-4.24a10.07,10.07,0,0,1-.66-1.76c-.15-.66-.12-.72.49-1s.66-.38,1.15-2.35a17.27,17.27,0,0,0,.51-3.22,9.5,9.5,0,0,1,.77-3.27,17.66,17.66,0,0,0,1-4.12c.31-2.66.18-46.71-.15-49.21-.12-.92-.4-3.39-.61-5.5-.75-7.37-1-9.36-1.28-10.91-.16-.86-.45-2.35-.61-3.32s-.64-3.76-1.07-6.19c-2.38-13.34-2.76-15.78-2.56-16.69a32.22,32.22,0,0,0,.69-8.26c-.08-1.46-.13-3.14-.13-3.73v-1.07l1.1-.05a4.6,4.6,0,0,0,1.1-.13s.85-5.08,1.89-11.22l1.92-11.17.08-7.82c.08-7.71.06-7.85-.43-10.4-.27-1.42-.67-3.78-.89-5.24-.65-4.16-1.94-11.69-2.38-14A70.74,70.74,0,0,1,84,84.51a16.65,16.65,0,0,0-1.2-6,43.39,43.39,0,0,0-3.43-7.87c-.46-.55-1.07-.75-9.53-3-5-1.34-10.13-2.71-11.48-3-4.29-1-5-1.38-6.62-3.78a4.41,4.41,0,0,1-.74-4.4,18.3,18.3,0,0,0,.49-2.68c.17-1.65.39-2.15,1.81-4.22a4.84,4.84,0,0,0,1.12-3c.31-2.69.25-3.33-.33-4.19s-.52-.77-.49-4.37,0-3.63-.56-5.42c-.92-2.73-1.51-3.8-2.66-4.93-2.51-2.47-6.5-3.88-11.81-4.17-.63,0-1.11-.06-1.53-.05Z" fill="#141475"/></g></svg>