<svg xmlns="http://www.w3.org/2000/svg" viewBox="0 0 618.21 304.5"><title>queue-single-6</title><g id="que"><path d="M348.34,2.88,344,3c-4.77.1-6,.32-7.81,1.42a13.1,13.1,0,0,0-5.51,6.38,17.12,17.12,0,0,0-.11,7.23c.18,1.11.61,4.21.95,6.88.55,4.34,1.16,7.33,1.61,7.91a2.65,2.65,0,0,1,.26.74,15.55,15.55,0,0,0,2.22,4.33A5.18,5.18,0,0,1,337,41.31c0,1.75-.37,2.56-2,4.51-2.42,3-3.85,4.15-8.31,6.83-4.83,2.9-6.19,3.8-7.31,4.83-1.56,1.44-1.9,2.8-3.51,14.24-1.56,11.09-1.95,20.36-1.66,38.48l.18,12.37.53,1.61a17.67,17.67,0,0,0,5.43,7.86c1.26.92,1.38,1,1.24,1.53-.27,1-.1,9.33.34,16.14l.42,6.7,1.21,5.67c1.38,6.42,3.23,17.22,4.43,25.92.45,3.23,1.25,8.88,1.77,12.55s1.06,7.62,1.21,8.73a114.9,114.9,0,0,1,.79,12.95c-.17,1.85-1.43,12.14-1.85,15-.28,1.92-.92,4.9-2.9,13.34a11.84,11.84,0,0,0-.37,2.14,2.88,2.88,0,0,1-.69,1.24c-.4.5-1.31,1.77-2.06,2.85a17.21,17.21,0,0,1-1.87,2.37,18.39,18.39,0,0,1-2.48,1.24,92,92,0,0,0-10.89,5.54c-.79.69-.81.74-.76,1.87a3.24,3.24,0,0,0,1.93,3.19c2.58.92,3.7,1,8.39.45,6.58-.76,6.94-.9,10.1-3.27a21.09,21.09,0,0,1,2.93-1.85c1-.47,1.14-.5,1.93-.24a17.66,17.66,0,0,0,4.27.29c3.32,0,3.49,0,4.56-.55.61-.3,1.6-.74,2.22-1,1.43-.56,1.84-.91,1.85-1.69,0-.34.31-2.1.69-3.88.69-3.27.75-3.42,1.82-4.06a1.77,1.77,0,0,0,.5-1c.1-.43.3-4.44.42-8.91.21-7.65.42-15.07.82-27.37.09-2.9.4-7.73.69-10.73s.63-6.52.74-7.81.29-3.19.4-4.25.24-3.75.32-6a22.89,22.89,0,0,1,.29-3.85c.23.27,4.44,12.69,7.17,21.15,2.49,7.69,2.72,8.66,3.16,12.66.12,1.11.59,4.16,1,6.78s.93,6.57,1.11,8.81c.77,10,1.14,14.4,1.24,14.56s.22,2.32.37,5c.29,5.06,1,12.61,1.27,12.84a5.93,5.93,0,0,0,1.66.18,5.41,5.41,0,0,1,1.77.24c.18.14.27.89.26,2.45a6.29,6.29,0,0,1-.5,3.3c-1,2.07-2.88,4.47-6.72,8.39s-3.87,4-4.11,5.06a2.43,2.43,0,0,0,.16,2.06,3.39,3.39,0,0,0,.87,1.24,44.48,44.48,0,0,0,6.86,1.42,18,18,0,0,0,5.7-.58,35.63,35.63,0,0,0,6.57-2.22,19.25,19.25,0,0,0,4.27-4.22c1.21-1.53,1.34-1.65,2.11-1.69a2.8,2.8,0,0,0,1.27-.37c.25-.18.94-.64,1.53-1a5.08,5.08,0,0,0,2.4-3.3,26.92,26.92,0,0,0-.11-3.88,18.66,18.66,0,0,0-.84-4.88l-.63-1.93,0-10.63c0-5.85.11-14.79.21-19.86s.21-12.07.21-15.56c0-6.94,0-6.73-1.45-11.68-.33-1.11-.93-4-1.32-6.38s-1-6-1.4-8.1c-.59-3.21-2.71-15.58-3.67-21.36a23.73,23.73,0,0,0-.69-3,22.6,22.6,0,0,1-.79-9.76c.35-3,.47-3.31,1.37-3.67l.76-.29-.47-3.82c-.26-2.11-.56-6-.66-8.7A94,94,0,0,0,381.49,132c-.63-4.29-1.17-8.72-1.24-9.84l-.13-2,.66-.82c1.42-1.76,8.43-12.16,9.18-13.61a21.93,21.93,0,0,0,.74-3.85c.23-1.77.47-3.36.53-3.56a24.78,24.78,0,0,0-.11-5.46c-.12-.81-.24-2.72-.29-4.22-.07-2.42-1-11.1-2.16-20.75-.46-3.82-2.46-14.27-2.93-15.3a12,12,0,0,0-1.13-1.77c-.69-.9-1.14-1.19-3.16-2.19-2.5-1.22-3.59-1.6-12.16-4.22l-5.41-1.66-1.32-1.61c-.73-.88-2.31-2.64-3.51-3.9l-2.16-2.29V30.73l1-2.11a16,16,0,0,0,2-7.49c.06-1.93,0-2.41-.24-2.66s-.36-1.06-.5-3.22c-.27-4.2-.82-5.52-3.45-8.33-1.2-1.28-1.63-1.54-5.64-3.3l-1.69-.74Z" fill="#361b8c"/></g></svg>