<svg xmlns="http://www.w3.org/2000/svg" viewBox="0 0 618.21 304.5"><title>queue-single-2</title><g id="que"><path d="M77.51,288.29A16.64,16.64,0,0,1,79,283.59c2-4.36,2.2-10.77.3-11.77-1.09-.6-1.23-1.29-1.23-6.1a65.26,65.26,0,0,0-3.77-21.38l-1.94-5.45-.17-16.75c-.16-16.37-.2-16.86-1.85-21.84a75.79,75.79,0,0,0-3.14-8c-1.22-2.44-3.15-8.92-5.72-19.23-.58-2.3-2.67-9.14-2.9-9.47-.1-.13-.59.11-1.11.54-1,.82-1.14.55-1-1.62.16-2-1.11-2.37-1.79-.57-1.14,3-5.83,2.81-8.18-.34-1.09-1.47-1.13-1.84-.37-4a12.34,12.34,0,0,1,2.94-4.23c5.76-5.13,6.68-6.44,7.69-11,1.37-6.16,2.81-16.09,2.81-19.36,0-2.75,2.65-16,3.67-18.28a17,17,0,0,0,.83-3.8c.24-2.16,0-3-1.8-5.67-2.5-3.71-2.78-7-.81-9.53,1.1-1.4,1.19-1.91.6-3.67a11.18,11.18,0,0,0-2.47-3.76c-2.83-2.71-3-5.6-.62-10.44,1.28-2.59,1.84-4.5,1.61-5.41a56.67,56.67,0,0,1,.53-9.38c.75-6.78,1.2-8.61,3-12.3a45,45,0,0,1,3.88-6.56,26.93,26.93,0,0,0,3.25-6.66c2-6,6-9.76,12.36-11.74,4.89-1.51,6.39-1.39,11.2.91s8.05,5.66,9.61,9.82a26.9,26.9,0,0,0,2.79,5.48,22.87,22.87,0,0,1,2.36,4.1,33.69,33.69,0,0,0,3.44,5.52c2.44,3.23,2.54,3.55,2.54,7.81,0,3.56.31,5,1.54,7.34a15.43,15.43,0,0,1,1.54,3.61,14.68,14.68,0,0,0,1.39,3.45c1.36,2.68,1.38,3.05,1.19,21.81-.13,13.1,0,19.94.52,21.84.39,1.52.91,9.56,1.15,17.85.39,13.53.57,15.37,1.73,17.85a37.42,37.42,0,0,1,1.73,4.3,37.61,37.61,0,0,0,2.27,5c1.61,3.07,1.79,3.88,1.41,6.62-.31,2.25-.71,3.15-1.45,3.22a11.3,11.3,0,0,0-3.94.79,3,3,0,0,1-1.92.14,1.42,1.42,0,0,0-1.39.22c-1,1-3-.08-3.76-2-.77-2-2-1.87-2,.28,0,2.54-1.21,5.66-4.45,11.51-1.78,3.22-3.76,7.1-4.39,8.61a81.91,81.91,0,0,1-6.61,12.48c-2.63,4.08-3.51,7.53-4,15.45-.35,6.16-.87,9.33-3,18.52-2,8.35-2.62,13.54-3.42,27-.57,9.65-.52,12.52.26,17.77.51,3.45,1.11,8.1,1.32,10.32.54,5.74.08,6.1-7.74,6.1-5.93,0-6.11,0-6.1-1.38Z" fill="#1d106b"/></g></svg>