<svg xmlns="http://www.w3.org/2000/svg" viewBox="0 0 618.21 304.5"><title>queue-single-8</title><g id="que"><path d="M536.3,4.46l-1.87.72c-1,.38-2.09.73-2.38.79a11.24,11.24,0,0,0-3.81,3c-1.9,2.33-2.24,3.48-2.48,8.79s-.26,5.65-.66,6.26-.27,3.53.46,6.11a7.54,7.54,0,0,0,1.51,3.17c.53.68,1.11,1.23,1.3,1.23.41,0,1,.79,1.35,1.81a5.17,5.17,0,0,1,0,2.66,7.33,7.33,0,0,1-.54,2.25c-.31.35-.8.68-6,3.94-3.66,2.31-5.37,3.29-11.38,6.44-7.86,4.13-10.6,5.74-11,6.47-.22.41-.58,2.69-1.18,7.57-.21,1.73-.6,4.82-.87,6.88-.47,3.61-.77,7.35-1,12.47-.06,1.35-.21,3.68-.31,5.19-.45,6.65-.63,17.26-.51,28.48.07,6.37.13,16.28.13,22v10.4l.69.33a6.5,6.5,0,0,0,1.48.46l.82.13-.13,1.79a61,61,0,0,0,.05,9.1,6.63,6.63,0,0,0,3,5,15.76,15.76,0,0,0,2.3,1.51l.64.28-.1,1.23c-.21,2.54-.5,9.45-.61,14.37-.19,8.53-.41,12.33-1.25,20.63-1.05,10.34-1,9.86-.89,17.28.07,3.89.21,8.74.33,10.79.29,5.08.21,20.51-.13,23.67a21.31,21.31,0,0,0-.18,2.56,4.32,4.32,0,0,0,1.15.36,3.16,3.16,0,0,1,1.18.43c.22.36-1.09,2.49-2.68,4.37-.9,1.07-2,2.45-2.51,3.07l-2,2.48c-1.44,1.81-1.79,2.45-1.92,3.68a3.52,3.52,0,0,0,.36,2.07c.52,1.21,1.08,1.55,2.89,1.71.62.05,2,.21,3.09.36a24.58,24.58,0,0,0,6.7.31,13.45,13.45,0,0,0,5-3.27c1.2-1.11,1.27-1.14,2.28-1.1l1,0,1.43-1.61c.79-.88,1.8-1.95,2.25-2.38a7.26,7.26,0,0,0,1-1.23,12.57,12.57,0,0,0,.2-3.09c0-2.36.06-2.66.38-2.89s.37-.71.49-5.75c.07-3,.14-7.9.15-10.81s.14-6.4.28-7.75.39-4,.56-5.85c.26-2.82.82-6.45,1.89-12.42.18-1,.41-1.95,3.32-12.65,1.17-4.32,2.27-8.35,2.43-8.95s1-3.45,1.76-6.36c1.8-6.44,3.64-13.57,3.89-15,.1-.59.25-1.65.36-2.35.19-1.25.35-2.05,1.2-6.67a15.07,15.07,0,0,0,.31-3c-.05-.41,0-.68.08-.61a.56.56,0,0,1,.18.43c0,.18.41,1.93.89,3.89s.92,4,1,4.6.32,3,.59,5.39c.37,3.33.53,6.25.69,12.63.12,4.57.16,8.39.1,8.49-.25.41-.09,26.61.2,33.38.22,5,.27,8.82.18,13.65-.13,6.42-.14,6.75.26,8.05a13.35,13.35,0,0,1,.49,5.37c-.21,1.46-.07,1.67,1.12,1.87.44.07.79.19.79.26a3,3,0,0,1-.36.72,8.65,8.65,0,0,0-1,4.86c.06,1.84.09,2,.64,2.53.77.81,2.2,1.44,5.19,2.3a11.46,11.46,0,0,1,5.44,2.66,31.07,31.07,0,0,0,3.63,2.28,11.07,11.07,0,0,0,4.5,1.2c1.55.21,3,.44,3.32.49h0a30.17,30.17,0,0,0,5.5-.26,13.28,13.28,0,0,0,5.11-2c.58-.54.62-.65.54-1.66a3.45,3.45,0,0,0-.49-1.61,26.29,26.29,0,0,0-5-4c-5.13-3.5-9-6.89-10-8.79-.32-.61-.34-.6.69-.89l.95-.28.13-5.09c.19-7.17.51-12.76.84-15.39.45-3.53.89-7.2,1.1-9.13.1-1,.33-2.48.49-3.35s.42-2.4.59-3.43.48-2.85.69-4c.43-2.37.79-4.82,1.25-8.44.17-1.3.43-3.39.59-4.65.49-3.76.83-22.06.54-28.86a52.74,52.74,0,0,1-.08-5.7c.08-.08,1.21-.81,2.51-1.64a16.79,16.79,0,0,0,5.39-4.83c1.64-2,1.68-2.18,2.35-5.78a21.84,21.84,0,0,1,.77-3,11.14,11.14,0,0,0,.54-3.22,14.91,14.91,0,0,1,.28-2.53c.12-.24.41-.29,1.3-.23a5.07,5.07,0,0,0,1.71-.15l.56-.2-.13-7.31c-.07-4-.2-10.41-.31-14.19s-.35-12-.51-18.35c-.37-14.2-.93-25.81-1.46-29.55-.11-.76-.32-2.32-.49-3.45s-.36-2.41-.41-2.84-.17-1.39-.28-2.15c-.39-2.68-.77-5.53-.89-6.59a95.7,95.7,0,0,0-3.17-11c-.31-.52-1-.88-4.19-2.35-2.1-1-7.15-3-11.2-4.5-6.74-2.52-7.48-2.85-8.74-3.81-2.37-1.8-3.79-3.17-4-3.94a16.61,16.61,0,0,1,.26-5.37c.33-2.07.52-2.56,1-2.56,1.06,0,1.75-2.46,2-6.82.13-2.66.14-2.82-.28-3.53s-.44-.77-.18-3.4c.14-1.46.26-3.45.26-4.42,0-2.5-.51-3.45-3.22-6.19-3.28-3.31-5.18-4-11-4.24l-3.25-.13Z" fill="#161693"/></g></svg>