<svg id="Layer_1" data-name="Layer 1" xmlns="http://www.w3.org/2000/svg" viewBox="0 0 1440 1024">
  <defs>
    <style>
      .cls-1 {
        fill: #05002a;
      }

      .cls-1, .cls-12, .cls-13 {
        stroke: #8c44c1;
        stroke-miterlimit: 1;
        stroke-width: 0.8px;
      }

      .cls-2 {
        fill: #eee;
      }

      .cls-10, .cls-11, .cls-2, .cls-4, .cls-6, .cls-7, .cls-8, .cls-9 {
        fill-rule: evenodd;
      }

      .cls-12, .cls-3, .cls-5 {
        fill: none;
      }

      .cls-3, .cls-5 {
        stroke: #000;
        stroke-width: 0.52px;
      }

      .cls-3 {
        stroke-miterlimit: 6.4;
      }

      .cls-4 {
        fill: #f5f5f5;
      }

      .cls-5 {
        stroke-linejoin: round;
      }

      .cls-6 {
        fill: #d9d9d9;
      }

      .cls-7 {
        fill: #eaeaea;
      }

      .cls-8 {
        fill: #efefef;
      }

      .cls-9 {
        fill: #f1f1f1;
      }

      .cls-10 {
        fill: #d7d7d7;
      }

      .cls-11 {
        fill: #dfdfdf;
      }

      .cls-13 {
        fill: #4d4d4d;
      }
    </style>
  </defs>
  <g id="bar-midbackground">
    <g id="customer-table">
      <rect class="cls-1" x="-27" y="492.5" width="1497" height="157"/>
      <rect class="cls-1" x="-30" y="406.5" width="1497" height="87"/>
    </g>
    <g>
      <path id="path3376" class="cls-2" d="M1182.64,403.6l-17-24.21h34Z"/>
      <path id="path3378" class="cls-3" d="M1182.64,403.6l-17-24.21h34Z"/>
      <path id="path3380" class="cls-4" d="M1182.64,375.08c9.45,0,17,1.74,17,4s-7.6,3.92-17,3.92-17-1.74-17-3.92S1173.24,375.08,1182.64,375.08Z"/>
      <path id="path3382" class="cls-5" d="M1182.64,375.08c9.45,0,17,1.74,17,4s-7.6,3.92-17,3.92-17-1.74-17-3.92,7.6-4,17-4"/>
      <path id="path3384" class="cls-6" d="M1182.69,429.94c5.44,0,9.82,1,9.82,2.24s-4.38,2.29-9.82,2.29-9.82-1-9.82-2.29S1177.26,429.94,1182.69,429.94Z"/>
      <path id="path3386" class="cls-5" d="M1182.69,429.94c5.44,0,9.82,1,9.82,2.24s-4.38,2.29-9.82,2.29-9.82-1-9.82-2.29,4.39-2.24,9.82-2.24"/>
      <path id="path3388" class="cls-7" d="M1182.69,401.25c.69,0,1.22.23,1.22.51v29.75c0,.27-.53.5-1.22.5s-1.16-.23-1.16-.5V401.76C1181.53,401.48,1182.06,401.25,1182.69,401.25Z"/>
      <path id="path3390" class="cls-8" d="M1183.91,401.76c0,.22-.53.44-1.22.44s-1.16-.22-1.16-.44.53-.51,1.16-.51S1183.91,401.48,1183.91,401.76Z"/>
      <path id="path3392" class="cls-5" d="M1182.69,401.25c.69,0,1.22.23,1.22.51v29.75c0,.27-.53.5-1.22.5s-1.16-.23-1.16-.5V401.76C1181.53,401.48,1182.06,401.25,1182.69,401.25Z"/>
      <path id="path3394" class="cls-5" d="M1183.91,401.76c0,.22-.53.44-1.22.44s-1.16-.22-1.16-.44"/>
    </g>
    <g>
      <path id="path3376-2" data-name="path3376" class="cls-2" d="M445.64,393.6l-17-24.21h34.05Z"/>
      <path id="path3378-2" data-name="path3378" class="cls-3" d="M445.64,393.6l-17-24.21h34.05Z"/>
      <path id="path3380-2" data-name="path3380" class="cls-4" d="M445.64,365.08c9.45,0,17.05,1.74,17.05,4s-7.6,3.92-17.05,3.92-17-1.74-17-3.92S436.24,365.08,445.64,365.08Z"/>
      <path id="path3382-2" data-name="path3382" class="cls-5" d="M445.64,365.08c9.45,0,17.05,1.74,17.05,4s-7.6,3.92-17.05,3.92-17-1.74-17-3.92,7.6-4,17-4"/>
      <path id="path3384-2" data-name="path3384" class="cls-6" d="M445.69,419.94c5.44,0,9.82,1,9.82,2.24s-4.38,2.29-9.82,2.29-9.82-1-9.82-2.29S440.26,419.94,445.69,419.94Z"/>
      <path id="path3386-2" data-name="path3386" class="cls-5" d="M445.69,419.94c5.44,0,9.82,1,9.82,2.24s-4.38,2.29-9.82,2.29-9.82-1-9.82-2.29,4.39-2.24,9.82-2.24"/>
      <path id="path3388-2" data-name="path3388" class="cls-7" d="M445.69,391.25c.69,0,1.22.23,1.22.51v29.75c0,.27-.53.5-1.22.5s-1.16-.23-1.16-.5V391.76C444.53,391.48,445.06,391.25,445.69,391.25Z"/>
      <path id="path3390-2" data-name="path3390" class="cls-8" d="M446.91,391.76c0,.22-.53.44-1.22.44s-1.16-.22-1.16-.44.53-.51,1.16-.51S446.91,391.48,446.91,391.76Z"/>
      <path id="path3392-2" data-name="path3392" class="cls-5" d="M445.69,391.25c.69,0,1.22.23,1.22.51v29.75c0,.27-.53.5-1.22.5s-1.16-.23-1.16-.5V391.76C444.53,391.48,445.06,391.25,445.69,391.25Z"/>
      <path id="path3394-2" data-name="path3394" class="cls-5" d="M446.91,391.76c0,.22-.53.44-1.22.44s-1.16-.22-1.16-.44"/>
    </g>
    <g>
      <path id="path3376-3" data-name="path3376" class="cls-2" d="M478.64,393.6l-17-24.21h34.05Z"/>
      <path id="path3378-3" data-name="path3378" class="cls-3" d="M478.64,393.6l-17-24.21h34.05Z"/>
      <path id="path3380-3" data-name="path3380" class="cls-4" d="M478.64,365.08c9.45,0,17.05,1.74,17.05,4s-7.6,3.92-17.05,3.92-17-1.74-17-3.92S469.24,365.08,478.64,365.08Z"/>
      <path id="path3382-3" data-name="path3382" class="cls-5" d="M478.64,365.08c9.45,0,17.05,1.74,17.05,4s-7.6,3.92-17.05,3.92-17-1.74-17-3.92,7.6-4,17-4"/>
      <path id="path3384-3" data-name="path3384" class="cls-6" d="M478.69,419.94c5.44,0,9.82,1,9.82,2.24s-4.38,2.29-9.82,2.29-9.82-1-9.82-2.29S473.26,419.94,478.69,419.94Z"/>
      <path id="path3386-3" data-name="path3386" class="cls-5" d="M478.69,419.94c5.44,0,9.82,1,9.82,2.24s-4.38,2.29-9.82,2.29-9.82-1-9.82-2.29,4.39-2.24,9.82-2.24"/>
      <path id="path3388-3" data-name="path3388" class="cls-7" d="M478.69,391.25c.69,0,1.22.23,1.22.51v29.75c0,.27-.53.5-1.22.5s-1.16-.23-1.16-.5V391.76C477.53,391.48,478.06,391.25,478.69,391.25Z"/>
      <path id="path3390-3" data-name="path3390" class="cls-8" d="M479.91,391.76c0,.22-.53.44-1.22.44s-1.16-.22-1.16-.44.53-.51,1.16-.51S479.91,391.48,479.91,391.76Z"/>
      <path id="path3392-3" data-name="path3392" class="cls-5" d="M478.69,391.25c.69,0,1.22.23,1.22.51v29.75c0,.27-.53.5-1.22.5s-1.16-.23-1.16-.5V391.76C477.53,391.48,478.06,391.25,478.69,391.25Z"/>
      <path id="path3394-3" data-name="path3394" class="cls-5" d="M479.91,391.76c0,.22-.53.44-1.22.44s-1.16-.22-1.16-.44"/>
    </g>
    <g>
      <path id="path3376-4" data-name="path3376" class="cls-2" d="M456.64,405.6l-17-24.21h34.05Z"/>
      <path id="path3378-4" data-name="path3378" class="cls-3" d="M456.64,405.6l-17-24.21h34.05Z"/>
      <path id="path3380-4" data-name="path3380" class="cls-4" d="M456.64,377.08c9.45,0,17.05,1.74,17.05,4s-7.6,3.92-17.05,3.92-17-1.74-17-3.92S447.24,377.08,456.64,377.08Z"/>
      <path id="path3382-4" data-name="path3382" class="cls-5" d="M456.64,377.08c9.45,0,17.05,1.74,17.05,4s-7.6,3.92-17.05,3.92-17-1.74-17-3.92,7.6-4,17-4"/>
      <path id="path3384-4" data-name="path3384" class="cls-6" d="M456.69,431.94c5.44,0,9.82,1,9.82,2.24s-4.38,2.29-9.82,2.29-9.82-1-9.82-2.29S451.26,431.94,456.69,431.94Z"/>
      <path id="path3386-4" data-name="path3386" class="cls-5" d="M456.69,431.94c5.44,0,9.82,1,9.82,2.24s-4.38,2.29-9.82,2.29-9.82-1-9.82-2.29,4.39-2.24,9.82-2.24"/>
      <path id="path3388-4" data-name="path3388" class="cls-7" d="M456.69,403.25c.69,0,1.22.23,1.22.51v29.75c0,.27-.53.5-1.22.5s-1.16-.23-1.16-.5V403.76C455.53,403.48,456.06,403.25,456.69,403.25Z"/>
      <path id="path3390-4" data-name="path3390" class="cls-8" d="M457.91,403.76c0,.22-.53.44-1.22.44s-1.16-.22-1.16-.44.53-.51,1.16-.51S457.91,403.48,457.91,403.76Z"/>
      <path id="path3392-4" data-name="path3392" class="cls-5" d="M456.69,403.25c.69,0,1.22.23,1.22.51v29.75c0,.27-.53.5-1.22.5s-1.16-.23-1.16-.5V403.76C455.53,403.48,456.06,403.25,456.69,403.25Z"/>
      <path id="path3394-4" data-name="path3394" class="cls-5" d="M457.91,403.76c0,.22-.53.44-1.22.44s-1.16-.22-1.16-.44"/>
    </g>
    <g>
      <path id="path3416" class="cls-6" d="M1244,444.36l4.59,21.65H1264l4.51-21.65"/>
      <path id="path3418" class="cls-3" d="M1268.54,444.36H1244"/>
      <path id="path3418-2" data-name="path3418" class="cls-3" d="M1244,444.36l4.59,21.65H1264l4.51-21.65"/>
      <path id="path3420" class="cls-9" d="M1268.54,444.36c0-1.56-5.52-2.8-12.29-2.8s-12.28,1.24-12.28,2.8"/>
      <path id="path3420-2" data-name="path3420" class="cls-9" d="M1244,444.36c0,1.56,5.52,2.88,12.28,2.88s12.29-1.32,12.29-2.88"/>
      <path id="path3422" class="cls-5" d="M1268.54,444.36c0-1.56-5.52-2.8-12.29-2.8"/>
      <path id="path3422-2" data-name="path3422" class="cls-5" d="M1244,444.36c0,1.56,5.52,2.88,12.28,2.88s12.29-1.32,12.29-2.88"/>
      <path id="path3422-3" data-name="path3422" class="cls-5" d="M1256.25,441.56c-6.76,0-12.28,1.24-12.28,2.8"/>
      <path id="path3424" class="cls-10" d="M1256.33,464c-4.35,0-7.93.75-7.93,1.73v3.38c0,1,3.58,1.73,7.93,1.73s7.85-.74,7.85-1.73v-3.38C1264.18,464.7,1260.68,464,1256.33,464Z"/>
      <path id="path3426" class="cls-11" d="M1248.4,465.68c0,.91,3.58,1.65,7.93,1.65s7.85-.74,7.85-1.65-3.5-1.73-7.85-1.73S1248.4,464.7,1248.4,465.68Z"/>
      <path id="path3428" class="cls-5" d="M1256.33,464c-4.35,0-7.93.75-7.93,1.73v3.38c0,1,3.58,1.73,7.93,1.73s7.85-.74,7.85-1.73v-3.38C1264.18,464.7,1260.68,464,1256.33,464Z"/>
      <path id="path3430" class="cls-5" d="M1248.4,465.68c0,.91,3.58,1.65,7.93,1.65s7.85-.74,7.85-1.65"/>
    </g>
    <g>
      <rect class="cls-1" x="191.5" y="519.65" width="146" height="107.85"/>
      <line class="cls-12" x1="264.5" y1="521" x2="264.5" y2="628"/>
      <circle class="cls-13" cx="246.5" cy="572.5" r="6"/>
      <circle class="cls-13" cx="280.5" cy="572.5" r="6"/>
    </g>
    <g>
      <rect class="cls-1" x="-35.5" y="518.65" width="146" height="107.85"/>
      <line class="cls-12" x1="37.5" y1="520" x2="37.5" y2="627"/>
      <circle class="cls-13" cx="19.5" cy="571.5" r="6"/>
      <circle class="cls-13" cx="53.5" cy="571.5" r="6"/>
    </g>
    <g>
      <rect class="cls-1" x="1249.5" y="518.65" width="146" height="107.85"/>
      <line class="cls-12" x1="1322.5" y1="520" x2="1322.5" y2="627"/>
      <circle class="cls-13" cx="1304.5" cy="571.5" r="6"/>
      <circle class="cls-13" cx="1338.5" cy="571.5" r="6"/>
    </g>
  </g>
</svg>
