<svg id="Layer_2" data-name="Layer 2" xmlns="http://www.w3.org/2000/svg" viewBox="0 0 1440 1024"><title>bar-foreground-taps</title><g id="bar-foreground"><g id="cut-floor"><polygon points="1609.43 1035.1 1346.86 1035.1 1288.02 812.12 1529.1 810.74 1609.43 1035.1" fill="#0d0627"/><polygon points="1482.62 1035.11 1346.86 1035.1 1334.32 986.42 1467.22 986.44 1482.62 1035.11" fill="#1b0b52"/><polygon points="1452.46 939.78 1322.32 939.77 1310.79 895 1438.3 895.01 1452.46 939.78" fill="#1b0b52"/><polygon points="1424.7 852.02 1299.71 852.01 1289.08 810.7 1411.63 810.72 1424.7 852.02" fill="#1b0b52"/><polygon points="1565.8 895.02 1438.3 895.01 1424.7 852.02 1549.66 852.04 1565.8 895.02" fill="#1b0b52"/></g><g id="bartender-table"><path d="M1001.52,867.26v10.9L807,877.46c-107.13-.3-234.38-.9-282.78-1.2l-88.27-.7-.13-9.1c0-5-.38-8.5-.76-7.9-.51,1-28.66,1.3-134.51,1.4-73.75.1-152.09.4-174.13.8l-40.12.6L2.23,905C-44,928.86-82.86,948.76-84,949.16c-3.06.9-2.93,1.6,3.31,22.2l5.35,18,40.89.3,40.89.2,1.53,5c1.15,3.7,2.17,5,3.82,5,2.67,0-2-8.2,59.23,103.7,25.09,45.8,46.62,84.2,47.89,85.4l2.29,2.1,228.39-1.3c125.6-.7,395.52-1.2,599.71-1.2l371.19.1,2.67-2.2c1.4-1.2,10.45-17,20.13-35.1,82.8-154.9,81.65-153,84.58-153.3,2.29-.3,3.06-1.4,4.33-5.8l1.53-5.4h81l1.27-3.8c.64-2,3.06-10.2,5.22-18.2s4.33-15.2,4.59-16.2-.64-2.1-2.93-3c-1.91-.8-41.65-20.7-88.15-44.3l-84.45-42.8-173.11.6c-163.94.7-173.11.6-174.26-1C1002,856.86,1001.7,859.36,1001.52,867.26Z" fill="#05002a" stroke="#8c44c1" stroke-miterlimit="1" stroke-width="0.8"/><line x1="-85.12" y1="956.04" x2="1525.87" y2="956.04" fill="none" stroke="#8c44c1" stroke-miterlimit="1" stroke-width="0.8"/></g></g><g id="pipe"><path d="M107.52,905.34c-.17-2.15-3.37-51.82,26.49-89.08,34-42.38,80.24-43.38,82.2-43.4l.3,22.22c-1.39,0-36.13,1.21-62.58,34.21-24.52,30.6-21.38,75.21-21.35,75.66Z" fill="#7b71ff"/><path d="M1353,904.73l-24.53.2,12.26.81-12.26-.79c0-.45,3.18-45.06-21.34-75.66-26.4-32.94-58.28-34.18-59.63-34.21l.42-22.22c1.83,0,45.15,1,79.12,43.4C1356.88,853.52,1353.15,902.58,1353,904.73Z" fill="#7b71ff"/><rect x="214.96" y="772.86" width="1033.04" height="22.22" fill="#7b71ff"/><path d="M1242.94,780.75H215.29a1.12,1.12,0,1,1,0-2.22H1242.94a1.12,1.12,0,1,1,0,2.22Z" fill="#fff"/></g><g id="taps"><g id="tap_0" data-name="tap 0"><circle cx="230.15" cy="782.86" r="17.87" fill="#7b71ff"/><rect x="224.09" y="792.11" width="12.12" height="18.7" fill="#7b71ff"/><path d="M224.1,730.14c0,18.25,2.71,35.22,6.05,35.22s6.05-17,6.05-35.22c0-11.84,0-23.52-1.73-29.35-.93-3.16-3.14-3.69-4.32-3.69a4.23,4.23,0,0,0-4.11,3.2C224.21,706,224.1,717.82,224.1,730.14Z" fill="#55257f"/><g id="beer_front"><rect x="226.54" y="810.81" width="7.27" height="102.93" fill="#eeb000"/><rect id="foam_bottom" x="215.72" y="903.96" width="28.65" height="10.44" fill="#fff"/><g id="beer_full_with_foam" data-name="beer full with foam"><polygon id="beer_full" data-name="beer full" points="244.16 913.74 216.09 913.74 212.78 848.88 247.3 848.88 244.16 913.74" fill="#eeb000"/><rect id="foam_top" data-name="foam top" x="213.17" y="849.87" width="33.43" height="14.08" fill="#fff"/></g><rect id="refl" x="221.11" y="887.27" width="36.28" height="0.88" transform="translate(-659.08 1083.33) rotate(-87.2)" fill="#fff"/><path d="M244.77,914.77h-29.4l-3.27-65.94h35.78Zm-26.52-3h23.62l2.82-59.87H215.28Z" fill="#fff"/></g></g><g id="tap_1" data-name="tap 1"><circle cx="397.65" cy="782.86" r="17.87" fill="#7b71ff"/><rect x="391.59" y="792.11" width="12.12" height="18.7" fill="#7b71ff"/><path d="M391.6,730.14c0,18.25,2.71,35.22,6.05,35.22s6.05-17,6.05-35.22c0-11.84,0-23.52-1.73-29.35-.93-3.16-3.14-3.69-4.32-3.69a4.23,4.23,0,0,0-4.11,3.2C391.72,706,391.6,717.82,391.6,730.14Z" fill="#55257f"/><g id="beer_front-2" data-name="beer_front"><rect x="394.04" y="810.81" width="7.27" height="102.93" fill="#eeb000"/><rect id="foam_bottom-2" data-name="foam_bottom" x="383.23" y="903.96" width="28.65" height="10.44" fill="#fff"/><g id="beer_full_with_foam-2" data-name="beer full with foam"><polygon id="beer_full-2" data-name="beer full" points="411.66 913.74 383.59 913.74 380.28 848.88 414.8 848.88 411.66 913.74" fill="#eeb000"/><rect id="foam_top-2" data-name="foam top" x="380.67" y="849.87" width="33.43" height="14.08" fill="#fff"/></g><rect id="refl-2" data-name="refl" x="388.61" y="887.27" width="36.28" height="0.88" transform="translate(-499.75 1250.64) rotate(-87.2)" fill="#fff"/><path d="M412.28,914.77h-29.4l-3.27-65.94h35.78Zm-26.52-3h23.62l2.82-59.87H382.79Z" fill="#fff"/></g></g><g id="tap_2" data-name="tap 2"><circle cx="563.48" cy="782.86" r="17.87" fill="#7b71ff"/><rect x="557.42" y="792.11" width="12.12" height="18.7" fill="#7b71ff"/><path d="M557.42,730.14c0,18.25,2.71,35.22,6.05,35.22s6.05-17,6.05-35.22c0-11.84,0-23.52-1.73-29.35-.93-3.16-3.14-3.69-4.32-3.69a4.23,4.23,0,0,0-4.11,3.2C557.54,706,557.42,717.82,557.42,730.14Z" fill="#55257f"/><g id="beer_front-3" data-name="beer_front"><rect x="559.87" y="810.81" width="7.27" height="102.93" fill="#eeb000"/><rect id="foam_bottom-3" data-name="foam_bottom" x="549.05" y="903.96" width="28.65" height="10.44" fill="#fff"/><g id="beer_full_with_foam-3" data-name="beer full with foam"><polygon id="beer_full-3" data-name="beer full" points="577.49 913.74 549.41 913.74 546.1 848.88 580.63 848.88 577.49 913.74" fill="#eeb000"/><rect id="foam_top-3" data-name="foam top" x="546.49" y="849.87" width="33.43" height="14.08" fill="#fff"/></g><rect id="refl-3" data-name="refl" x="554.44" y="887.27" width="36.28" height="0.88" transform="translate(-342.03 1416.26) rotate(-87.2)" fill="#fff"/><path d="M578.1,914.77H548.7l-3.27-65.94h35.78Zm-26.52-3h23.62L578,851.86H548.61Z" fill="#fff"/></g></g><g id="tap_3" data-name="tap 3"><circle cx="736.19" cy="782.86" r="17.87" fill="#7b71ff"/><rect x="730.13" y="792.11" width="12.12" height="18.7" fill="#7b71ff"/><path d="M730.14,730.14c0,18.25,2.71,35.22,6.05,35.22s6.05-17,6.05-35.22c0-11.84,0-23.52-1.73-29.35-.93-3.16-3.14-3.69-4.32-3.69a4.23,4.23,0,0,0-4.11,3.2C730.26,706,730.14,717.82,730.14,730.14Z" fill="#55257f"/><g id="beer_front-4" data-name="beer_front"><rect x="732.58" y="810.81" width="7.27" height="102.93" fill="#eeb000"/><rect id="foam_bottom-4" data-name="foam_bottom" x="721.77" y="903.96" width="28.65" height="10.44" fill="#fff"/><g id="beer_full_with_foam-4" data-name="beer full with foam"><polygon id="beer_full-4" data-name="beer full" points="750.2 913.74 722.13 913.74 718.82 848.88 753.35 848.88 750.2 913.74" fill="#eeb000"/><rect id="foam_top-4" data-name="foam top" x="719.21" y="849.87" width="33.43" height="14.08" fill="#fff"/></g><rect id="refl-4" data-name="refl" x="727.15" y="887.27" width="36.28" height="0.88" transform="translate(-177.74 1588.77) rotate(-87.2)" fill="#fff"/><path d="M750.82,914.77h-29.4l-3.27-65.94h35.78Zm-26.52-3h23.62l2.82-59.87H721.33Z" fill="#fff"/></g></g><g id="tap_4" data-name="tap 4"><circle cx="911.34" cy="782.86" r="17.87" fill="#7b71ff"/><rect x="905.28" y="792.11" width="12.12" height="18.7" fill="#7b71ff"/><path d="M905.29,730.14c0,18.25,2.71,35.22,6.05,35.22s6.05-17,6.05-35.22c0-11.84,0-23.52-1.73-29.35-.93-3.16-3.14-3.69-4.32-3.69a4.23,4.23,0,0,0-4.11,3.2C905.4,706,905.29,717.82,905.29,730.14Z" fill="#55257f"/><g id="beer_front-5" data-name="beer_front"><rect x="907.73" y="810.81" width="7.27" height="102.93" fill="#eeb000"/><rect id="foam_bottom-5" data-name="foam_bottom" x="896.91" y="903.96" width="28.65" height="10.44" fill="#fff"/><g id="beer_full_with_foam-5" data-name="beer full with foam"><polygon id="beer_full-5" data-name="beer full" points="925.35 913.74 897.27 913.74 893.96 848.88 928.49 848.88 925.35 913.74" fill="#eeb000"/><rect id="foam_top-5" data-name="foam top" x="894.35" y="849.87" width="33.43" height="14.08" fill="#fff"/></g><rect id="refl-5" data-name="refl" x="902.3" y="887.27" width="36.28" height="0.88" transform="translate(-11.15 1763.71) rotate(-87.2)" fill="#fff"/><path d="M926,914.77h-29.4l-3.27-65.94h35.78Zm-26.52-3h23.62l2.82-59.87H896.47Z" fill="#fff"/></g></g><g id="tap_5" data-name="tap 5"><circle cx="1081.12" cy="782.86" r="17.87" fill="#7b71ff"/><rect x="1075.05" y="792.11" width="12.12" height="18.7" fill="#7b71ff"/><path d="M1075.06,730.14c0,18.25,2.71,35.22,6.05,35.22s6.05-17,6.05-35.22c0-11.84,0-23.52-1.73-29.35-.93-3.16-3.14-3.69-4.32-3.69a4.23,4.23,0,0,0-4.11,3.2C1075.18,706,1075.06,717.82,1075.06,730.14Z" fill="#55257f"/><g id="beer_front-6" data-name="beer_front"><rect x="1077.51" y="810.81" width="7.27" height="102.93" fill="#eeb000"/><rect id="foam_bottom-6" data-name="foam_bottom" x="1066.69" y="903.96" width="28.65" height="10.44" fill="#fff"/><g id="beer_full_with_foam-6" data-name="beer full with foam"><polygon id="beer_full-6" data-name="beer full" points="1095.13 913.74 1067.05 913.74 1063.74 848.88 1098.27 848.88 1095.13 913.74" fill="#eeb000"/><rect id="foam_top-6" data-name="foam top" x="1064.13" y="849.87" width="33.43" height="14.08" fill="#fff"/></g><rect id="refl-6" data-name="refl" x="1072.08" y="887.27" width="36.28" height="0.88" transform="translate(150.34 1933.29) rotate(-87.2)" fill="#fff"/><path d="M1095.74,914.77h-29.4l-3.27-65.94h35.78Zm-26.52-3h23.62l2.82-59.87h-29.42Z" fill="#fff"/></g></g><g id="tap_6" data-name="tap 6"><circle cx="1237.73" cy="782.86" r="17.87" fill="#7b71ff"/><rect x="1231.67" y="792.11" width="12.12" height="18.7" fill="#7b71ff"/><path d="M1231.68,730.14c0,18.25,2.71,35.22,6.05,35.22s6.05-17,6.05-35.22c0-11.84,0-23.52-1.73-29.35-.93-3.16-3.14-3.69-4.32-3.69a4.23,4.23,0,0,0-4.11,3.2C1231.79,706,1231.68,717.82,1231.68,730.14Z" fill="#55257f"/><g id="beer_front-7" data-name="beer_front"><rect x="1234.12" y="810.81" width="7.27" height="102.93" fill="#eeb000"/><rect id="foam_bottom-7" data-name="foam_bottom" x="1223.3" y="903.96" width="28.65" height="10.44" fill="#fff"/><g id="beer_full_with_foam-7" data-name="beer full with foam"><polygon id="beer_full-7" data-name="beer full" points="1251.74 913.74 1223.66 913.74 1220.36 848.88 1254.88 848.88 1251.74 913.74" fill="#eeb000"/><rect id="foam_top-7" data-name="foam top" x="1220.75" y="849.87" width="33.43" height="14.08" fill="#fff"/></g><rect id="refl-7" data-name="refl" x="1228.69" y="887.27" width="36.28" height="0.88" transform="translate(299.31 2089.71) rotate(-87.2)" fill="#fff"/><path d="M1252.35,914.77H1223l-3.27-65.94h35.78Zm-26.52-3h23.62l2.82-59.87h-29.42Z" fill="#fff"/></g></g></g></svg>