<svg id="Layer_1" data-name="Layer 1" xmlns="http://www.w3.org/2000/svg" viewBox="0 0 1440 1024">
  <defs>
    <style>
      .cls-1 {
        fill: #0d0627;
      }

      .cls-2 {
        fill: #1b0b52;
      }

      .cls-3 {
        fill: #05002a;
      }

      .cls-3, .cls-4 {
        stroke: #8c44c1;
        stroke-miterlimit: 1;
        stroke-width: 0.8px;
      }

      .cls-4 {
        fill: none;
      }
    </style>
  </defs>
  <g id="bar-foreground">
    <g id="cut-floor">
      <path class="cls-1" d="M1651.26,1039.66l-323,2q-41.51-110-83-220l291-1Q1593.76,930.16,1651.26,1039.66Z"/>
      <polygon class="cls-2" points="1435.13 1038.71 1327.25 1038.71 1312.78 998.44 1418.23 998.44 1435.13 1038.71"/>
      <polygon class="cls-2" points="1402.07 959.95 1298.95 959.94 1285.72 923.11 1386.61 923.12 1402.07 959.95"/>
      <polygon class="cls-2" points="1523.66 998.45 1418.23 998.44 1402.07 959.95 1505.18 959.95 1523.66 998.45"/>
      <polygon class="cls-2" points="1371.8 887.84 1273.04 887.83 1260.89 854.01 1357.61 854.02 1371.8 887.84"/>
      <polygon class="cls-2" points="1487.49 923.12 1386.61 923.12 1371.8 887.84 1470.56 887.84 1487.49 923.12"/>
      <polygon class="cls-2" points="1454.32 854.03 1357.61 854.02 1343.99 821.57 1438.74 821.58 1454.32 854.03"/>
    </g>
    <g id="bartender-table">
      <path class="cls-3" d="M941,867.26v10.9l-152.7-.7c-84.1-.3-184-.9-222-1.2l-69.3-.7-.1-9.1c0-5-.3-8.5-.6-7.9-.4,1-22.5,1.3-105.6,1.4-57.9.1-119.4.4-136.7.8l-31.5.6-66,43.6c-36.3,23.9-66.8,43.8-67.7,44.2-2.4.9-2.3,1.6,2.6,22.2l4.2,18,32.1.3,32.1.2,1.2,5c.9,3.7,1.7,5,3,5,2.1,0-1.6-8.2,46.5,103.7,19.7,45.8,36.6,84.2,37.6,85.4l1.8,2.1,179.3-1.3c98.6-.7,310.5-1.2,470.8-1.2l291.4.1,2.1-2.2c1.1-1.2,8.2-17,15.8-35.1,65-154.9,64.1-153,66.4-153.3,1.8-.3,2.4-1.4,3.4-5.8l1.2-5.4h63.6l1-3.8c.5-2,2.4-10.2,4.1-18.2s3.4-15.2,3.6-16.2-.5-2.1-2.3-3c-1.5-.8-32.7-20.7-69.2-44.3l-66.3-42.8-135.9.6c-128.7.7-135.9.6-136.8-1C941.34,856.86,941.14,859.36,941,867.26Z"/>
      <line class="cls-4" x1="87.93" y1="956.04" x2="1352.64" y2="956.04"/>
    </g>
  </g>
</svg>
