<svg xmlns="http://www.w3.org/2000/svg" xmlns:xlink="http://www.w3.org/1999/xlink" viewBox="0 0 1440 1024">
  <defs>
    <style>
      .cls-1 {
        isolation: isolate;
      }

      .cls-2 {
        fill: #0d0627;
      }

      .cls-3 {
        fill: #1b0b52;
      }

      .cls-4 {
        fill: #05002a;
      }

      .cls-4, .cls-5 {
        stroke: #4d4d4d;
        stroke-miterlimit: 1;
      }

      .cls-5 {
        fill: none;
      }

      .cls-6 {
        fill: #55257f;
      }

      .cls-7 {
        fill: #42210b;
      }

      .cls-18, .cls-8 {
        fill: #333;
      }

      .cls-9 {
        fill: #a8617f;
      }

      .cls-10 {
        fill: #f5a5c7;
      }

      .cls-11 {
        mask: url(#mask);
      }

      .cls-12 {
        mask: url(#mask-2);
      }

      .cls-13 {
        mix-blend-mode: screen;
      }

      .cls-14 {
        fill: #8c44c1;
      }

      .cls-15 {
        fill: #fff;
      }

      .cls-16 {
        fill: #0c052d;
      }

      .cls-17 {
        fill: #140b89;
        stroke: #93278f;
      }

      .cls-17, .cls-18 {
        stroke-miterlimit: 10;
      }

      .cls-18 {
        stroke: #000;
        stroke-width: 0.5px;
      }

      .cls-19 {
        filter: url(#luminosity-noclip-2);
      }

      .cls-20 {
        filter: url(#luminosity-noclip);
      }
    </style>
    <filter id="luminosity-noclip" x="1075" y="55" width="56" height="19" filterUnits="userSpaceOnUse" color-interpolation-filters="sRGB">
      <feFlood flood-color="#fff" result="bg"/>
      <feBlend in="SourceGraphic" in2="bg"/>
    </filter>
    <mask id="mask" x="1075" y="55" width="56" height="19" maskUnits="userSpaceOnUse">
      <g class="cls-20">
        <image width="56" height="19" transform="translate(1075 55)" xlink:href="bar-background1.png"/>
      </g>
    </mask>
    <filter id="luminosity-noclip-2" x="1054" y="21" width="24" height="47" filterUnits="userSpaceOnUse" color-interpolation-filters="sRGB">
      <feFlood flood-color="#fff" result="bg"/>
      <feBlend in="SourceGraphic" in2="bg"/>
    </filter>
    <mask id="mask-2" x="1054" y="21" width="24" height="47" maskUnits="userSpaceOnUse">
      <g class="cls-19">
        <image width="24" height="47" transform="translate(1054 21)" xlink:href="bar-background2.png"/>
      </g>
    </mask>
  </defs>
  <g class="cls-1">
    <g id="Layer_1" data-name="Layer 1">
      <g id="bar-background">
        <rect id="wall" class="cls-2" x="-3" y="-5" width="1448" height="1021"/>
        <g id="floor">
          <polygon class="cls-2" points="1779.69 573.11 -276 573.09 -44.95 243 1521.14 243.21 1779.69 573.11"/>
          <polygon class="cls-3" points="25 261.75 -58.06 261.74 -44.95 243 36.67 243.01 25 261.75"/>
          <polygon class="cls-3" points="97.46 281.19 12.9 281.18 25 261.75 108.05 261.76 97.46 281.19"/>
          <polygon class="cls-3" points="172.59 301.33 86.48 301.32 97.46 281.19 182.01 281.19 172.59 301.33"/>
          <polygon class="cls-3" points="250.53 322.23 162.81 322.22 172.59 301.33 258.69 301.34 250.53 322.23"/>
          <polygon class="cls-3" points="331.45 343.93 242.06 343.92 250.53 322.23 338.25 322.24 331.45 343.93"/>
          <polygon class="cls-3" points="415.52 366.47 324.39 366.46 331.45 343.93 420.83 343.94 415.52 366.47"/>
          <polygon class="cls-3" points="502.92 389.9 409.99 389.9 415.52 366.47 506.64 366.48 502.92 389.9"/>
          <polygon class="cls-3" points="593.86 414.29 499.05 414.28 502.92 389.9 595.84 389.91 593.86 414.29"/>
          <polygon class="cls-3" points="688.55 439.68 591.79 439.68 593.86 414.29 688.66 414.3 688.55 439.68"/>
          <polygon class="cls-3" points="787.24 466.14 688.44 466.14 688.55 439.68 785.31 439.69 787.24 466.14"/>
          <polygon class="cls-3" points="890.19 493.75 789.26 493.74 787.24 466.14 886.04 466.15 890.19 493.75"/>
          <polygon class="cls-3" points="997.67 522.57 894.52 522.57 890.19 493.75 991.11 493.75 997.67 522.57"/>
          <polygon class="cls-3" points="1109.98 552.68 1004.52 552.68 997.67 522.57 1100.81 522.57 1109.98 552.68"/>
          <polygon class="cls-3" points="1227.48 584.19 1119.59 584.19 1109.98 552.68 1215.44 552.69 1227.48 584.19"/>
          <polygon class="cls-3" points="0.37 301.31 -85.75 301.3 -71.66 281.17 12.9 281.18 0.37 301.31"/>
          <polygon class="cls-3" points="75.09 322.21 -12.64 322.2 0.37 301.31 86.48 301.32 75.09 322.21"/>
          <polygon class="cls-3" points="152.66 343.91 63.26 343.9 75.09 322.21 162.81 322.22 152.66 343.91"/>
          <polygon class="cls-3" points="233.26 366.45 142.12 366.44 152.66 343.91 242.06 343.92 233.26 366.45"/>
          <polygon class="cls-3" points="317.05 389.89 224.1 389.88 233.26 366.45 324.39 366.46 317.05 389.89"/>
          <polygon class="cls-3" points="404.23 414.28 309.41 414.27 317.05 389.89 409.99 389.9 404.23 414.28"/>
          <polygon class="cls-3" points="495.01 439.67 398.24 439.66 404.23 414.28 499.05 414.28 495.01 439.67"/>
          <polygon class="cls-3" points="589.63 466.13 490.81 466.13 495.01 439.67 591.79 439.68 589.63 466.13"/>
          <polygon class="cls-3" points="688.32 493.74 587.38 493.74 589.63 466.13 688.44 466.14 688.32 493.74"/>
          <polygon class="cls-3" points="791.36 522.56 688.2 522.56 688.32 493.74 789.26 493.74 791.36 522.56"/>
          <polygon class="cls-3" points="899.05 552.68 793.56 552.68 791.36 522.56 894.52 522.57 899.05 552.68"/>
          <polygon class="cls-3" points="1011.69 584.19 903.78 584.19 899.05 552.68 1004.52 552.68 1011.69 584.19"/>
          <polygon class="cls-3" points="50.97 366.44 -40.18 366.43 -26.15 343.89 63.26 343.9 50.97 366.44"/>
          <polygon class="cls-3" points="131.15 389.88 38.19 389.87 50.97 366.44 142.12 366.44 131.15 389.88"/>
          <polygon class="cls-3" points="214.58 414.26 119.74 414.26 131.15 389.88 224.1 389.88 214.58 414.26"/>
          <polygon class="cls-3" points="301.45 439.66 204.66 439.65 214.58 414.26 309.41 414.27 301.45 439.66"/>
          <polygon class="cls-3" points="391.99 466.13 293.16 466.12 301.45 439.66 398.24 439.66 391.99 466.13"/>
          <polygon class="cls-3" points="486.43 493.73 385.47 493.73 391.99 466.13 490.81 466.13 486.43 493.73"/>
          <polygon class="cls-3" points="585.03 522.55 481.85 522.55 486.43 493.73 587.38 493.74 585.03 522.55"/>
          <polygon class="cls-3" points="688.07 552.68 582.58 552.67 585.03 522.55 688.2 522.56 688.07 552.68"/>
          <polygon class="cls-3" points="795.87 584.19 687.94 584.19 688.07 552.68 793.56 552.68 795.87 584.19"/>
          <polygon class="cls-3" points="24.9 414.25 -69.95 414.24 -54.77 389.86 38.19 389.87 24.9 414.25"/>
          <polygon class="cls-3" points="107.86 439.65 11.05 439.64 24.9 414.25 119.74 414.26 107.86 439.65"/>
          <polygon class="cls-3" points="194.32 466.12 95.47 466.11 107.86 439.65 204.66 439.65 194.32 466.12"/>
          <polygon class="cls-3" points="284.51 493.72 183.53 493.72 194.32 466.12 293.16 466.12 284.51 493.72"/>
          <polygon class="cls-3" points="378.67 522.55 275.47 522.55 284.51 493.72 385.47 493.73 378.67 522.55"/>
          <polygon class="cls-3" points="477.07 552.67 371.56 552.67 378.67 522.55 481.85 522.55 477.07 552.67"/>
          <polygon class="cls-3" points="580.01 584.19 472.07 584.18 477.07 552.67 582.58 552.67 580.01 584.19"/>
          <polygon class="cls-3" points="-3.38 466.11 -102.24 466.1 -85.76 439.63 11.05 439.64 -3.38 466.11"/>
          <polygon class="cls-3" points="82.55 493.72 -18.43 493.71 -3.38 466.11 95.47 466.11 82.55 493.72"/>
          <polygon class="cls-3" points="172.27 522.54 69.06 522.54 82.55 493.72 183.53 493.72 172.27 522.54"/>
          <polygon class="cls-3" points="266.03 552.67 160.5 552.67 172.27 522.54 275.47 522.55 266.03 552.67"/>
          <polygon class="cls-3" points="364.12 584.18 256.16 584.18 266.03 552.67 371.56 552.67 364.12 584.18"/>
          <polygon class="cls-3" points="54.97 552.66 -50.58 552.66 -34.15 522.54 69.06 522.54 54.97 552.66"/>
          <polygon class="cls-3" points="148.19 584.18 40.22 584.18 54.97 552.66 160.5 552.67 148.19 584.18"/>
          <polygon class="cls-3" points="191.1 261.77 108.05 261.76 118.27 243.02 199.87 243.03 191.1 261.77"/>
          <polygon class="cls-3" points="266.56 281.2 182.01 281.19 191.1 261.77 274.15 261.79 266.56 281.2"/>
          <polygon class="cls-3" points="344.79 301.35 258.69 301.34 266.56 281.2 351.1 281.21 344.79 301.35"/>
          <polygon class="cls-3" points="425.96 322.25 338.25 322.24 344.79 301.35 430.89 301.36 425.96 322.25"/>
          <polygon class="cls-3" points="510.21 343.94 420.83 343.94 425.96 322.25 513.66 322.26 510.21 343.94"/>
          <polygon class="cls-3" points="597.75 366.49 506.64 366.48 510.21 343.94 599.59 343.95 597.75 366.49"/>
          <polygon class="cls-3" points="688.76 389.92 595.84 389.91 597.75 366.49 688.86 366.49 688.76 389.92"/>
          <polygon class="cls-3" points="783.46 414.3 688.66 414.3 688.76 389.92 781.67 389.93 783.46 414.3"/>
          <polygon class="cls-3" points="882.06 439.69 785.31 439.69 783.46 414.3 878.25 414.31 882.06 439.69"/>
          <polygon class="cls-3" points="984.83 466.15 886.04 466.15 882.06 439.69 978.81 439.7 984.83 466.15"/>
          <polygon class="cls-3" points="1092.02 493.76 991.11 493.75 984.83 466.15 1083.61 466.16 1092.02 493.76"/>
          <polygon class="cls-3" points="1203.94 522.57 1100.81 522.57 1092.02 493.76 1192.93 493.76 1203.94 522.57"/>
          <polygon class="cls-3" points="1320.89 552.69 1215.44 552.69 1203.94 522.57 1307.06 522.58 1320.89 552.69"/>
          <polygon class="cls-3" points="1443.24 584.19 1335.36 584.19 1320.89 552.69 1426.33 552.69 1443.24 584.19"/>
          <polygon class="cls-3" points="357.19 261.8 274.15 261.79 281.47 243.04 363.06 243.05 357.19 261.8"/>
          <polygon class="cls-3" points="435.64 281.23 351.1 281.21 357.19 261.8 440.23 261.81 435.64 281.23"/>
          <polygon class="cls-3" points="516.98 301.37 430.89 301.36 435.64 281.23 520.17 281.24 516.98 301.37"/>
          <polygon class="cls-3" points="601.36 322.27 513.66 322.26 516.98 301.37 603.06 301.38 601.36 322.27"/>
          <polygon class="cls-3" points="688.96 343.96 599.59 343.95 601.36 322.27 689.05 322.27 688.96 343.96"/>
          <polygon class="cls-3" points="779.96 366.5 688.86 366.49 688.96 343.96 778.32 343.97 779.96 366.5"/>
          <polygon class="cls-3" points="874.58 389.93 781.67 389.93 779.96 366.5 871.06 366.51 874.58 389.93"/>
          <polygon class="cls-3" points="973.03 414.31 878.25 414.31 874.58 389.93 967.48 389.94 973.03 414.31"/>
          <polygon class="cls-3" points="1075.54 439.7 978.81 439.7 973.03 414.31 1067.81 414.32 1075.54 439.7"/>
          <polygon class="cls-3" points="1182.38 466.16 1083.61 466.16 1075.54 439.7 1172.28 439.71 1182.38 466.16"/>
          <polygon class="cls-3" points="1293.83 493.76 1192.93 493.76 1182.38 466.16 1281.15 466.17 1293.83 493.76"/>
          <polygon class="cls-3" points="1410.18 522.58 1307.06 522.58 1293.83 493.76 1394.72 493.77 1410.18 522.58"/>
          <polygon class="cls-3" points="1531.77 552.69 1426.33 552.69 1410.18 522.58 1513.29 522.58 1531.77 552.69"/>
          <polygon class="cls-3" points="523.26 261.82 440.23 261.81 444.65 243.06 526.23 243.07 523.26 261.82"/>
          <polygon class="cls-3" points="604.7 281.25 520.17 281.24 523.26 261.82 606.28 261.83 604.7 281.25"/>
          <polygon class="cls-3" points="689.13 301.39 603.06 301.38 604.7 281.25 689.22 281.25 689.13 301.39"/>
          <polygon class="cls-3" points="776.73 322.28 689.05 322.27 689.13 301.39 775.21 301.4 776.73 322.28"/>
          <polygon class="cls-3" points="867.67 343.98 778.32 343.97 776.73 322.28 864.41 322.29 867.67 343.98"/>
          <polygon class="cls-3" points="962.15 366.52 871.06 366.51 867.67 343.98 957.02 343.99 962.15 366.52"/>
          <polygon class="cls-3" points="1060.38 389.95 967.48 389.94 962.15 366.52 1053.23 366.52 1060.38 389.95"/>
          <polygon class="cls-3" points="1162.58 414.33 1067.81 414.32 1060.38 389.95 1153.26 389.96 1162.58 414.33"/>
          <polygon class="cls-3" points="1269 439.72 1172.28 439.71 1162.58 414.33 1257.34 414.33 1269 439.72"/>
          <polygon class="cls-3" points="1379.91 466.17 1281.15 466.17 1269 439.72 1365.72 439.72 1379.91 466.17"/>
          <polygon class="cls-3" points="1495.6 493.77 1394.72 493.77 1379.91 466.17 1478.66 466.18 1495.6 493.77"/>
          <polygon class="cls-3" points="689.3 261.84 606.28 261.83 607.81 243.09 689.38 243.1 689.3 261.84"/>
          <polygon class="cls-3" points="773.74 281.26 689.22 281.25 689.3 261.84 772.32 261.85 773.74 281.26"/>
          <polygon class="cls-3" points="861.27 301.41 775.21 301.4 773.74 281.26 858.25 281.27 861.27 301.41"/>
          <polygon class="cls-3" points="952.09 322.3 864.41 322.29 861.27 301.41 947.34 301.42 952.09 322.3"/>
          <polygon class="cls-3" points="1046.37 344 957.02 343.99 952.09 322.3 1039.76 322.31 1046.37 344"/>
          <polygon class="cls-3" points="1144.31 366.53 1053.23 366.52 1046.37 344 1135.71 344 1144.31 366.53"/>
          <polygon class="cls-3" points="1246.15 389.96 1153.26 389.96 1144.31 366.53 1235.39 366.54 1246.15 389.96"/>
          <polygon class="cls-3" points="1352.1 414.34 1257.34 414.33 1246.15 389.96 1339.02 389.97 1352.1 414.34"/>
          <polygon class="cls-3" points="1462.43 439.73 1365.72 439.72 1352.1 414.34 1446.85 414.35 1462.43 439.73"/>
          <polygon class="cls-3" points="855.33 261.86 772.32 261.85 770.95 243.11 852.51 243.12 855.33 261.86"/>
          <polygon class="cls-3" points="942.75 281.29 858.25 281.27 855.33 261.86 938.33 261.87 942.75 281.29"/>
          <polygon class="cls-3" points="1033.39 301.43 947.34 301.42 942.75 281.29 1027.25 281.3 1033.39 301.43"/>
          <polygon class="cls-3" points="1127.42 322.32 1039.76 322.31 1033.39 301.43 1119.44 301.44 1127.42 322.32"/>
          <polygon class="cls-3" points="1225.04 344.01 1135.71 344 1127.42 322.32 1215.08 322.33 1225.04 344.01"/>
          <polygon class="cls-3" points="1326.45 366.55 1235.39 366.54 1225.04 344.01 1314.37 344.02 1326.45 366.55"/>
          <polygon class="cls-3" points="1431.89 389.98 1339.02 389.97 1326.45 366.55 1417.51 366.56 1431.89 389.98"/>
          <polygon class="cls-3" points="1541.59 414.36 1446.85 414.35 1431.89 389.98 1524.75 389.99 1541.59 414.36"/>
          <polygon class="cls-3" points="1021.34 261.88 938.33 261.87 934.07 243.13 1015.62 243.14 1021.34 261.88"/>
          <polygon class="cls-3" points="1111.75 281.31 1027.25 281.3 1021.34 261.88 1104.33 261.89 1111.75 281.31"/>
          <polygon class="cls-3" points="1205.49 301.44 1119.44 301.44 1111.75 281.31 1196.24 281.31 1205.49 301.44"/>
          <polygon class="cls-3" points="1302.73 322.34 1215.08 322.33 1205.49 301.44 1291.53 301.45 1302.73 322.34"/>
          <polygon class="cls-3" points="1403.69 344.03 1314.37 344.02 1302.73 322.34 1390.38 322.35 1403.69 344.03"/>
          <polygon class="cls-3" points="1508.57 366.56 1417.51 366.56 1403.69 344.03 1493 344.04 1508.57 366.56"/>
          <polygon class="cls-3" points="1187.32 261.9 1104.33 261.89 1097.17 243.15 1178.71 243.16 1187.32 261.9"/>
          <polygon class="cls-3" points="1280.72 281.32 1196.24 281.31 1187.32 261.9 1270.31 261.91 1280.72 281.32"/>
          <polygon class="cls-3" points="1377.56 301.46 1291.53 301.45 1280.72 281.32 1365.2 281.33 1377.56 301.46"/>
          <polygon class="cls-3" points="1478.02 322.36 1390.38 322.35 1377.56 301.46 1463.59 301.47 1478.02 322.36"/>
          <polygon class="cls-3" points="1359.93 261.92 1276.95 261.91 1266.78 243.17 1348.31 243.18 1359.93 261.92"/>
          <polygon class="cls-3" points="1456.44 281.35 1371.96 281.33 1359.93 261.92 1442.9 261.93 1456.44 281.35"/>
          <polygon class="cls-3" points="1525.87 261.94 1442.9 261.93 1429.84 243.19 1511.36 243.21 1525.87 261.94"/>
        </g>
        <g>
          <rect class="cls-4" x="90" y="-13" width="132" height="155"/>
          <line class="cls-5" x1="154.5" y1="1.5" x2="154.5" y2="141.5"/>
        </g>
        <g>
          <rect class="cls-4" x="268" y="-13" width="132" height="155"/>
          <line class="cls-5" x1="332.5" y1="1.5" x2="332.5" y2="141.5"/>
        </g>
        <g>
          <rect class="cls-4" x="1176" y="-11" width="132" height="155"/>
          <line class="cls-5" x1="1240.5" y1="3.5" x2="1240.5" y2="143.5"/>
        </g>
        <g>
          <rect class="cls-4" x="1354" y="-11" width="132" height="155"/>
          <line class="cls-5" x1="1418.5" y1="3.5" x2="1418.5" y2="143.5"/>
        </g>
        <g id="chair">
          <path class="cls-6" d="M1250.5,237H1212V188.5a12,12,0,0,0-12-12h-17.5a12,12,0,0,0-12,12v57.1a12,12,0,0,0-.5,3.4v17.5a12,12,0,0,0,12,12h68.5a12,12,0,0,0,12-12V249A12,12,0,0,0,1250.5,237Z"/>
          <path class="cls-3" d="M1253.5,237H1215V188.5a12,12,0,0,0-12-12h-17.5a12,12,0,0,0-12,12v57.1a12,12,0,0,0-.5,3.4v17.5a12,12,0,0,0,12,12h68.5a12,12,0,0,0,12-12V249A12,12,0,0,0,1253.5,237Z"/>
        </g>
        <g>
          <path class="cls-6" d="M1369,238h38.5V189.5a12,12,0,0,1,12-12H1437a12,12,0,0,1,12,12v57.1a12,12,0,0,1,.5,3.4v17.5a12,12,0,0,1-12,12H1369a12,12,0,0,1-12-12V250A12,12,0,0,1,1369,238Z"/>
          <path class="cls-3" d="M1373,241h38.5V192.5a12,12,0,0,1,12-12H1441a12,12,0,0,1,12,12v57.1a12,12,0,0,1,.5,3.4v17.5a12,12,0,0,1-12,12H1373a12,12,0,0,1-12-12V253A12,12,0,0,1,1373,241Z"/>
        </g>
        <rect class="cls-7" x="1303.06" y="168.25" width="15" height="92.5" rx="7.5" transform="translate(1525.06 -1096.06) rotate(90)"/>
        <rect class="cls-8" x="1306.44" y="222" width="8.25" height="52" transform="translate(2621.12 496) rotate(-180)"/>
        <g>
          <polygon class="cls-9" points="1058.04 35.55 1041.33 35.55 1038.94 30.78 1042.52 26 1056.84 26 1058.04 35.55"/>
          <rect class="cls-9" x="1046.1" y="31.97" width="11.93" height="3.58"/>
          <path class="cls-9" d="M1124.87,71.35h-38.64a10.28,10.28,0,0,1-10.29-10.29V56.58a10.29,10.29,0,0,1,10.29-10.29h32.67l-2.39,9.55-4.77,6Z"/>
          <path class="cls-10" d="M1117.71,53.45a7.15,7.15,0,0,1-7.16-7.16h8.35Z"/>
          <g class="cls-11">
            <path class="cls-10" d="M1084.29,71.35a7.16,7.16,0,1,1,0-14.32h25.06l19.1,14.32Z"/>
          </g>
          <g class="cls-12">
            <path class="cls-10" d="M1071.16,59.42V33.16l-.46.12a6.94,6.94,0,0,0,.46-2.5,7.16,7.16,0,1,0-7.16,7.16,7,7,0,0,0,2.39-.42V63l4.77,2.39h4.78v-6Z"/>
          </g>
          <g>
            <image class="cls-13" width="76" height="86" transform="translate(1055 43)" xlink:href="bar-background3.png"/>
            <polygon class="cls-14" points="1100 86.02 1100 73.74 1097.22 73.74 1097.22 82.94 1094.04 82.63 1094.04 73.74 1091.25 73.74 1091.25 82.35 1085.29 81.75 1085.29 88.06 1088.07 88.06 1088.07 84.83 1091.25 85.14 1091.25 96.22 1085.48 96.22 1085.48 99 1096.22 99 1096.22 96.22 1094.04 96.22 1094.04 85.42 1100 86.02"/>
          </g>
          <rect class="cls-14" x="1095.03" y="65.19" width="27.45" height="2.78"/>
          <rect class="cls-14" x="1086.68" y="55.64" width="22.68" height="2.78"/>
          <path class="cls-14" d="M1115.32,53.65a5,5,0,0,1-5-5h2.78a2.19,2.19,0,0,0,2.19,2.19Z"/>
          <g>
            <image class="cls-13" width="152" height="111" transform="translate(1007 -8)" xlink:href="bar-background4.png"/>
            <path class="cls-14" d="M1085.58,69.83a8.26,8.26,0,0,1-8.25-8.25V55.94a8.27,8.27,0,0,1,8.25-8.26h31.88a19.92,19.92,0,0,1-5.75,12.74h-20.26V63.2h25.06V60.42h-1.1a22.62,22.62,0,0,0,4.88-14.13V44.9h-34.71a11,11,0,0,0-11,11v2.29a1,1,0,0,1-2,0V30.78a8.55,8.55,0,0,0-14.47-6.17h-13.17a7.36,7.36,0,0,0,0,14.72v0a5.65,5.65,0,0,0,.59,0V36.55a1.6,1.6,0,0,1,0-3.19h10.35c.09.27.19.54.3.8H1046.1v2.78h12a8.53,8.53,0,0,0,5.92,2.39h1V60.61a6.17,6.17,0,0,0,6.16,6.17h4.69a11,11,0,0,0,9.73,5.83l42.86.13V70Zm-44.43-35.26a4.49,4.49,0,0,1-.82-2.6,4.59,4.59,0,0,1,4.58-4.58h11.24a8.52,8.52,0,0,0-.69,3.19h-10A4.37,4.37,0,0,0,1041.15,34.57Zm30,29.43a3.39,3.39,0,0,1-3.38-3.39V36.55H1064a5.77,5.77,0,1,1,5.77-5.77V58.23a3.78,3.78,0,0,0,3.78,3.77,3.66,3.66,0,0,0,1-.14,10.8,10.8,0,0,0,.27,2.14Z"/>
          </g>
          <rect class="cls-15" x="1062.81" y="28.19" width="2.39" height="2.78"/>
        </g>
        <g id="tree">
          <g>
            <g>
              <path class="cls-6" d="M479.26,107.9l.8.41-.34.1-1.13.34s0,0,0,0c0-.18.07-.36.11-.57s.05-.25.08-.38l.31-.28c.22.05.45.11.69.19l-.4-.09A2.05,2.05,0,0,1,479.26,107.9Z"/>
              <path class="cls-6" d="M483.22,107.43l-.44.11-1.14.32-.49.14a1.17,1.17,0,0,0-.2.06l-.47-.17h-.05l-.06-.34,0-.11a.31.31,0,0,0-.09-.07s0,.07,0,.09c-.2-.09-.42-.19-.65-.31,0,0,0-.07,0-.11l.12-.1s.05,0,.06-.06l.47-.37a3.11,3.11,0,0,1,.28-.23c.33-.27.69-.53,1.07-.8,0,0,0,0,0,0l.54-.36c-.07.32-.13.64-.18.94a2.39,2.39,0,0,0,.13.21c.23.42.45.81.65,1.19Z"/>
              <path class="cls-6" d="M475,107.57a24.28,24.28,0,0,1,2.6.37c.34.32.67.66,1,1C477.59,108.51,476.38,108,475,107.57Z"/>
              <path class="cls-6" d="M478.54,108.72c0-.18.07-.36.11-.57-.33-.07-.68-.15-1-.21l-.62-.62c.05-.08.1-.18.15-.28.5.29.78.41.84.32s0,0,0-.1c.33.06.68.14,1.07.23.22.05.45.11.69.19l-.4-.09a2.05,2.05,0,0,1-.07.31l.8.41.44-.13h0a1.11,1.11,0,0,0,0,.19l0,.23a.24.24,0,0,0,0,.08l-.88-.26-1.13.34S478.56,108.73,478.54,108.72Z"/>
              <path class="cls-6" d="M479.48,106.79a73.28,73.28,0,0,0-8.32-5,29,29,0,0,1,8.26,4.86l.31.26.53.48h0s0,.07,0,.09c-.2-.09-.42-.19-.65-.31,0,0,0-.07,0-.11A2.17,2.17,0,0,1,479.48,106.79Z"/>
              <path class="cls-6" d="M480.37,107.54l0-.11a.34.34,0,0,0,.09.08v0c0,.13,0,.25,0,.36h-.05Z"/>
              <path class="cls-6" d="M477.61,107.94c.34.32.67.66,1,1-1-.45-2.24-.94-3.61-1.39A24.28,24.28,0,0,1,477.61,107.94Z"/>
              <path class="cls-6" d="M478.59,108.75s0,0,0,0c0-.18.07-.36.11-.57.38.08.73.17,1.07.26Z"/>
              <path class="cls-6" d="M480.53,109.2a4,4,0,0,1-.15-.79h0l0,0-.33-.07-.22,0C475.12,112.17,458.6,133,454,161.62c-4.52,27.81,4,51.81,5.5,51.64s-4-22,1.42-51.83C466,133.12,477.93,114.48,480.53,109.2Z"/>
              <path class="cls-6" d="M480.78,104.23q-.12,1.13-.3,2c-.05.33-.12.63-.18.91,0,.06,0,.11,0,.17h0s0,.07,0,.09c-.2-.09-.42-.19-.65-.31,0,0,0-.07,0-.11a2.17,2.17,0,0,1-.07-.24,1.27,1.27,0,0,1-.06-.18l.31.26.47-.37a26.53,26.53,0,0,1-.28-3.42C480.23,103.47,480.52,103.85,480.78,104.23Z"/>
              <path class="cls-6" d="M482.78,107.54l.44-.11a17.27,17.27,0,0,1,6.34,1.42c4.35,1.89,6.82,5.22,9.19,9,7.29,11.5,11.53,23.66,10.81,23.94s-3.12-10.05-12.66-20.55A57.52,57.52,0,0,0,489,114a25.73,25.73,0,0,1,3.63,8.58c3.54,13.14,4,26,3.22,26.06s0-10.51-6-23.37a59.76,59.76,0,0,0-9.59-14.49,34.44,34.44,0,0,0-20,6.44c-10.77,7.85-14.58,20.32-15.23,19.37s2.41-16.53,12.21-24.23A24.45,24.45,0,0,1,475,107.57c1.37.45,2.58.94,3.61,1.39-.34-.36-.67-.7-1-1,.36.06.71.14,1,.21,0,.21-.08.39-.11.57,0,0,0,0,0,0l1.13-.34.88.26a.24.24,0,0,1,0-.08l0-.23a1.11,1.11,0,0,1,0-.19h0l-.44.13-.8-.41a2.05,2.05,0,0,0,.07-.31l.4.09c-.24-.08-.47-.14-.69-.19-.39-.09-.74-.17-1.07-.23,0,0,0,.08,0,.1s-.34,0-.84-.32c-.05.1-.1.2-.15.28l.62.62a24.28,24.28,0,0,0-2.6-.37,33.13,33.13,0,0,0-16.69-1.22c-13.1,2.42-21.93,12-22.11,10.87s9.32-13.86,21.48-16.57a23.22,23.22,0,0,1,13.47,1.1,73.28,73.28,0,0,1,8.32,5,2.17,2.17,0,0,0,.07.24s0,.08,0,.11c.23.12.45.22.65.31,0,0,0-.06,0-.09a.31.31,0,0,1,.09.07l0,.11.06.34h.05l.47.17.27.09.31.13c-.06-.06-.15-.11-.22-.17l.31-.15a.36.36,0,0,1,0-.1Z"/>
              <path class="cls-6" d="M523.44,108.16c-.22.74-10.06-3.67-24.38-3.12a73.89,73.89,0,0,0-15.84,2.39h-.5c-.2-.38-.42-.77-.65-1.19a2.39,2.39,0,0,1-.13-.21c.05-.3.11-.62.18-.94l-.54.36v0c-.24-.38-.5-.78-.79-1.19s-.55-.76-.86-1.15a26.53,26.53,0,0,0,.28,3.42l-.47.37-.31-.26a29,29,0,0,0-8.26-4.86,68.79,68.79,0,0,0-8.8-3.82c-13.07-4.61-22-3.74-21.93-4.41.05-1.1,23.51-5.7,36.72,6.53l.1.1a70,70,0,0,0-7.38-14.23c-7.76-11.49-15.43-16.07-15-16.59.69-.86,22.3,9.4,25.64,27.09,0,.19.07.38.1.58a21.32,21.32,0,0,1,1.79-4.79c3.26-6.36,8.71-9.27,12.78-11.44,3.75-2,8.2-3.56,8.53-3,.49.92-9.54,4.83-16.07,14.19a33.8,33.8,0,0,0-4.68,9.82,23.12,23.12,0,0,1,7.58-9.16c5.86-4.1,12-4.14,16.65-4.16,4.25,0,8.91.68,8.92,1.37,0,1-10.69-.17-20.82,5.05a35,35,0,0,0-10.74,8.72,24.13,24.13,0,0,1,4.41-1.74c3.75-1.06,7.06-1,11.26-.46C512.64,103,523.68,107.38,523.44,108.16Z"/>
              <path class="cls-6" d="M482.78,107.54l-1.14.32a.36.36,0,0,0,0,.1l-.31.15c-.05,0-.1-.08-.16-.11l-.64-.48h0l-.15-.11s-.05,0-.09,0h0c-.18-.14-.39-.27-.59-.42a2.31,2.31,0,0,1-.19-.14,73.28,73.28,0,0,0-8.32-5,29,29,0,0,1,8.26,4.86l.31.26.47-.37a26.53,26.53,0,0,1-.28-3.42c.31.39.6.77.86,1.15s.55.81.79,1.19v0c.13.2.25.39.36.58a2.39,2.39,0,0,0,.13.21c.23.42.45.81.65,1.19A.67.67,0,0,0,482.78,107.54Z"/>
              <path class="cls-6" d="M480.53,108.17a1.11,1.11,0,0,0,0,.19h0s0-.11,0-.17Z"/>
              <path class="cls-6" d="M482.12,105.08c-.07.32-.13.64-.18.94a.79.79,0,0,0,0,.2c-.07.42-.14.82-.2,1.22l-.06.42a.36.36,0,0,0,0,.1l-.31.15-.09,0-.27-.09-.47-.17h-.05l-.06-.34,0-.11v0l-.05-.23c0-.21-.07-.44-.1-.68a26.53,26.53,0,0,1-.28-3.42c.31.39.6.77.86,1.15s.55.81.79,1.19v0Z"/>
              <path class="cls-6" d="M481.94,106a2.39,2.39,0,0,0,.13.21h-.62a1,1,0,0,0-.08-.14c.05-.18.11-.39.18-.62,0,0,0,0,0,0v0l.54-.36C482.05,105.4,482,105.72,481.94,106Z"/>
              <path class="cls-6" d="M480.55,108.36l0,.23-.52-.28.44-.13h0A1.11,1.11,0,0,0,480.55,108.36Z"/>
              <path class="cls-6" d="M483.22,107.43l-.44.11-1.14.32a.36.36,0,0,0,0,.1l-.31.15c.07.06.16.11.22.17l-.31-.13-.27-.09-.47-.17h-.05l-.06-.34h.14c.36,0,.77-.07,1.19-.08s.66,0,1,0Z"/>
              <path class="cls-6" d="M480.6,108.67l-.88-.26-1.13.34s0,0,0,0c0-.18.07-.36.11-.57-.33-.07-.68-.15-1-.21l-.62-.62c.05-.08.1-.18.15-.28.5.29.78.41.84.32s0,0,0-.1c.33.06.68.14,1.07.23.22.05.45.11.69.19l-.4-.09a2.05,2.05,0,0,1-.07.31l.8.41.44-.13h0a1.11,1.11,0,0,0,0,.19l0,.23A.24.24,0,0,0,480.6,108.67Z"/>
            </g>
            <g>
              <path class="cls-3" d="M481.92,103.54l.95.44-.39.13-1.29.44-.07,0c0-.2.07-.42.11-.66s0-.29.08-.44l.34-.34c.26.05.53.11.81.19l-.47-.08A3.29,3.29,0,0,1,481.92,103.54Z"/>
              <path class="cls-3" d="M486.48,102.83l-.5.15-1.31.41-.56.18-.23.08-.54-.17h-.06l-.09-.4,0-.12a.39.39,0,0,0-.1-.08s0,.08,0,.11l-.77-.33a1.12,1.12,0,0,0,0-.13l.14-.12a.46.46,0,0,1,.07-.07c.17-.15.34-.31.52-.45s.21-.19.32-.28c.37-.32.77-.64,1.2-1l0,0c.19-.15.39-.29.6-.44-.06.37-.12.74-.17,1.09l.16.24c.29.47.56.92.8,1.35Z"/>
              <path class="cls-3" d="M477,103.33a30.3,30.3,0,0,1,3,.32c.4.36.8.74,1.21,1.14A44.8,44.8,0,0,0,477,103.33Z"/>
              <path class="cls-3" d="M481.12,104.51c0-.2.07-.42.11-.66l-1.21-.2q-.37-.36-.75-.69c.06-.1.11-.21.17-.33.59.31.92.44,1,.34s0-.06,0-.12c.38.06.79.13,1.24.22.26.05.53.11.81.19l-.47-.08a3.29,3.29,0,0,1-.07.36l.95.44.5-.17h0l0,.22c0,.09,0,.18.05.26a.29.29,0,0,0,0,.09l-1-.26-1.29.44Z"/>
              <path class="cls-3" d="M482.13,102.24a84.78,84.78,0,0,0-9.83-5.48,33.68,33.68,0,0,1,9.76,5.28l.37.29.63.53h0s0,.08,0,.11l-.77-.33a1.12,1.12,0,0,0,0-.13Z"/>
              <path class="cls-3" d="M483.19,103.07l0-.12.11.09v0c0,.15.05.29.07.42h-.06Z"/>
              <path class="cls-3" d="M480,103.65c.4.36.8.74,1.21,1.14a44.8,44.8,0,0,0-4.24-1.46A30.3,30.3,0,0,1,480,103.65Z"/>
              <path class="cls-3" d="M481.19,104.55l-.07,0c0-.2.07-.42.11-.66.44.08.85.17,1.25.26Z"/>
              <path class="cls-3" d="M483.44,105a4.94,4.94,0,0,1-.2-.91h0l-.05,0-.39-.07-.25,0c-5.24,4.66-23.48,29.43-27.67,62.72-4.07,32.35,6.76,59.76,8.5,59.5s-5.57-25.24-.5-60C467.68,133.25,480.66,111.21,483.44,105Z"/>
              <path class="cls-3" d="M483.53,99.23c-.06.87-.15,1.66-.26,2.37,0,.38-.11.73-.17,1.06,0,.07,0,.13,0,.2h0s0,.08,0,.11l-.77-.33a1.12,1.12,0,0,0,0-.13l-.09-.28a1.18,1.18,0,0,1-.07-.2l.37.29c.17-.15.34-.31.52-.45a29.73,29.73,0,0,1-.46-3.95C482.86,98.37,483.21,98.8,483.53,99.23Z"/>
              <path class="cls-3" d="M486,103l.5-.15a20,20,0,0,1,7.4,1.38c5.11,2,8.1,5.75,11,10,8.9,13,14.31,26.89,13.49,27.24s-4-11.49-15.49-23.24a66.89,66.89,0,0,0-9.41-8A29.6,29.6,0,0,1,498,120c4.63,15,5.68,29.92,4.8,30s-.44-12.16-7.9-26.79a69.12,69.12,0,0,0-11.69-16.36,39.92,39.92,0,0,0-22.89,8.28c-12.13,9.52-16,24.1-16.82,23s2.11-19.22,13.12-28.53c6.49-5.49,14.23-6.65,20.34-6.27a44.8,44.8,0,0,1,4.24,1.46c-.41-.4-.81-.78-1.21-1.14l1.21.2c0,.24-.08.46-.11.66l.07,0,1.29-.44,1,.26a.29.29,0,0,1,0-.09c0-.08,0-.17-.05-.26l0-.22h0l-.5.17-.95-.44a3.29,3.29,0,0,0,.07-.36l.47.08c-.28-.08-.55-.14-.81-.19-.45-.09-.86-.16-1.24-.22,0,.06,0,.09,0,.12s-.39,0-1-.34c-.06.12-.11.23-.17.33q.38.33.75.69a30.3,30.3,0,0,0-3-.32,38.35,38.35,0,0,0-19.35-.72c-15.05,3.34-24.86,14.8-25.12,13.49s10.21-16.42,24.16-20a26.79,26.79,0,0,1,15.62.71,84.78,84.78,0,0,1,9.83,5.48l.09.28a1.12,1.12,0,0,1,0,.13l.77.33s0-.07,0-.11a.39.39,0,0,1,.1.08l0,.12.09.4h.06l.54.17.32.1.37.13-.27-.18.36-.19s0-.08,0-.12Z"/>
              <path class="cls-3" d="M533,102c-.22.86-11.79-3.83-28.32-2.6a85.26,85.26,0,0,0-18.23,3.42h-.58c-.24-.43-.51-.88-.8-1.35l-.16-.24c.05-.35.11-.72.17-1.09-.21.15-.41.29-.6.44l0,0c-.29-.43-.61-.88-1-1.34s-.67-.86-1-1.3a29.73,29.73,0,0,0,.46,3.95c-.18.14-.35.3-.52.45l-.37-.29a33.68,33.68,0,0,0-9.76-5.28A79,79,0,0,0,462,92.71c-15.31-4.8-25.55-3.42-25.55-4.2,0-1.27,27-7.56,42.74,6l.12.11a80.73,80.73,0,0,0-9.13-16.15c-9.45-13-18.51-18-18-18.57.76-1,26.18,10,30.77,30.27.05.22.1.44.14.66a25.31,25.31,0,0,1,1.87-5.61c3.51-7.49,9.69-11.08,14.31-13.76,4.26-2.47,9.34-4.45,9.74-3.76.61,1-10.83,6-18,17.07a38.84,38.84,0,0,0-5,11.55,26.75,26.75,0,0,1,8.39-10.9c6.61-5,13.74-5.29,19.08-5.5,4.92-.21,10.33.41,10.37,1.21.05,1.21-12.37.25-23.87,6.71A40.45,40.45,0,0,0,487.86,98.4a28.4,28.4,0,0,1,5-2.19c4.29-1.38,8.13-1.44,13-1C520.32,96.49,533.27,101.1,533,102Z"/>
              <path class="cls-3" d="M486,103l-1.31.41s0,.08,0,.12l-.36.19-.19-.13-.76-.52h0l-.18-.12a.33.33,0,0,0-.1-.06h0l-.7-.46-.23-.16a84.78,84.78,0,0,0-9.83-5.48,33.68,33.68,0,0,1,9.76,5.28l.37.29c.17-.15.34-.31.52-.45a29.73,29.73,0,0,1-.46-3.95c.37.44.72.87,1,1.3s.67.91,1,1.34l0,0c.15.22.3.44.43.65l.16.24c.29.47.56.92.8,1.35C485.93,102.89,486,102.94,486,103Z"/>
              <path class="cls-3" d="M483.4,103.8l0,.22h0c0-.06,0-.13-.05-.2Z"/>
              <path class="cls-3" d="M485.11,100.16c-.06.37-.12.74-.17,1.09a2,2,0,0,0,0,.24q-.11.72-.18,1.41l-.06.49s0,.08,0,.12l-.36.19-.1,0-.32-.1-.54-.17h-.06l-.09-.4,0-.12v0l-.06-.27c-.05-.24-.1-.51-.15-.78a29.73,29.73,0,0,1-.46-3.95c.37.44.72.87,1,1.3s.67.91,1,1.34l0,0C484.7,100.45,484.9,100.31,485.11,100.16Z"/>
              <path class="cls-3" d="M484.94,101.25l.16.24h-.19l-.52,0-.1-.15c0-.21.11-.46.18-.73,0,0,0,0,0-.06l0,0c.19-.15.39-.29.6-.44C485.05,100.53,485,100.9,484.94,101.25Z"/>
              <path class="cls-3" d="M483.43,104c0,.09,0,.18.05.26l-.61-.3.5-.17h0Z"/>
              <path class="cls-3" d="M486.48,102.83l-.5.15-1.31.41s0,.08,0,.12l-.36.19.27.18-.37-.13-.32-.1-.54-.17h-.06l-.09-.4h.16c.42-.06.89-.12,1.38-.15s.76-.05,1.17-.06Z"/>
              <path class="cls-3" d="M483.5,104.37l-1-.26-1.29.44-.07,0c0-.2.07-.42.11-.66l-1.21-.2q-.37-.36-.75-.69c.06-.1.11-.21.17-.33.59.31.92.44,1,.34s0-.06,0-.12c.38.06.79.13,1.24.22.26.05.53.11.81.19l-.47-.08a3.29,3.29,0,0,1-.07.36l.95.44.5-.17h0l0,.22c0,.09,0,.18.05.26A.29.29,0,0,0,483.5,104.37Z"/>
            </g>
            <path class="cls-6" d="M494.05,246.26V271.5a1.91,1.91,0,0,1-1.9,1.9H426.23a1.67,1.67,0,0,1-1.67-1.67V246.26a10.56,10.56,0,0,1,9.63-10.49V213.21A11.85,11.85,0,0,1,446,201.4h26.61a11.85,11.85,0,0,1,11.81,11.81v22.56A10.57,10.57,0,0,1,494.05,246.26Z"/>
            <path class="cls-3" d="M488.05,246.26V271.5a1.91,1.91,0,0,1-1.9,1.9H420.23a1.67,1.67,0,0,1-1.67-1.67V246.26a10.56,10.56,0,0,1,9.63-10.49V213.21A11.85,11.85,0,0,1,440,201.4h26.61a11.85,11.85,0,0,1,11.81,11.81v22.56A10.57,10.57,0,0,1,488.05,246.26Z"/>
          </g>
        </g>
        <g>
          <g id="floor-2" data-name="floor">
            <polygon class="cls-2" points="1770.69 1031.03 -285 1031 -53.95 609 1512.14 609.26 1770.69 1031.03"/>
            <polygon class="cls-3" points="16 632.98 -67.06 632.96 -53.95 609 27.67 609.01 16 632.98"/>
            <polygon class="cls-3" points="88.46 657.82 3.9 657.8 16 632.98 99.05 632.99 88.46 657.82"/>
            <polygon class="cls-3" points="163.59 683.57 77.48 683.56 88.46 657.82 173.01 657.83 163.59 683.57"/>
            <polygon class="cls-3" points="241.53 710.29 153.81 710.28 163.59 683.57 249.69 683.58 241.53 710.29"/>
            <polygon class="cls-3" points="322.45 738.03 233.06 738.02 241.53 710.29 329.25 710.3 322.45 738.03"/>
            <polygon class="cls-3" points="406.52 766.85 315.39 766.84 322.45 738.03 411.83 738.04 406.52 766.85"/>
            <polygon class="cls-3" points="493.92 796.81 400.99 796.8 406.52 766.85 497.64 766.86 493.92 796.81"/>
            <polygon class="cls-3" points="584.86 827.98 490.05 827.97 493.92 796.81 586.84 796.82 584.86 827.98"/>
            <polygon class="cls-3" points="679.55 860.44 582.79 860.44 584.86 827.98 679.66 827.99 679.55 860.44"/>
            <polygon class="cls-3" points="778.24 894.27 679.44 894.27 679.55 860.44 776.31 860.45 778.24 894.27"/>
            <polygon class="cls-3" points="881.19 929.57 780.26 929.56 778.24 894.27 877.04 894.28 881.19 929.57"/>
            <polygon class="cls-3" points="988.67 966.41 885.52 966.4 881.19 929.57 982.11 929.57 988.67 966.41"/>
            <polygon class="cls-3" points="1100.98 1004.91 995.52 1004.91 988.67 966.41 1091.81 966.41 1100.98 1004.91"/>
            <polygon class="cls-3" points="1218.48 1045.19 1110.59 1045.19 1100.98 1004.91 1206.44 1004.91 1218.48 1045.19"/>
            <polygon class="cls-3" points="-8.63 683.55 -94.75 683.53 -80.66 657.79 3.9 657.8 -8.63 683.55"/>
            <polygon class="cls-3" points="66.09 710.27 -21.64 710.26 -8.63 683.55 77.48 683.56 66.09 710.27"/>
            <polygon class="cls-3" points="143.66 738.01 54.26 738 66.09 710.27 153.81 710.28 143.66 738.01"/>
            <polygon class="cls-3" points="224.26 766.83 133.12 766.82 143.66 738.01 233.06 738.02 224.26 766.83"/>
            <polygon class="cls-3" points="308.05 796.79 215.1 796.78 224.26 766.83 315.39 766.84 308.05 796.79"/>
            <polygon class="cls-3" points="395.23 827.97 300.41 827.96 308.05 796.79 400.99 796.8 395.23 827.97"/>
            <polygon class="cls-3" points="486.01 860.43 389.24 860.42 395.23 827.97 490.05 827.97 486.01 860.43"/>
            <polygon class="cls-3" points="580.63 894.26 481.81 894.26 486.01 860.43 582.79 860.44 580.63 894.26"/>
            <polygon class="cls-3" points="679.32 929.55 578.38 929.55 580.63 894.26 679.44 894.27 679.32 929.55"/>
            <polygon class="cls-3" points="782.36 966.4 679.2 966.4 679.32 929.55 780.26 929.56 782.36 966.4"/>
            <polygon class="cls-3" points="890.05 1004.91 784.56 1004.9 782.36 966.4 885.52 966.4 890.05 1004.91"/>
            <polygon class="cls-3" points="1002.69 1045.19 894.78 1045.19 890.05 1004.91 995.52 1004.91 1002.69 1045.19"/>
            <polygon class="cls-3" points="41.97 766.81 -49.18 766.8 -35.15 737.99 54.26 738 41.97 766.81"/>
            <polygon class="cls-3" points="122.15 796.77 29.19 796.76 41.97 766.81 133.12 766.82 122.15 796.77"/>
            <polygon class="cls-3" points="205.58 827.95 110.74 827.94 122.15 796.77 215.1 796.78 205.58 827.95"/>
            <polygon class="cls-3" points="292.45 860.41 195.66 860.41 205.58 827.95 300.41 827.96 292.45 860.41"/>
            <polygon class="cls-3" points="382.99 894.25 284.16 894.24 292.45 860.41 389.24 860.42 382.99 894.25"/>
            <polygon class="cls-3" points="477.43 929.54 376.47 929.54 382.99 894.25 481.81 894.26 477.43 929.54"/>
            <polygon class="cls-3" points="576.03 966.39 472.85 966.39 477.43 929.54 578.38 929.55 576.03 966.39"/>
            <polygon class="cls-3" points="679.07 1004.9 573.58 1004.9 576.03 966.39 679.2 966.4 679.07 1004.9"/>
            <polygon class="cls-3" points="786.87 1045.18 678.94 1045.18 679.07 1004.9 784.56 1004.9 786.87 1045.18"/>
            <polygon class="cls-3" points="15.9 827.93 -78.95 827.92 -63.77 796.75 29.19 796.76 15.9 827.93"/>
            <polygon class="cls-3" points="98.86 860.4 2.05 860.39 15.9 827.93 110.74 827.94 98.86 860.4"/>
            <polygon class="cls-3" points="185.32 894.24 86.47 894.23 98.86 860.4 195.66 860.41 185.32 894.24"/>
            <polygon class="cls-3" points="275.51 929.53 174.53 929.53 185.32 894.24 284.16 894.24 275.51 929.53"/>
            <polygon class="cls-3" points="369.67 966.38 266.47 966.38 275.51 929.53 376.47 929.54 369.67 966.38"/>
            <polygon class="cls-3" points="468.07 1004.9 362.56 1004.89 369.67 966.38 472.85 966.39 468.07 1004.9"/>
            <polygon class="cls-3" points="571.01 1045.18 463.07 1045.18 468.07 1004.9 573.58 1004.9 571.01 1045.18"/>
            <polygon class="cls-3" points="-12.38 894.22 -111.24 894.22 -94.76 860.38 2.05 860.39 -12.38 894.22"/>
            <polygon class="cls-3" points="73.55 929.52 -27.43 929.52 -12.38 894.22 86.47 894.23 73.55 929.52"/>
            <polygon class="cls-3" points="163.27 966.38 60.06 966.37 73.55 929.52 174.53 929.53 163.27 966.38"/>
            <polygon class="cls-3" points="257.03 1004.89 151.5 1004.89 163.27 966.38 266.47 966.38 257.03 1004.89"/>
            <polygon class="cls-3" points="355.12 1045.18 247.16 1045.18 257.03 1004.89 362.56 1004.89 355.12 1045.18"/>
            <polygon class="cls-3" points="45.97 1004.89 -59.58 1004.88 -43.15 966.37 60.06 966.37 45.97 1004.89"/>
            <polygon class="cls-3" points="139.19 1045.18 31.21 1045.18 45.97 1004.89 151.5 1004.89 139.19 1045.18"/>
            <polygon class="cls-3" points="182.1 633 99.05 632.99 109.27 609.03 190.87 609.04 182.1 633"/>
            <polygon class="cls-3" points="257.56 657.84 173.01 657.83 182.1 633 265.15 633.02 257.56 657.84"/>
            <polygon class="cls-3" points="335.79 683.6 249.69 683.58 257.56 657.84 342.1 657.86 335.79 683.6"/>
            <polygon class="cls-3" points="416.96 710.31 329.25 710.3 335.79 683.6 421.89 683.61 416.96 710.31"/>
            <polygon class="cls-3" points="501.21 738.05 411.83 738.04 416.96 710.31 504.66 710.33 501.21 738.05"/>
            <polygon class="cls-3" points="588.75 766.87 497.64 766.86 501.21 738.05 590.59 738.06 588.75 766.87"/>
            <polygon class="cls-3" points="679.76 796.83 586.84 796.82 588.75 766.87 679.86 766.88 679.76 796.83"/>
            <polygon class="cls-3" points="774.46 828 679.66 827.99 679.76 796.83 772.67 796.84 774.46 828"/>
            <polygon class="cls-3" points="873.06 860.46 776.31 860.45 774.46 828 869.25 828.01 873.06 860.46"/>
            <polygon class="cls-3" points="975.83 894.29 877.04 894.28 873.06 860.46 969.81 860.47 975.83 894.29"/>
            <polygon class="cls-3" points="1083.02 929.58 982.11 929.57 975.83 894.29 1074.61 894.29 1083.02 929.58"/>
            <polygon class="cls-3" points="1194.94 966.42 1091.81 966.41 1083.02 929.58 1183.93 929.58 1194.94 966.42"/>
            <polygon class="cls-3" points="1311.89 1004.92 1206.44 1004.91 1194.94 966.42 1298.06 966.42 1311.89 1004.92"/>
            <polygon class="cls-3" points="1434.24 1045.19 1326.36 1045.19 1311.89 1004.92 1417.33 1004.92 1434.24 1045.19"/>
            <polygon class="cls-3" points="348.19 633.03 265.15 633.02 272.47 609.05 354.06 609.07 348.19 633.03"/>
            <polygon class="cls-3" points="426.64 657.87 342.1 657.86 348.19 633.03 431.23 633.04 426.64 657.87"/>
            <polygon class="cls-3" points="507.98 683.62 421.89 683.61 426.64 657.87 511.17 657.88 507.98 683.62"/>
            <polygon class="cls-3" points="592.36 710.34 504.66 710.33 507.98 683.62 594.06 683.63 592.36 710.34"/>
            <polygon class="cls-3" points="679.96 738.07 590.59 738.06 592.36 710.34 680.05 710.35 679.96 738.07"/>
            <polygon class="cls-3" points="770.96 766.89 679.86 766.88 679.96 738.07 769.32 738.08 770.96 766.89"/>
            <polygon class="cls-3" points="865.58 796.85 772.67 796.84 770.96 766.89 862.06 766.9 865.58 796.85"/>
            <polygon class="cls-3" points="964.03 828.01 869.25 828.01 865.58 796.85 958.48 796.85 964.03 828.01"/>
            <polygon class="cls-3" points="1066.54 860.47 969.81 860.47 964.03 828.01 1058.81 828.02 1066.54 860.47"/>
            <polygon class="cls-3" points="1173.38 894.3 1074.61 894.29 1066.54 860.47 1163.28 860.48 1173.38 894.3"/>
            <polygon class="cls-3" points="1284.83 929.59 1183.93 929.58 1173.38 894.3 1272.15 894.31 1284.83 929.59"/>
            <polygon class="cls-3" points="1401.18 966.42 1298.06 966.42 1284.83 929.59 1385.72 929.59 1401.18 966.42"/>
            <polygon class="cls-3" points="1522.77 1004.92 1417.33 1004.92 1401.18 966.42 1504.29 966.43 1522.77 1004.92"/>
            <polygon class="cls-3" points="514.26 633.05 431.23 633.04 435.65 609.08 517.23 609.1 514.26 633.05"/>
            <polygon class="cls-3" points="595.7 657.89 511.17 657.88 514.26 633.05 597.28 633.07 595.7 657.89"/>
            <polygon class="cls-3" points="680.13 683.64 594.06 683.63 595.7 657.89 680.22 657.91 680.13 683.64"/>
            <polygon class="cls-3" points="767.73 710.36 680.05 710.35 680.13 683.64 766.21 683.66 767.73 710.36"/>
            <polygon class="cls-3" points="858.67 738.09 769.32 738.08 767.73 710.36 855.41 710.37 858.67 738.09"/>
            <polygon class="cls-3" points="953.15 766.91 862.06 766.9 858.67 738.09 948.02 738.11 953.15 766.91"/>
            <polygon class="cls-3" points="1051.38 796.86 958.48 796.85 953.15 766.91 1044.23 766.92 1051.38 796.86"/>
            <polygon class="cls-3" points="1153.58 828.03 1058.81 828.02 1051.38 796.86 1144.26 796.87 1153.58 828.03"/>
            <polygon class="cls-3" points="1260 860.49 1163.28 860.48 1153.58 828.03 1248.34 828.04 1260 860.49"/>
            <polygon class="cls-3" points="1370.91 894.31 1272.15 894.31 1260 860.49 1356.72 860.5 1370.91 894.31"/>
            <polygon class="cls-3" points="1486.6 929.6 1385.72 929.59 1370.91 894.31 1469.66 894.32 1486.6 929.6"/>
            <polygon class="cls-3" points="680.3 633.08 597.28 633.07 598.81 609.11 680.38 609.12 680.3 633.08"/>
            <polygon class="cls-3" points="764.74 657.92 680.22 657.91 680.3 633.08 763.32 633.1 764.74 657.92"/>
            <polygon class="cls-3" points="852.27 683.67 766.21 683.66 764.74 657.92 849.25 657.93 852.27 683.67"/>
            <polygon class="cls-3" points="943.09 710.38 855.41 710.37 852.27 683.67 938.34 683.68 943.09 710.38"/>
            <polygon class="cls-3" points="1037.37 738.12 948.02 738.11 943.09 710.38 1030.76 710.39 1037.37 738.12"/>
            <polygon class="cls-3" points="1135.31 766.93 1044.23 766.92 1037.37 738.12 1126.71 738.13 1135.31 766.93"/>
            <polygon class="cls-3" points="1237.15 796.88 1144.26 796.87 1135.31 766.93 1226.39 766.94 1237.15 796.88"/>
            <polygon class="cls-3" points="1343.1 828.05 1248.34 828.04 1237.15 796.88 1330.02 796.89 1343.1 828.05"/>
            <polygon class="cls-3" points="1453.43 860.5 1356.72 860.5 1343.1 828.05 1437.85 828.06 1453.43 860.5"/>
            <polygon class="cls-3" points="846.33 633.11 763.32 633.1 761.95 609.14 843.51 609.15 846.33 633.11"/>
            <polygon class="cls-3" points="933.75 657.94 849.25 657.93 846.33 633.11 929.33 633.12 933.75 657.94"/>
            <polygon class="cls-3" points="1024.39 683.69 938.34 683.68 933.75 657.94 1018.25 657.96 1024.39 683.69"/>
            <polygon class="cls-3" points="1118.42 710.41 1030.76 710.39 1024.39 683.69 1110.44 683.71 1118.42 710.41"/>
            <polygon class="cls-3" points="1216.04 738.14 1126.71 738.13 1118.42 710.41 1206.08 710.42 1216.04 738.14"/>
            <polygon class="cls-3" points="1317.45 766.95 1226.39 766.94 1216.04 738.14 1305.37 738.15 1317.45 766.95"/>
            <polygon class="cls-3" points="1422.89 796.9 1330.02 796.89 1317.45 766.95 1408.51 766.96 1422.89 796.9"/>
            <polygon class="cls-3" points="1532.59 828.07 1437.85 828.06 1422.89 796.9 1515.75 796.91 1532.59 828.07"/>
            <polygon class="cls-3" points="1012.34 633.13 929.33 633.12 925.07 609.16 1006.62 609.18 1012.34 633.13"/>
            <polygon class="cls-3" points="1102.75 657.97 1018.25 657.96 1012.34 633.13 1095.33 633.15 1102.75 657.97"/>
            <polygon class="cls-3" points="1196.49 683.72 1110.44 683.71 1102.75 657.97 1187.24 657.98 1196.49 683.72"/>
            <polygon class="cls-3" points="1293.73 710.43 1206.08 710.42 1196.49 683.72 1282.53 683.73 1293.73 710.43"/>
            <polygon class="cls-3" points="1394.69 738.16 1305.37 738.15 1293.73 710.43 1381.38 710.44 1394.69 738.16"/>
            <polygon class="cls-3" points="1499.57 766.97 1408.51 766.96 1394.69 738.16 1484 738.17 1499.57 766.97"/>
            <polygon class="cls-3" points="1178.32 633.16 1095.33 633.15 1088.17 609.19 1169.71 609.21 1178.32 633.16"/>
            <polygon class="cls-3" points="1271.72 658 1187.24 657.98 1178.32 633.16 1261.31 633.17 1271.72 658"/>
            <polygon class="cls-3" points="1368.56 683.74 1282.53 683.73 1271.72 658 1356.2 658.01 1368.56 683.74"/>
            <polygon class="cls-3" points="1469.02 710.45 1381.38 710.44 1368.56 683.74 1454.59 683.75 1469.02 710.45"/>
            <polygon class="cls-3" points="1350.93 633.19 1267.95 633.18 1257.78 609.22 1339.31 609.24 1350.93 633.19"/>
            <polygon class="cls-3" points="1447.44 658.02 1362.96 658.01 1350.93 633.19 1433.9 633.2 1447.44 658.02"/>
            <polygon class="cls-3" points="1516.87 633.22 1433.9 633.2 1420.84 609.25 1502.36 609.26 1516.87 633.22"/>
          </g>
          <g>
            <path class="cls-16" d="M1475.76,823l-150-1q-16-41.49-32-83h182Z"/>
            <polygon class="cls-17" points="1475.26 644.03 1475.26 740.48 1462.26 740.48 1462.26 657.03 1444.29 657.03 1444.29 740.53 1431.29 740.53 1431.29 657.03 1411.29 657.03 1411.29 740.53 1398.29 740.53 1398.29 657.03 1376.29 657.03 1376.29 740.53 1363.29 740.53 1363.29 657.03 1341.29 657.03 1341.29 739.53 1328.29 739.53 1328.29 657.03 1307.29 657.03 1307.29 738.5 1294.29 738.5 1294.29 657.03 1293.79 657.03 1293.79 644.03 1475.26 644.03"/>
            <g>
              <path class="cls-18" d="M1341.76,822h-16q-12.51-33-25-66h14Z"/>
              <path class="cls-18" d="M1358.59,821.58l-16.33-.1-22.39-54.93,13.73-1Z"/>
              <path class="cls-18" d="M1375.26,822.48h-15l-22.32-49.3,14-.78Z"/>
              <path class="cls-18" d="M1392.26,822.48h-16l-20.16-43.69,14-1.16Q1381.15,800.06,1392.26,822.48Z"/>
              <path class="cls-18" d="M1409.26,822.48h-16l-18.9-38.14,13.93-1.49Z"/>
              <path class="cls-18" d="M1426.26,822.48h-16l-17.62-33.56,13.88-1.82Z"/>
              <path class="cls-18" d="M1444.26,822.48h-17q-8.31-14.87-16.6-29.73l13.81-2.28Z"/>
              <path class="cls-18" d="M1462.26,822.48h-17q-7.18-11.52-14.35-23.06l13.75-2.64Q1453.45,809.64,1462.26,822.48Z"/>
            </g>
          </g>
        </g>
      </g>
    </g>
  </g>
</svg>
