<svg id="bar-foreground" xmlns="http://www.w3.org/2000/svg" viewBox="0 0 1440 1024"><title>bar-foreground-taps</title><g id="bar-foreground-2" data-name="bar-foreground"><g id="cut-floor"><polygon points="1609.43 1035.1 1346.86 1035.1 1288.02 812.12 1529.1 810.74 1609.43 1035.1" fill="#0d0627"/><polygon points="1482.62 1035.11 1346.86 1035.1 1334.32 986.42 1467.22 986.44 1482.62 1035.11" fill="#1b0b52"/><polygon points="1452.46 939.78 1322.32 939.77 1310.79 895 1438.3 895.01 1452.46 939.78" fill="#1b0b52"/><polygon points="1424.7 852.02 1299.71 852.01 1289.08 810.7 1411.63 810.72 1424.7 852.02" fill="#1b0b52"/><polygon points="1565.8 895.02 1438.3 895.01 1424.7 852.02 1549.66 852.04 1565.8 895.02" fill="#1b0b52"/></g><g id="bartender-table"><path d="M941,867.26v10.9l-152.7-.7c-84.1-.3-184-.9-222-1.2l-69.3-.7-.1-9.1c0-5-.3-8.5-.6-7.9-.4,1-22.5,1.3-105.6,1.4-57.9.1-119.4.4-136.7.8l-31.5.6-66,43.6c-36.3,23.9-66.8,43.8-67.7,44.2-2.4.9-2.3,1.6,2.6,22.2l4.2,18,32.1.3,32.1.2,1.2,5c.9,3.7,1.7,5,3,5,2.1,0-1.6-8.2,46.5,103.7,19.7,45.8,36.6,84.2,37.6,85.4l1.8,2.1,179.3-1.3c98.6-.7,310.5-1.2,470.8-1.2l291.4.1,2.1-2.2c1.1-1.2,8.2-17,15.8-35.1,65-154.9,64.1-153,66.4-153.3,1.8-.3,2.4-1.4,3.4-5.8l1.2-5.4h63.6l1-3.8c.5-2,2.4-10.2,4.1-18.2s3.4-15.2,3.6-16.2-.5-2.1-2.3-3c-1.5-.8-32.7-20.7-69.2-44.3l-66.3-42.8-135.9.6c-128.7.7-135.9.6-136.8-1C941.34,856.86,941.14,859.36,941,867.26Z" fill="#05002a" stroke="#8c44c1" stroke-miterlimit="1" stroke-width="0.8"/><line x1="87.93" y1="956.04" x2="1352.64" y2="956.04" fill="none" stroke="#8c44c1" stroke-miterlimit="1" stroke-width="0.8"/></g></g><g id="pipe"><path d="M223.8,886.32c-.14-1.93-2.74-46.64,21.55-80.18,27.63-38.15,65.26-39,66.85-39.06l.24,20c-1.13,0-29.38,1.09-50.9,30.79-19.94,27.54-17.39,67.69-17.36,68.09Z" fill="#7b71ff"/><path d="M1236.71,885.77l-19.95.18,10,.73-10-.71c0-.4,2.58-40.56-17.36-68.09-21.47-29.65-47.4-30.76-48.49-30.79l.34-20c1.49,0,36.72.92,64.35,39.06C1239.89,839.68,1236.85,883.84,1236.71,885.77Z" fill="#7b71ff"/><rect x="311.18" y="767.08" width="840.15" height="20" fill="#7b71ff"/><path d="M1147.22,774.19H311.45a1,1,0,1,1,0-2h835.77a1,1,0,0,1,0,2Z" fill="#fff"/></g><g id="taps"><g id="tap_0" data-name="tap 0"><circle cx="364.26" cy="778.5" r="14.74" fill="#7b71ff"/><rect x="359.26" y="786.13" width="10" height="15.42" fill="#7b71ff"/><path d="M359.27,735c0,15.05,2.24,29,5,29s5-14,5-29c0-9.77,0-19.4-1.43-24.21-.77-2.6-2.59-3-3.56-3a3.49,3.49,0,0,0-3.39,2.64C359.36,715.09,359.27,724.86,359.27,735Z" fill="#55257f"/><g id="beer_front"><rect x="361.28" y="801.56" width="6" height="84.89" fill="#eeb000"/><rect id="foam_bottom" x="352.36" y="878.39" width="23.63" height="8.61" fill="#fff"/><g id="beer_full_with_foam" data-name="beer full with foam"><polygon id="beer_full" data-name="beer full" points="375.81 886.45 352.66 886.45 349.93 832.95 378.4 832.95 375.81 886.45" fill="#eeb000"/><rect id="foam_top" data-name="foam top" x="350.25" y="833.77" width="27.57" height="11.61" fill="#fff"/></g><rect id="refl" x="356.8" y="864.62" width="29.92" height="0.72" transform="translate(-510.34 1194.07) rotate(-87.2)" fill="#fff"/><path d="M376.32,887.3H352.07l-2.7-54.38h29.52Zm-21.87-2.5h19.49l2.33-49.38H352Z" fill="#fff"/></g></g><g id="tap_1" data-name="tap 1"><circle cx="483.87" cy="778.5" r="14.74" fill="#7b71ff"/><rect x="478.87" y="786.13" width="10" height="15.42" fill="#7b71ff"/><path d="M478.88,735c0,15.05,2.24,29,5,29s5-14,5-29c0-9.77,0-19.4-1.43-24.21-.77-2.6-2.59-3-3.56-3a3.49,3.49,0,0,0-3.39,2.64C479,715.09,478.88,724.86,478.88,735Z" fill="#55257f"/><g id="beer_front-2" data-name="beer_front"><rect x="480.89" y="801.56" width="6" height="84.89" fill="#eeb000"/><rect id="foam_bottom-2" data-name="foam_bottom" x="471.97" y="878.39" width="23.63" height="8.61" fill="#fff"/><g id="beer_full_with_foam-2" data-name="beer full with foam"><polygon id="beer_full-2" data-name="beer full" points="495.42 886.45 472.27 886.45 469.54 832.95 498.01 832.95 495.42 886.45" fill="#eeb000"/><rect id="foam_top-2" data-name="foam top" x="469.86" y="833.77" width="27.57" height="11.61" fill="#fff"/></g><rect id="refl-2" data-name="refl" x="476.41" y="864.62" width="29.92" height="0.72" transform="translate(-396.57 1313.54) rotate(-87.2)" fill="#fff"/><path d="M495.93,887.3H471.68L469,832.92H498.5Zm-21.87-2.5h19.49l2.33-49.38H471.61Z" fill="#fff"/></g></g><g id="tap_2" data-name="tap 2"><circle cx="608.87" cy="778.5" r="14.74" fill="#7b71ff"/><rect x="603.87" y="786.13" width="10" height="15.42" fill="#7b71ff"/><path d="M603.88,735c0,15.05,2.24,29,5,29s5-14,5-29c0-9.77,0-19.4-1.43-24.21-.77-2.6-2.59-3-3.56-3a3.49,3.49,0,0,0-3.39,2.64C604,715.09,603.88,724.86,603.88,735Z" fill="#55257f"/><g id="beer_front-3" data-name="beer_front"><rect x="605.89" y="801.56" width="6" height="84.89" fill="#eeb000"/><rect id="foam_bottom-3" data-name="foam_bottom" x="596.97" y="878.39" width="23.63" height="8.61" fill="#fff"/><g id="beer_full_with_foam-3" data-name="beer full with foam"><polygon id="beer_full-3" data-name="beer full" points="620.42 886.45 597.27 886.45 594.54 832.95 623.01 832.95 620.42 886.45" fill="#eeb000"/><rect id="foam_top-3" data-name="foam top" x="594.86" y="833.77" width="27.57" height="11.61" fill="#fff"/></g><rect id="refl-3" data-name="refl" x="601.41" y="864.62" width="29.92" height="0.72" transform="translate(-277.67 1438.39) rotate(-87.2)" fill="#fff"/><path d="M620.93,887.3H596.68L594,832.92H623.5Zm-21.87-2.5h19.49l2.33-49.38H596.61Z" fill="#fff"/></g></g><g id="tap_3" data-name="tap 3"><circle cx="729.87" cy="778.5" r="14.74" fill="#7b71ff"/><rect x="724.87" y="786.13" width="10" height="15.42" fill="#7b71ff"/><path d="M724.88,735c0,15.05,2.24,29,5,29s5-14,5-29c0-9.77,0-19.4-1.43-24.21-.77-2.6-2.59-3-3.56-3a3.49,3.49,0,0,0-3.39,2.64C725,715.09,724.88,724.86,724.88,735Z" fill="#55257f"/><g id="beer_front-4" data-name="beer_front"><rect x="726.89" y="801.56" width="6" height="84.89" fill="#eeb000"/><rect id="foam_bottom-4" data-name="foam_bottom" x="717.97" y="878.39" width="23.63" height="8.61" fill="#fff"/><g id="beer_full_with_foam-4" data-name="beer full with foam"><polygon id="beer_full-4" data-name="beer full" points="741.42 886.45 718.27 886.45 715.54 832.95 744.01 832.95 741.42 886.45" fill="#eeb000"/><rect id="foam_top-4" data-name="foam top" x="715.86" y="833.77" width="27.57" height="11.61" fill="#fff"/></g><rect id="refl-4" data-name="refl" x="722.41" y="864.62" width="29.92" height="0.72" transform="translate(-162.57 1559.25) rotate(-87.2)" fill="#fff"/><path d="M741.93,887.3H717.68L715,832.92H744.5Zm-21.87-2.5h19.49l2.33-49.38H717.61Z" fill="#fff"/></g></g><g id="tap_4" data-name="tap 4"><circle cx="849.87" cy="778.5" r="14.74" fill="#7b71ff"/><rect x="844.87" y="786.13" width="10" height="15.42" fill="#7b71ff"/><path d="M844.88,735c0,15.05,2.24,29,5,29s5-14,5-29c0-9.77,0-19.4-1.43-24.21-.77-2.6-2.59-3-3.56-3a3.49,3.49,0,0,0-3.39,2.64C845,715.09,844.88,724.86,844.88,735Z" fill="#55257f"/><g id="beer_front-5" data-name="beer_front"><rect x="846.89" y="801.56" width="6" height="84.89" fill="#eeb000"/><rect id="foam_bottom-5" data-name="foam_bottom" x="837.97" y="878.39" width="23.63" height="8.61" fill="#fff"/><g id="beer_full_with_foam-5" data-name="beer full with foam"><polygon id="beer_full-5" data-name="beer full" points="861.42 886.45 838.27 886.45 835.54 832.95 864.01 832.95 861.42 886.45" fill="#eeb000"/><rect id="foam_top-5" data-name="foam top" x="835.86" y="833.77" width="27.57" height="11.61" fill="#fff"/></g><rect id="refl-5" data-name="refl" x="842.41" y="864.62" width="29.92" height="0.72" transform="translate(-48.43 1679.11) rotate(-87.2)" fill="#fff"/><path d="M861.93,887.3H837.68L835,832.92H864.5Zm-21.87-2.5h19.49l2.33-49.38H837.61Z" fill="#fff"/></g></g><g id="tap_5" data-name="tap 5"><circle cx="977.87" cy="778.5" r="14.74" fill="#7b71ff"/><rect x="972.87" y="786.13" width="10" height="15.42" fill="#7b71ff"/><path d="M972.88,735c0,15.05,2.24,29,5,29s5-14,5-29c0-9.77,0-19.4-1.43-24.21-.77-2.6-2.59-3-3.56-3a3.49,3.49,0,0,0-3.39,2.64C973,715.09,972.88,724.86,972.88,735Z" fill="#55257f"/><g id="beer_front-6" data-name="beer_front"><rect x="974.89" y="801.56" width="6" height="84.89" fill="#eeb000"/><rect id="foam_bottom-6" data-name="foam_bottom" x="965.97" y="878.39" width="23.63" height="8.61" fill="#fff"/><g id="beer_full_with_foam-6" data-name="beer full with foam"><polygon id="beer_full-6" data-name="beer full" points="989.42 886.45 966.27 886.45 963.54 832.95 992.01 832.95 989.42 886.45" fill="#eeb000"/><rect id="foam_top-6" data-name="foam top" x="963.86" y="833.77" width="27.57" height="11.61" fill="#fff"/></g><rect id="refl-6" data-name="refl" x="970.41" y="864.62" width="29.92" height="0.72" transform="translate(73.32 1806.95) rotate(-87.2)" fill="#fff"/><path d="M989.93,887.3H965.68L963,832.92H992.5Zm-21.87-2.5h19.49l2.33-49.38H965.61Z" fill="#fff"/></g></g><g id="tap_6" data-name="tap 6"><circle cx="1097.87" cy="778.5" r="14.74" fill="#7b71ff"/><rect x="1092.87" y="786.13" width="10" height="15.42" fill="#7b71ff"/><path d="M1092.88,735c0,15.05,2.24,29,5,29s5-14,5-29c0-9.77,0-19.4-1.43-24.21-.77-2.6-2.59-3-3.56-3a3.49,3.49,0,0,0-3.39,2.64C1093,715.09,1092.88,724.86,1092.88,735Z" fill="#55257f"/><g id="beer_front-7" data-name="beer_front"><rect x="1094.89" y="801.56" width="6" height="84.89" fill="#eeb000"/><rect id="foam_bottom-7" data-name="foam_bottom" x="1085.97" y="878.39" width="23.63" height="8.61" fill="#fff"/><g id="beer_full_with_foam-7" data-name="beer full with foam"><polygon id="beer_full-7" data-name="beer full" points="1109.42 886.45 1086.27 886.45 1083.54 832.95 1112.02 832.95 1109.42 886.45" fill="#eeb000"/><rect id="foam_top-7" data-name="foam top" x="1083.86" y="833.77" width="27.57" height="11.61" fill="#fff"/></g><rect id="refl-7" data-name="refl" x="1090.41" y="864.62" width="29.92" height="0.72" transform="translate(187.46 1926.81) rotate(-87.2)" fill="#fff"/><path d="M1109.93,887.3h-24.25l-2.7-54.38h29.52Zm-21.87-2.5h19.49l2.33-49.38h-24.27Z" fill="#fff"/></g></g></g></svg>