<svg id="bar-midbackground" xmlns="http://www.w3.org/2000/svg" viewBox="0 0 1440 1024"><title>bar-midbackground</title><g id="customer-table"><rect x="-27" y="471.92" width="1497" height="135.61" fill="#05002a"/><rect x="-30" y="397.63" width="1497" height="75.15" fill="#05002a" stroke="#8c44c1" stroke-miterlimit="10"/></g><path id="path3376" d="M1189.63,389l-12-17.3h24Z" fill="#eee"/><path id="path3378" d="M1189.63,389l-12-17.3h24Z" fill="none" stroke="#000" stroke-miterlimit="6.4" stroke-width="0.52"/><path id="path3380" d="M1189.63,368.64c6.66,0,12,1.24,12,2.86s-5.36,2.8-12,2.8-12-1.24-12-2.8S1183,368.64,1189.63,368.64Z" fill="#f5f5f5"/><path id="path3382" d="M1189.63,368.64c6.66,0,12,1.24,12,2.86s-5.36,2.8-12,2.8-12-1.24-12-2.8,5.36-2.86,12-2.86" fill="none" stroke="#000" stroke-linejoin="round" stroke-width="0.52"/><path id="path3384" d="M1189.66,407.83c3.83,0,6.92.71,6.92,1.6s-3.09,1.64-6.92,1.64-6.92-.71-6.92-1.64S1185.84,407.83,1189.66,407.83Z" fill="#d9d9d9"/><path id="path3386" d="M1189.66,407.83c3.83,0,6.92.71,6.92,1.6s-3.09,1.64-6.92,1.64-6.92-.71-6.92-1.64,3.09-1.6,6.92-1.6" fill="none" stroke="#000" stroke-linejoin="round" stroke-width="0.52"/><path id="path3388" d="M1189.66,387.33c.49,0,.86.16.86.36V409c0,.19-.37.36-.86.36s-.82-.16-.82-.36V387.7C1188.85,387.5,1189.22,387.33,1189.66,387.33Z" fill="#eaeaea"/><path id="path3390" d="M1190.52,387.7c0,.16-.37.31-.86.31s-.82-.16-.82-.31.37-.36.82-.36S1190.52,387.5,1190.52,387.7Z" fill="#efefef"/><path id="path3392" d="M1189.66,387.33c.49,0,.86.16.86.36V409c0,.19-.37.36-.86.36s-.82-.16-.82-.36V387.7C1188.85,387.5,1189.22,387.33,1189.66,387.33Z" fill="none" stroke="#000" stroke-linejoin="round" stroke-width="0.52"/><path id="path3394" d="M1190.52,387.7c0,.16-.37.31-.86.31s-.82-.16-.82-.31" fill="none" stroke="#000" stroke-linejoin="round" stroke-width="0.52"/><path id="path3376-2" d="M371.35,384.75l-13.83-20h27.69Z" fill="#eee"/><path id="path3378-2" d="M371.35,384.75l-13.83-20h27.69Z" fill="none" stroke="#000" stroke-miterlimit="6.4" stroke-width="0.52"/><path id="path3380-2" d="M371.35,361.23c7.69,0,13.87,1.43,13.87,3.3s-6.18,3.23-13.87,3.23-13.83-1.43-13.83-3.23S363.71,361.23,371.35,361.23Z" fill="#f5f5f5"/><path id="path3382-2" d="M371.35,361.23c7.69,0,13.87,1.43,13.87,3.3s-6.18,3.23-13.87,3.23-13.83-1.43-13.83-3.23,6.18-3.3,13.83-3.3" fill="none" stroke="#000" stroke-linejoin="round" stroke-width="0.52"/><path id="path3384-2" d="M371.39,406.46c4.42,0,8,.82,8,1.85s-3.56,1.89-8,1.89-8-.82-8-1.89S367,406.46,371.39,406.46Z" fill="#d9d9d9"/><path id="path3386-2" d="M371.39,406.46c4.42,0,8,.82,8,1.85s-3.56,1.89-8,1.89-8-.82-8-1.89,3.57-1.85,8-1.85" fill="none" stroke="#000" stroke-linejoin="round" stroke-width="0.52"/><path id="path3388-2" d="M371.39,382.81c.56,0,1,.19,1,.42v24.53c0,.22-.43.41-1,.41s-.94-.19-.94-.41V383.23C370.45,383,370.88,382.81,371.39,382.81Z" fill="#eaeaea"/><path id="path3390-2" d="M372.39,383.23c0,.18-.43.36-1,.36s-.94-.18-.94-.36.43-.42.94-.42S372.39,383,372.39,383.23Z" fill="#efefef"/><path id="path3392-2" d="M371.39,382.81c.56,0,1,.19,1,.42v24.53c0,.22-.43.41-1,.41s-.94-.19-.94-.41V383.23C370.45,383,370.88,382.81,371.39,382.81Z" fill="none" stroke="#000" stroke-linejoin="round" stroke-width="0.52"/><path id="path3394-2" d="M372.39,383.23c0,.18-.43.36-1,.36s-.94-.18-.94-.36" fill="none" stroke="#000" stroke-linejoin="round" stroke-width="0.52"/><path id="path3376-3" d="M398.19,384.75l-13.83-20h27.69Z" fill="#eee"/><path id="path3378-3" d="M398.19,384.75l-13.83-20h27.69Z" fill="none" stroke="#000" stroke-miterlimit="6.4" stroke-width="0.52"/><path id="path3380-3" d="M398.19,361.23c7.69,0,13.87,1.43,13.87,3.3s-6.18,3.23-13.87,3.23-13.83-1.43-13.83-3.23S390.55,361.23,398.19,361.23Z" fill="#f5f5f5"/><path id="path3382-3" d="M398.19,361.23c7.69,0,13.87,1.43,13.87,3.3s-6.18,3.23-13.87,3.23-13.83-1.43-13.83-3.23,6.18-3.3,13.83-3.3" fill="none" stroke="#000" stroke-linejoin="round" stroke-width="0.52"/><path id="path3384-3" d="M398.23,406.46c4.42,0,8,.82,8,1.85s-3.56,1.89-8,1.89-8-.82-8-1.89S393.82,406.46,398.23,406.46Z" fill="#d9d9d9"/><path id="path3386-3" d="M398.23,406.46c4.42,0,8,.82,8,1.85s-3.56,1.89-8,1.89-8-.82-8-1.89,3.57-1.85,8-1.85" fill="none" stroke="#000" stroke-linejoin="round" stroke-width="0.52"/><path id="path3388-3" d="M398.23,382.81c.56,0,1,.19,1,.42v24.53c0,.22-.43.41-1,.41s-.94-.19-.94-.41V383.23C397.29,383,397.72,382.81,398.23,382.81Z" fill="#eaeaea"/><path id="path3390-3" d="M399.23,383.23c0,.18-.43.36-1,.36s-.94-.18-.94-.36.43-.42.94-.42S399.23,383,399.23,383.23Z" fill="#efefef"/><path id="path3392-3" d="M398.23,382.81c.56,0,1,.19,1,.42v24.53c0,.22-.43.41-1,.41s-.94-.19-.94-.41V383.23C397.29,383,397.72,382.81,398.23,382.81Z" fill="none" stroke="#000" stroke-linejoin="round" stroke-width="0.52"/><path id="path3394-3" d="M399.23,383.23c0,.18-.43.36-1,.36s-.94-.18-.94-.36" fill="none" stroke="#000" stroke-linejoin="round" stroke-width="0.52"/><path id="path3376-4" d="M380.3,394.64l-13.83-20h27.69Z" fill="#eee"/><path id="path3378-4" d="M380.3,394.64l-13.83-20h27.69Z" fill="none" stroke="#000" stroke-miterlimit="6.4" stroke-width="0.52"/><path id="path3380-4" d="M380.3,371.13c7.69,0,13.87,1.43,13.87,3.3s-6.18,3.23-13.87,3.23-13.83-1.43-13.83-3.23S372.65,371.13,380.3,371.13Z" fill="#f5f5f5"/><path id="path3382-4" d="M380.3,371.13c7.69,0,13.87,1.43,13.87,3.3s-6.18,3.23-13.87,3.23-13.83-1.43-13.83-3.23,6.18-3.3,13.83-3.3" fill="none" stroke="#000" stroke-linejoin="round" stroke-width="0.52"/><path id="path3384-4" d="M380.34,416.36c4.42,0,8,.82,8,1.85s-3.56,1.89-8,1.89-8-.82-8-1.89S375.92,416.36,380.34,416.36Z" fill="#d9d9d9"/><path id="path3386-4" d="M380.34,416.36c4.42,0,8,.82,8,1.85s-3.56,1.89-8,1.89-8-.82-8-1.89,3.57-1.85,8-1.85" fill="none" stroke="#000" stroke-linejoin="round" stroke-width="0.52"/><path id="path3388-4" d="M380.34,392.7c.56,0,1,.19,1,.42v24.53c0,.22-.43.41-1,.41s-.94-.19-.94-.41V393.12C379.4,392.89,379.83,392.7,380.34,392.7Z" fill="#eaeaea"/><path id="path3390-4" d="M381.33,393.12c0,.18-.43.36-1,.36s-.94-.18-.94-.36.43-.42.94-.42S381.33,392.89,381.33,393.12Z" fill="#efefef"/><path id="path3392-4" d="M380.34,392.7c.56,0,1,.19,1,.42v24.53c0,.22-.43.41-1,.41s-.94-.19-.94-.41V393.12C379.4,392.89,379.83,392.7,380.34,392.7Z" fill="none" stroke="#000" stroke-linejoin="round" stroke-width="0.52"/><path id="path3394-4" d="M381.33,393.12c0,.18-.43.36-1,.36s-.94-.18-.94-.36" fill="none" stroke="#000" stroke-linejoin="round" stroke-width="0.52"/><path id="path3416" d="M1221.62,431.26l3.44,16.44h11.54l3.38-16.44" fill="#d9d9d9"/><path id="path3418" d="M1240,431.26h-18.38" fill="none" stroke="#000" stroke-miterlimit="6.4" stroke-width="0.52"/><path id="path3418-2" d="M1221.62,431.26l3.44,16.44h11.54l3.38-16.44" fill="none" stroke="#000" stroke-miterlimit="6.4" stroke-width="0.52"/><path id="path3420" d="M1240,431.26c0-1.18-4.13-2.13-9.21-2.13s-9.2.94-9.2,2.13" fill="#f1f1f1"/><path id="path3420-2" d="M1221.62,431.26c0,1.18,4.13,2.19,9.2,2.19s9.21-1,9.21-2.19" fill="#f1f1f1"/><path id="path3422" d="M1240,431.26c0-1.18-4.13-2.13-9.21-2.13" fill="none" stroke="#000" stroke-linejoin="round" stroke-width="0.52"/><path id="path3422-2" d="M1221.62,431.26c0,1.18,4.13,2.19,9.2,2.19s9.21-1,9.21-2.19" fill="none" stroke="#000" stroke-linejoin="round" stroke-width="0.52"/><path id="path3422-3" d="M1230.8,429.13c-5.06,0-9.2.94-9.2,2.13" fill="none" stroke="#000" stroke-linejoin="round" stroke-width="0.52"/><path id="path3424" d="M1230.86,446.17c-3.26,0-5.94.57-5.94,1.31v2.57c0,.76,2.68,1.31,5.94,1.31s5.88-.56,5.88-1.31v-2.57C1236.74,446.7,1234.11,446.17,1230.86,446.17Z" fill="#d7d7d7"/><path id="path3426" d="M1224.92,447.45c0,.69,2.68,1.25,5.94,1.25s5.88-.56,5.88-1.25-2.62-1.31-5.88-1.31S1224.92,446.7,1224.92,447.45Z" fill="#dfdfdf"/><path id="path3428" d="M1230.86,446.17c-3.26,0-5.94.57-5.94,1.31v2.57c0,.76,2.68,1.31,5.94,1.31s5.88-.56,5.88-1.31v-2.57C1236.74,446.7,1234.11,446.17,1230.86,446.17Z" fill="none" stroke="#000" stroke-linejoin="round" stroke-width="0.52"/><path id="path3430" d="M1224.92,447.45c0,.69,2.68,1.25,5.94,1.25s5.88-.56,5.88-1.25" fill="none" stroke="#000" stroke-linejoin="round" stroke-width="0.52"/><rect x="191.5" y="494.02" width="146" height="98.94" fill="#05002a" stroke="#8c44c1" stroke-miterlimit="1" stroke-width="0.8"/><line x1="264.5" y1="495.26" x2="264.5" y2="593.42" fill="none" stroke="#8c44c1" stroke-miterlimit="1" stroke-width="0.8"/><ellipse cx="246.5" cy="542.5" rx="6" ry="5.5" fill="#4d4d4d" stroke="#8c44c1" stroke-miterlimit="1" stroke-width="0.8"/><ellipse cx="280.5" cy="542.5" rx="6" ry="5.5" fill="#4d4d4d" stroke="#8c44c1" stroke-miterlimit="1" stroke-width="0.8"/><rect x="-35.5" y="493.1" width="146" height="98.94" fill="#05002a" stroke="#8c44c1" stroke-miterlimit="1" stroke-width="0.8"/><line x1="37.5" y1="494.34" x2="37.5" y2="592.5" fill="none" stroke="#8c44c1" stroke-miterlimit="1" stroke-width="0.8"/><ellipse cx="19.5" cy="541.59" rx="6" ry="5.5" fill="#4d4d4d" stroke="#8c44c1" stroke-miterlimit="1" stroke-width="0.8"/><ellipse cx="53.5" cy="541.59" rx="6" ry="5.5" fill="#4d4d4d" stroke="#8c44c1" stroke-miterlimit="1" stroke-width="0.8"/><rect x="1249.5" y="493.1" width="146" height="98.94" fill="#05002a" stroke="#8c44c1" stroke-miterlimit="1" stroke-width="0.8"/><line x1="1322.5" y1="494.34" x2="1322.5" y2="592.5" fill="none" stroke="#8c44c1" stroke-miterlimit="1" stroke-width="0.8"/><ellipse cx="1304.5" cy="541.59" rx="6" ry="5.5" fill="#4d4d4d" stroke="#8c44c1" stroke-miterlimit="1" stroke-width="0.8"/><ellipse cx="1338.5" cy="541.59" rx="6" ry="5.5" fill="#4d4d4d" stroke="#8c44c1" stroke-miterlimit="1" stroke-width="0.8"/></svg>