<svg id="Layer_1" data-name="Layer 1" xmlns="http://www.w3.org/2000/svg" xmlns:xlink="http://www.w3.org/1999/xlink" viewBox="0 0 275.32 731.08">
  <g>
    <path d="M239.77,428.61,215.53,430a208.89,208.89,0,0,0-8.26-55.28c-10.44-35.84-28.7-62.35-43.28-79.55a27.94,27.94,0,0,1,8.27-2.1C204,290.25,227,349.2,230.66,359,236.18,373.88,242.29,397.43,239.77,428.61Z" fill="#a3d886"/>
    <ellipse cx="227.41" cy="439.41" rx="12.94" ry="20.7" fill="#68361e"/>
  </g>
  <g>
    <path d="M29.59,433.44l24.23,1.38a209,209,0,0,1,8.27-55.29c10.44-35.83,28.7-62.34,43.28-79.54a27.34,27.34,0,0,0-8.27-2.1C65.33,295.08,42.33,354,38.69,363.83,33.17,378.71,27.07,402.26,29.59,433.44Z" fill="#a3d886"/>
    <ellipse cx="41.94" cy="444.24" rx="12.94" ry="20.7" fill="#68361e"/>
  </g>
  <path d="M194.53,484H78.77c-11.1-24.11-12.17-43.1-11.38-55.4,2.08-32.32,18.67-46.74,19-80a108.92,108.92,0,0,0-9.33-44.45c.67-.46,1.68-1.14,2.93-1.91a70.59,70.59,0,0,1,23.89-9.15c7.46-1.59,18.23-10.55,33-42.24h3.29c4.28,20.74,12.29,28.88,18.93,32.45,6.43,3.45,14.78,4.35,27.56,12.31a92.7,92.7,0,0,1,8.59,6.06,131.35,131.35,0,0,0-4.34,21,138.67,138.67,0,0,0-.47,27.5c2.56,34.8,15.8,49,16.41,79.51C207.16,442.42,205.28,461.05,194.53,484Z" fill="#372f3c"/>
  <line x1="135.17" y1="285.31" x2="113.94" y2="312.43" fill="none"/>
  <g>
    <polygon points="78.77 483.95 78.77 691.02 131.09 691.02 131.09 505.86 142.77 505.86 142.77 691.02 194.14 691.02 194.14 483.95 78.77 483.95" fill="#88817b"/>
    <path d="M79.83,663.52,36.71,683.65A3.33,3.33,0,0,0,38.12,690h86.23a3.33,3.33,0,0,0,1.41-6.34L82.64,663.52A3.29,3.29,0,0,0,79.83,663.52Z"/>
    <path d="M188,666.79,144.9,686.92a3.33,3.33,0,0,0,1.41,6.34h86.22a3.32,3.32,0,0,0,1.41-6.34l-43.11-20.13A3.31,3.31,0,0,0,188,666.79Z"/>
  </g>
  <ellipse cx="137.06" cy="273.74" rx="39.65" ry="60.14" fill="#a3d886"/>
  <image width="619" height="922" transform="translate(53.55 77.22) scale(0.27)" xlink:href="raw/freeman.png"/>
</svg>
