<svg id="Layer_1" data-name="Layer 1" xmlns="http://www.w3.org/2000/svg" xmlns:xlink="http://www.w3.org/1999/xlink" viewBox="0 0 286.59 731.08">
  <path d="M139.76,285.18h3a49.55,49.55,0,0,1,49.55,49.55V510a0,0,0,0,1,0,0H86.69a0,0,0,0,1,0,0V338.26A53.08,53.08,0,0,1,139.76,285.18Z" fill="#80a44c"/>
  <path d="M245.4,395.49l-1.4,1.08-1.25.95-10.58,8-87.81,66.68-15.13-19.92L217,385.66l-63.1-82.58,5.37-4.1a18.27,18.27,0,0,1,25.6,3.42L247,383.71A8.39,8.39,0,0,1,245.4,395.49Z" fill="#80a44c"/>
  <polygon points="242.75 397.51 232.2 405.58 232.18 405.55 242.75 397.51" fill="#9ac4ea"/>
  <line x1="138.15" y1="328.69" x2="118.78" y2="353.44" fill="none"/>
  <g>
    <polygon points="86.69 509.95 86.69 698.91 134.43 698.91 134.43 529.95 145.09 529.95 145.09 698.91 191.96 698.91 191.96 509.95 86.69 509.95" fill="#6a4729"/>
    <path d="M87.53,674.82l-38,17.75a3.32,3.32,0,0,0,1.41,6.34H127a3.32,3.32,0,0,0,1.4-6.34l-38-17.75A3.29,3.29,0,0,0,87.53,674.82Z" fill="#2e2015"/>
    <path d="M186.25,676.86l-38,17.75a3.33,3.33,0,0,0,1.41,6.35h76.06a3.33,3.33,0,0,0,1.4-6.35l-38-17.75A3.29,3.29,0,0,0,186.25,676.86Z" fill="#2e2015"/>
  </g>
  <path d="M32.51,395.49l1.39,1.08,1.26.95,10.57,8,87.81,66.68,15.13-19.92L60.92,385.66,124,303.08l-5.36-4.1A18.28,18.28,0,0,0,93,302.4L30.93,383.71A8.38,8.38,0,0,0,32.51,395.49Z" fill="#80a44c"/>
  <ellipse cx="141.16" cy="309.63" rx="44.54" ry="54.88" fill="#607e40"/>
  <image width="292" height="340" transform="translate(27.99 131.74) scale(0.66)" xlink:href="raw/me.png"/>
  <rect x="86.69" y="495.71" width="105.28" height="14.24" fill="#607e40"/>
</svg>
