<svg id="Layer_1" data-name="Layer 1" xmlns="http://www.w3.org/2000/svg" xmlns:xlink="http://www.w3.org/1999/xlink" viewBox="0 0 285.6 731.08">
  <g>
    <path d="M135.82,247.7h11.35a49.55,49.55,0,0,1,49.55,49.55v193a0,0,0,0,1,0,0h-114a0,0,0,0,1,0,0V300.78A53.08,53.08,0,0,1,135.82,247.7Z" fill="#6a4729"/>
    <path d="M254,366.73l-1.51,1.16-1.35,1-11.41,8.67L145,449.53,128.65,428l94.69-71.91L155.26,267l5.79-4.42a19.71,19.71,0,0,1,27.63,3.69l67,87.73A9.06,9.06,0,0,1,254,366.73Z" fill="#6a4729"/>
    <polygon points="251.14 368.91 239.76 377.61 239.73 377.58 251.14 368.91" fill="#9ac4ea"/>
    <line x1="138.27" y1="294.65" x2="117.37" y2="321.36" fill="none"/>
    <g>
      <polygon points="82.74 490.24 82.74 694.13 134.26 694.13 134.26 511.81 145.76 511.81 145.76 694.13 196.34 694.13 196.34 490.24 82.74 490.24" fill="#2e2015"/>
      <path d="M83.76,668.08,41.54,687.79A3.33,3.33,0,0,0,43,694.13h84.44a3.33,3.33,0,0,0,1.41-6.34L86.58,668.08A3.31,3.31,0,0,0,83.76,668.08Z" fill="#6a482c"/>
      <path d="M190.28,670.28,148.06,690a3.33,3.33,0,0,0,1.41,6.34h84.44a3.33,3.33,0,0,0,1.41-6.34L193.1,670.28A3.31,3.31,0,0,0,190.28,670.28Z" fill="#6a482c"/>
    </g>
    <g>
      <path d="M142,313.73a218,218,0,0,1-33.77-67.47l67.41.77A203.75,203.75,0,0,1,161,283.54,203.56,203.56,0,0,1,142,313.73Zm0-14.89a124.06,124.06,0,0,0,26.1-45.22H115.85c1.74,4.44,3.77,9.07,6.13,13.83A176.16,176.16,0,0,0,142,298.84Z" fill="#47321f"/>
      <path d="M142,304.93A221.1,221.1,0,0,1,113,250.09h57.36a161.38,161.38,0,0,1-11.57,28.79A162.65,162.65,0,0,1,142,304.93Z" fill="#f7f3f0"/>
    </g>
    <image width="500" height="689" transform="translate(58.73 63.49) scale(0.31)" xlink:href="raw/terry.png"/>
    <rect x="97.46" y="358.1" width="51.87" height="75.01" transform="translate(71.31 -15.51) rotate(10.1)" fill="#fefefe"/>
    <g>
      <path d="M12.94,320.94H129.36a9.55,9.55,0,0,1,9.55,9.55v18.16a0,0,0,0,1,0,0H7.1a0,0,0,0,1,0,0V326.78a5.85,5.85,0,0,1,5.85-5.85Z" transform="translate(-257.88 245.73) rotate(-62.63)" fill="#6a4729"/>
      <path d="M43.29,382h87.5a0,0,0,0,1,0,0v27.71a0,0,0,0,1,0,0H41.43a10.55,10.55,0,0,1-10.55-10.55v-4.75A12.41,12.41,0,0,1,43.29,382Z" transform="translate(70.7 -8.04) rotate(10.1)" fill="#6a4729"/>
      <ellipse cx="138.84" cy="406.22" rx="14.77" ry="24.62" transform="translate(-285.43 471.65) rotate(-79.9)" fill="#a65643"/>
    </g>
  </g>
</svg>
