<svg xmlns="http://www.w3.org/2000/svg" xmlns:xlink="http://www.w3.org/1999/xlink" viewBox="0 0 190 355"><title>filip</title><g id="customers"><g id="filip"><path d="M117.39,111.87h6.11a26.66,26.66,0,0,1,26.65,26.66V242.34H88.83V140.45a28.55,28.55,0,0,1,28.55-28.55h0Z" fill="#59006b"/><path d="M50.65,171.9a5.44,5.44,0,0,1,.05-6.64L84.17,123.2h0c3.3-4.14,8.62-4.41,11.88-.58l2.19,2.56-34,42.74L100,209.58,91.83,219.9,56.08,178.19l-4.31-5-.52-.58-.57-.67Z" fill="#59006b"/><path id="hand_down" data-name="hand down" d="M184.39,176.46l-.64.6-.57.52L178.38,182l-40,37.06L131.54,208l39.93-37.08-28.69-45.87,2.44-2.28c3.65-3.41,8.85-2.56,11.64,1.9h0l28.23,45.22a5.38,5.38,0,0,1-.69,6.54Z" fill="#59006b"/><line x1="104.34" y1="119.74" x2="107.43" y2="140.13" fill="none" stroke="#2c0044" stroke-miterlimit="10" stroke-width="3"/><line x1="118.91" y1="125.31" x2="107.3" y2="140.51" fill="none" stroke="#2c0044" stroke-miterlimit="10" stroke-width="3"/><line x1="133.96" y1="120.18" x2="130.89" y2="140.55" fill="none" stroke="#2c0044" stroke-miterlimit="10" stroke-width="3"/><line x1="119.39" y1="125.74" x2="130.98" y2="140.95" fill="none" stroke="#2c0044" stroke-miterlimit="10" stroke-width="3"/><line x1="118.7" y1="127.11" x2="118.7" y2="242.07" fill="none" stroke="#2c0044" stroke-miterlimit="10" stroke-width="3"/><polygon points="88.84 242.33 88.84 352 116.55 352 116.55 253.93 122.73 253.93 122.73 352 149.93 352 149.93 242.33 88.84 242.33" fill="#17003e"/><path d="M89.38,338l-22.71,10.6a1.79,1.79,0,0,0,.76,3.42h45.43a1.79,1.79,0,0,0,.76-3.42L90.9,338A1.82,1.82,0,0,0,89.38,338Z" fill="#0a0038"/><path d="M146.67,339.2,124,349.8a1.79,1.79,0,0,0,.76,3.42h45.41a1.79,1.79,0,0,0,.76-3.42L148.2,339.2A1.82,1.82,0,0,0,146.67,339.2Z" fill="#0a0038"/><image id="filip-2" data-name="filip" width="98" height="116" transform="matrix(1.03, -0.15, 0.15, 1.03, 55.63, 16.57)" xlink:href="assets/customers/filip.png" style="isolation:isolate"/></g></g></svg>