<svg xmlns="http://www.w3.org/2000/svg" xmlns:xlink="http://www.w3.org/1999/xlink" viewBox="0 0 190 355"><title>peter</title><g id="customers"><g id="peter"><g id="shirt"><path d="M92.91,104h1.65c15.08,0,27.3,13.09,27.3,29.23V236.63H63.67V135.31C63.67,118,76.76,104,92.91,104Z" fill="#a47900"/><path d="M157.62,171.54l-.71.6-.63.52-5.37,4.41-44.57,36.79-7.68-11,44.55-36.75-32-45.56,2.73-2.26a8.79,8.79,0,0,1,13,1.89L158.43,165a4.9,4.9,0,0,1-.8,6.49Z" fill="#a47900"/><path d="M24.53,175.12l.77.65.69.57,5.82,4.79L80.2,221.06l8.34-11.93-48.35-39.9,34.76-49.46-3-2.46a9.55,9.55,0,0,0-14.12,2h0l-34.2,48.7a5.31,5.31,0,0,0,.85,7Z" fill="#a47900"/><rect x="63.67" y="228.08" width="58.01" height="8.53" fill="#bbc6ff"/><rect x="63.67" y="206.86" width="58.01" height="8.53" fill="#bbc6ff"/><rect x="63.67" y="183.68" width="58.01" height="8.53" fill="#bbc6ff"/><rect x="63.67" y="162.15" width="58.01" height="8.53" fill="#bbc6ff"/><rect x="63.67" y="140.61" width="58.01" height="8.53" fill="#bbc6ff"/></g><polygon points="63.67 236.6 63.67 349.77 89.98 349.77 89.98 248.58 95.85 248.58 95.85 349.77 121.67 349.77 121.67 236.6 63.67 236.6" fill="#17003e"/><path d="M64.13,335.35,43.2,346a2.06,2.06,0,0,0-.9,2.63A1.83,1.83,0,0,0,44,349.77H85.88a1.91,1.91,0,0,0,1.84-2A2,2,0,0,0,86.65,346L65.72,335.35A1.68,1.68,0,0,0,64.13,335.35Z" fill="#17003e"/><path d="M118.53,336.57,97.59,347.2a2.07,2.07,0,0,0-.89,2.65A1.83,1.83,0,0,0,98.37,351h41.91a1.92,1.92,0,0,0,1.83-2A2,2,0,0,0,141,347.2l-20.94-10.63A1.68,1.68,0,0,0,118.53,336.57Z" fill="#17003e"/><image width="98" height="116" transform="translate(49.59 5.05) scale(0.88)" xlink:href="assets/customers/peter-tippen.png"/></g></g></svg>