<svg xmlns="http://www.w3.org/2000/svg" xmlns:xlink="http://www.w3.org/1999/xlink" viewBox="0 0 190 355"><title>filip</title><g id="customers"><g id="filip"><path d="M119.85,124.82h5.81A25.35,25.35,0,0,1,151,150.17v98.72H92.69V152a27.15,27.15,0,0,1,27.15-27.15Z" fill="#59006b"/><path d="M56.39,181.9a5.17,5.17,0,0,1,.05-6.31l31.82-40h0c3.14-3.94,8.2-4.19,11.3-.55l2.08,2.43L69.31,178.11l34,39.63-7.76,9.81-34-39.66-4.1-4.78-.49-.55-.54-.64Z" fill="#59006b"/><path id="hand_down" data-name="hand down" d="M183.57,186.24l-.61.57-.54.49-4.57,4.25-38,35.24-6.54-10.53L171.28,181,144,137.38l2.32-2.17c3.47-3.24,8.42-2.43,11.07,1.81h0l26.85,43a5.12,5.12,0,0,1-.66,6.22Z" fill="#59006b"/><line x1="107.44" y1="132.3" x2="110.38" y2="151.69" fill="none" stroke="#2c0044" stroke-miterlimit="10" stroke-width="3"/><line x1="121.3" y1="137.6" x2="110.26" y2="152.05" fill="none" stroke="#2c0044" stroke-miterlimit="10" stroke-width="3"/><line x1="135.61" y1="132.72" x2="132.69" y2="152.09" fill="none" stroke="#2c0044" stroke-miterlimit="10" stroke-width="3"/><line x1="121.75" y1="138.01" x2="132.78" y2="152.47" fill="none" stroke="#2c0044" stroke-miterlimit="10" stroke-width="3"/><line x1="121.1" y1="139.31" x2="121.1" y2="248.63" fill="none" stroke="#2c0044" stroke-miterlimit="10" stroke-width="3"/><polygon points="92.7 248.88 92.7 353.17 119.05 353.17 119.05 259.91 124.93 259.91 124.93 353.17 150.8 353.17 150.8 248.88 92.7 248.88" fill="#17003e"/><path d="M93.22,339.84l-21.6,10.08a1.7,1.7,0,0,0,.72,3.25h43.2a1.7,1.7,0,0,0,.72-3.25l-21.6-10.08A1.73,1.73,0,0,0,93.22,339.84Z" fill="#0a0038"/><path d="M147.7,341l-21.6,10.08a1.7,1.7,0,0,0,.72,3.25H170a1.7,1.7,0,0,0,.72-3.25L149.15,341A1.73,1.73,0,0,0,147.7,341Z" fill="#0a0038"/><image id="filip-2" data-name="filip" width="219" height="345" transform="matrix(0.34, -0.05, 0.05, 0.34, 71.23, 25.77)" xlink:href="assets/customers/filip.png" style="isolation:isolate"/></g></g></svg>