<?xml version="1.0" encoding="utf-8"?>
<!-- Generator: Adobe Illustrator 21.0.0, SVG Export Plug-In . SVG Version: 6.00 Build 0)  -->
<svg version="1.1" id="Layer_1" xmlns="http://www.w3.org/2000/svg" xmlns:xlink="http://www.w3.org/1999/xlink" x="0px" y="0px"
	 viewBox="0 0 190 355" style="enable-background:new 0 0 190 355;" xml:space="preserve">
<style type="text/css">
	.st0{fill:#59006B;}
	.st1{fill:none;stroke:#2C0044;stroke-width:3;stroke-miterlimit:10;}
	.st2{fill:#17003E;}
	.st3{fill:#0A0038;}
</style>
<g id="filip">
	<path class="st0" d="M119.8,124.8h5.8c14,0,25.3,11.4,25.3,25.3v98.7H92.7V152C92.7,137,104.8,124.8,119.8,124.8L119.8,124.8
		L119.8,124.8z"/>
	<path class="st0" d="M56.4,181.9c-1.4-1.9-1.4-4.5,0-6.3l31.8-40l0,0c3.1-3.9,8.2-4.2,11.3-0.6l2.1,2.4l-32.3,40.6l34,39.6
		l-7.8,9.8l-34-39.7l-4.1-4.8l-0.5-0.6L56.4,181.9L56.4,181.9z"/>
	<path id="hand_down" class="st0" d="M183.6,186.2l-0.6,0.6l-0.5,0.5l-4.6,4.2l-38,35.2l-6.5-10.5l38-35.3L144,137.4l2.3-2.2
		c3.5-3.2,8.4-2.4,11.1,1.8l0,0l26.9,43C185.5,182,185.2,184.6,183.6,186.2L183.6,186.2z"/>
	<line class="st1" x1="107.4" y1="132.3" x2="110.4" y2="151.7"/>
	<line class="st1" x1="121.3" y1="137.6" x2="110.3" y2="152.1"/>
	<line class="st1" x1="135.6" y1="132.7" x2="132.7" y2="152.1"/>
	<line class="st1" x1="121.8" y1="138" x2="132.8" y2="152.5"/>
	<line class="st1" x1="121.1" y1="139.3" x2="121.1" y2="248.6"/>
	<polygon class="st2" points="92.7,248.9 92.7,353.2 119.1,353.2 119.1,259.9 124.9,259.9 124.9,353.2 150.8,353.2 150.8,248.9 	"/>
	<path class="st3" d="M93.2,339.8l-21.6,10.1c-0.9,0.4-1.2,1.4-0.9,2.2c0.3,0.6,0.9,1,1.6,1h43.2c0.9,0,1.7-0.7,1.7-1.7
		c0-0.7-0.4-1.3-1-1.6l-21.6-10.1C94.2,339.6,93.7,339.6,93.2,339.8z"/>
	<path class="st3" d="M147.7,341l-21.6,10.1c-0.9,0.4-1.2,1.4-0.9,2.2c0.3,0.6,0.9,1,1.6,1H170c0.9,0,1.7-0.7,1.7-1.7
		c0-0.7-0.4-1.3-1-1.6L149.1,341C148.7,340.8,148.2,340.8,147.7,341z"/>
	
		<image style="overflow:visible;enable-background:new    ;" width="98" height="116" id="filip_1_" xlink:href="assets/customers/filip.png"  transform="matrix(0.9758 -0.1435 0.1435 0.9758 61.1237 34.1917)">
	</image>
</g>
</svg>
