<svg id="Layer_1" data-name="Layer 1" xmlns="http://www.w3.org/2000/svg" xmlns:xlink="http://www.w3.org/1999/xlink" viewBox="0 0 257.21 731.08">
  <g>
    <path d="M178,481H75.39a7.77,7.77,0,0,1-7.77-7.77l1.23-199L92.71,268a186.17,186.17,0,0,1,71.83.17,180.7,180.7,0,0,1,20.88,5.57l.37,199.5Z" fill="#3d3242"/>
    <line x1="125.19" y1="278.27" x2="103.52" y2="305.96" fill="none"/>
    <g>
      <path d="M67.62,479V690.42H99.86q6.81-58.21,13.27-116.47,4-36.27,7.9-72.54H133q5.49,40.57,9.8,83.77,5.5,55.62,8.17,107.53l34.47-2.29V479Z" fill="#6a4729"/>
      <path d="M68.73,663.39,24.41,684.08a3.33,3.33,0,0,0,1.41,6.34c16.89,0,46.72.86,71.82,0,1.52,0,5.55-.14,6.47-2.26,1-2.29-2.16-5.72-3.4-7L71.55,663.39Z"/>
      <path d="M179.16,665.67l-28.24,16.87c-3.39,4.56-4.83,8.42-3.58,9.76.26.28,1.23,1.09,4.6,0l73,.46a3.33,3.33,0,0,0,1.4-6.35L182,665.67Z"/>
    </g>
    <g>
      <path d="M194.1,380.47h0c1.67-5.37-1.65-10.64-7.41-11.78L109.9,353.54c-5.37-1.06-10.79,1.8-12.23,6.46l-3.44,11.07,86.44,17.06C186.42,389.27,192.44,385.84,194.1,380.47Z" fill="#0c0b0c"/>
      <rect x="166.87" y="273.62" width="32.68" height="112.99" rx="16.34" transform="translate(366.43 660.22) rotate(180)" fill="#3d3242"/>
      <ellipse cx="97.12" cy="360.34" rx="14.27" ry="7.49" transform="translate(-146.58 77.7) rotate(-25.68)" fill="#ffcb95"/>
      <path d="M195.1,379.26h0c1.67-5.37-1.65-10.64-7.41-11.78L110.9,352.33c-5.37-1.06-10.79,1.8-12.23,6.45l-3.44,11.08,86.44,17.06C187.42,388.05,193.44,384.62,195.1,379.26Z" fill="#3a3440"/>
    </g>
    <rect x="98.25" y="357.7" width="28.2" height="4.25" transform="translate(-63.89 26.6) rotate(-10.53)"/>
    <g>
      <path d="M66,378.74h0a9,9,0,0,1,7.1-11.8L148.6,353c5.27-1,10.68,2,12.18,6.78l3.6,11.3-85,15.68A12.1,12.1,0,0,1,66,378.74Z" fill="#0a090a"/>
      <rect x="59.12" y="276.52" width="32.68" height="101.82" rx="16.34" fill="#020202"/>
      <rect x="57.88" y="273.35" width="32.68" height="112.99" rx="16.34" fill="#3a3440"/>
      <ellipse cx="162.37" cy="359.57" rx="7.69" ry="15.04" transform="translate(-232.16 360.85) rotate(-65.88)" fill="#ffcb95"/>
      <path d="M58.34,378.85h0c-1.77-5.46,1.75-10.84,7.86-12l81.54-15.44c5.7-1.08,11.45,1.84,13,6.58l3.65,11.28L72.6,386.65C66.49,387.8,60.11,384.31,58.34,378.85Z" fill="#3d3242"/>
    </g>
    <path d="M155.52,268.21a41.64,41.64,0,0,1-41.16,0v-18h41.16Z" fill="#3d3242" stroke="#000" stroke-miterlimit="10"/>
    <image width="523" height="751" transform="translate(40.31 73.93) scale(0.33)" xlink:href="raw/keanu.png"/>
  </g>
</svg>
