<svg id="Layer_1" data-name="Layer 1" xmlns="http://www.w3.org/2000/svg" xmlns:xlink="http://www.w3.org/1999/xlink" viewBox="0 0 249.83 731.08">
  <g>
    <path d="M125.71,681.77,111,681.9q-1.12-73.27-2.23-146.55l28.81-22.09Q131.65,597.51,125.71,681.77Z" fill="#fad297"/>
    <path d="M166,677.17l-14.87-1.48q-6.78-82-13.57-164l31,28.06Q167.27,608.48,166,677.17Z" fill="#fad297"/>
    <rect x="56.75" y="329.06" width="21.23" height="100.04" rx="10.61" transform="translate(122.4 -1.98) rotate(18.29)" fill="#fad297"/>
    <rect x="186.22" y="326.78" width="21.23" height="144.63" rx="10.61" transform="translate(-32.98 18.04) rotate(-4.84)" fill="#fad297"/>
    <path d="M166.54,413.07v-6.79a47.17,47.17,0,0,1,16.23-35.64,192.31,192.31,0,0,1-30.45-68.58q-.73-3.35-1.33-6.63l-31.84,1.18q-1,3.58-2.06,7.22a315.82,315.82,0,0,1-28.89,67,48.31,48.31,0,0,1,14,21.76,47,47,0,0,1,2,13.7v6.79a106.56,106.56,0,0,1-2,13.71,107.2,107.2,0,0,1-7.67,22.82,59.12,59.12,0,0,0-13.56,28c-6.09,34.59,23.8,60.56,25.79,62.24l61.78,17.32C192.81,504.81,195,484.65,191,477c-.78-1.46-.49-17.6-13.26-30.37h0a63.06,63.06,0,0,1-11.15-33.58Z" fill="#64626d"/>
    <path d="M142.61,343.62c2.16,17.13-15.34,33.85-33.85,33.85s-36-16.62-33.86-33.85c2-16.06,20.37-26.26,36.09-25.34C124.89,319.09,140.74,328.82,142.61,343.62Z" fill="#64626d"/>
    <path d="M196.45,343.62c2,17.5-15.46,33.85-33.85,33.85s-35.81-16.33-33.85-33.85c1.77-15.92,18.85-26.55,34.28-26.37C178.1,317.42,194.7,328,196.45,343.62Z" fill="#64626d"/>
    <path d="M77.21,398h0a2.45,2.45,0,0,1,2.45,2.45v62A2.45,2.45,0,0,1,77.21,465h-4a8.28,8.28,0,0,1-8.28-8.28V410.3A12.27,12.27,0,0,1,77.21,398Z" transform="translate(-337.54 278.37) rotate(-60)" fill="#fad297"/>
    <ellipse cx="97.87" cy="451.47" rx="12.69" ry="7.74" transform="translate(-361.97 495.6) rotate(-83.25)" fill="#fad297"/>
    <ellipse cx="204.05" cy="476.27" rx="10.08" ry="15.46" transform="translate(-65.38 33.69) rotate(-8.14)" fill="#fad297"/>
    <path d="M135.68,382.2l-23.6-65a40.09,40.09,0,0,0,47.21,0Z" fill="#fff"/>
    <image width="1039" height="1213" transform="translate(48 122.97) scale(0.16)" xlink:href="raw/scarlet.png"/>
    <line x1="130.98" y1="324.65" x2="120.93" y2="341.61" fill="none" stroke="#4d4d4d" stroke-miterlimit="10"/>
    <line x1="141.29" y1="324.53" x2="150.27" y2="342.07" fill="none" stroke="#4d4d4d" stroke-miterlimit="10"/>
    <g>
      <path d="M166.08,674.41l-15,1.57c-.23.58-1.31,3.45.29,5.69a4.4,4.4,0,0,0,.88.92l30.59,6.24a1.34,1.34,0,0,0,1.15-2.38Z" fill="#c60c0c"/>
      <polygon points="154.45 690.11 150.56 678.11 158.34 678.11 154.45 690.11" fill="#c60c0c"/>
    </g>
    <path d="M111,678.41,126,680c.23.58,1.31,3.45-.29,5.69a4.33,4.33,0,0,1-.87.92l-30.59,6.24a1.34,1.34,0,0,1-1.16-2.38Z" fill="#c60c0c"/>
    <polygon points="122.64 694.11 126.53 682.11 118.75 682.11 122.64 694.11" fill="#c60c0c"/>
  </g>
</svg>
