<svg xmlns="http://www.w3.org/2000/svg" xmlns:xlink="http://www.w3.org/1999/xlink" viewBox="0 0 190 355"><title>scarlet</title><g id="customers"><g id="customer-scarlet"><path d="M94.17,347.33l-8.73.08q-.66-43.48-1.32-87l17.09-13.11Q97.7,297.33,94.17,347.33Z" fill="#d7d1ff"/><path d="M118.08,344.6l-8.82-.88q-4-48.66-8.05-97.31l18.39,16.65Q118.83,303.84,118.08,344.6Z" fill="#d7d1ff"/><rect x="29.89" y="161.43" width="59.36" height="12.6" rx="6.3" ry="6.3" transform="translate(-118.38 171.65) rotate(-71.71)" fill="#d7d1ff"/><rect x="130.07" y="136.69" width="12.6" height="85.82" rx="6.3" ry="6.3" transform="translate(-14.67 12.15) rotate(-4.84)" fill="#d7d1ff"/><path d="M118.4,187.89v-4A28,28,0,0,1,128,162.71,114.11,114.11,0,0,1,110,122q-.43-2-.79-3.93l-18.89.7q-.59,2.12-1.22,4.28a187.39,187.39,0,0,1-17.14,39.76,28.67,28.67,0,0,1,8.31,12.91,27.89,27.89,0,0,1,1.19,8.13v4A63.23,63.23,0,0,1,80.22,196a63.61,63.61,0,0,1-4.55,13.54,35.08,35.08,0,0,0-8,16.61c-3.61,20.52,14.12,35.93,15.3,36.93l36.66,10.28c14.4-31.07,15.7-43,13.33-47.57-.46-.87-.29-10.44-7.87-18h0a37.42,37.42,0,0,1-6.62-19.93Z" fill="#975aff"/><path d="M104.2,146.68c1.28,10.16-9.1,20.09-20.09,20.09S62.75,156.9,64,146.68c1.19-9.53,12.09-15.58,21.41-15C93.69,132.13,103.09,137.9,104.2,146.68Z" fill="#975aff"/><path d="M136.15,146.68c1.19,10.38-9.17,20.09-20.09,20.09S94.81,157.08,96,146.68c1.05-9.45,11.18-15.75,20.34-15.65C125.26,131.13,135.11,137.41,136.15,146.68Z" fill="#975aff"/><path d="M100.09,169.57,86.08,131a23.79,23.79,0,0,0,28,0Z" fill="#d8ffc0"/><line x1="97.3" y1="135.42" x2="91.34" y2="145.49" fill="#3c00c6" stroke="#002db5" stroke-miterlimit="10"/><line x1="103.42" y1="135.35" x2="108.74" y2="145.76" fill="#3c00c6" stroke="#002db5" stroke-miterlimit="10"/><path d="M46.72,186.37h0a1.45,1.45,0,0,1,2-.53h0l31.86,18.39a1.45,1.45,0,0,1,.61,2l0,.05L80,208.3a4.91,4.91,0,0,1-6.71,1.8L49.4,196.33a7.28,7.28,0,0,1-2.69-9.94Z" fill="#d7d1ff"/><ellipse cx="77.65" cy="210.68" rx="7.53" ry="4.59" transform="translate(-140.69 263.03) rotate(-83.25)" fill="#d7d1ff"/><ellipse cx="140.66" cy="225.39" rx="5.98" ry="9.17" transform="translate(-30.5 22.19) rotate(-8.14)" fill="#d7d1ff"/><image id="scarlet" width="98" height="116" transform="translate(48.45 15.42)" xlink:href="assets/customers/scarlet.png" style="isolation:isolate"/><path d="M118.13,343l-8.9.93a3.7,3.7,0,0,0,.17,3.38,2.61,2.61,0,0,0,.52.55l18.15,3.7a.8.8,0,0,0,.68-1.41Z" fill="#ff3efc"/><polygon points="111.22 352.27 108.92 345.15 113.53 345.15 111.22 352.27" fill="#ff3efc"/><path d="M85.44,345.33l8.9.94a3.7,3.7,0,0,1-.17,3.38,2.57,2.57,0,0,1-.52.55L75.5,353.9a.8.8,0,0,1-.69-1.41Z" fill="#ff3efc"/><polygon points="92.35 354.65 94.66 347.53 90.04 347.53 92.35 354.65" fill="#ff3efc"/></g></g></svg>