<svg xmlns="http://www.w3.org/2000/svg" xmlns:xlink="http://www.w3.org/1999/xlink" viewBox="0 0 190 355"><title>stephen</title><g id="customers"><g id="stephen"><path d="M97.06,106.17h1.78a29.41,29.41,0,0,1,29.41,29.41v104H65.56V137.67A31.5,31.5,0,0,1,97.06,106.17Z" fill="#04009e"/><path d="M166.74,171.08l-.77.59-.68.52-5.78,4.37-48,36.45-8.27-10.89,48-36.42-34.49-45.14,2.94-2.24a10,10,0,0,1,14,1.87l34,44.45a4.59,4.59,0,0,1-.86,6.43Z" fill="#04009e"/><path d="M23.41,174.63l.82.64.75.56,6.27,4.75,52.11,39.57,9-11.82L40.27,168.8l37.43-49-3.18-2.43a10.85,10.85,0,0,0-15.21,2h0L22.47,167.64a5,5,0,0,0,.91,7Z" fill="#04009e"/><polygon points="65.56 239.56 65.56 351.69 93.89 351.69 93.89 251.43 100.22 251.43 100.22 351.69 128.03 351.69 128.03 239.56 65.56 239.56" fill="#17003e"/><path d="M66.06,337.4,43.51,347.93a2,2,0,0,0,.84,3.76H89.48a2,2,0,0,0,.83-3.76L67.76,337.4A2,2,0,0,0,66.06,337.4Z" fill="#17003e"/><path d="M124.64,338.61l-22.55,10.53a2,2,0,0,0,.84,3.77h45.14a2,2,0,0,0,.83-3.77l-22.55-10.53A2,2,0,0,0,124.64,338.61Z" fill="#17003e"/><ellipse cx="97.89" cy="125.23" rx="26.43" ry="27.12" fill="#000671"/><rect x="65.56" y="231.1" width="62.48" height="8.45" fill="#000671"/><image id="stephen-2" data-name="stephen" width="98" height="116" transform="translate(47.6 9.11) scale(0.94)" xlink:href="assets/customers/stephen.png" style="isolation:isolate"/></g></g></svg>