<svg xmlns="http://www.w3.org/2000/svg" xmlns:xlink="http://www.w3.org/1999/xlink" viewBox="0 0 190 355"><title>terry</title><g id="customers"><g id="customer-terry"><g id="legs"><polygon points="62.85 238.31 62.85 352.76 91.77 352.76 91.77 250.42 98.23 250.42 98.23 352.76 126.62 352.76 126.62 238.31 62.85 238.31" fill="#17003e"/><path d="M63.42,338.14,39.72,349.2a1.87,1.87,0,0,0,.82,3.56h47.4a1.87,1.87,0,0,0,.79-3.56L65,338.14A1.86,1.86,0,0,0,63.42,338.14Z" fill="#17003e"/><path d="M123.22,339.37l-23.7,11.07a1.87,1.87,0,0,0,.79,3.56h47.4a1.87,1.87,0,0,0,.79-3.56l-23.7-11.07A1.86,1.86,0,0,0,123.22,339.37Z" fill="#17003e"/></g><g id="body"><path d="M92.65,108.64H99c15.36,0,27.81,11.86,27.81,26.49h0V238.32h-64V137c0-15.67,13.34-28.38,29.8-28.38Z" fill="#300082"/><path d="M167.23,174.88l-.85.65-.76.56-6.4,4.87L106,221.36l-9.18-12.09L150,168.91l-38.22-50,3.25-2.48a11.06,11.06,0,0,1,15.51,2.07h0l37.61,49.25a5.09,5.09,0,0,1-.93,7.13Z" fill="#300082"/><path d="M33.7,176.65l30-58a5.36,5.36,0,0,1,7.23-2.3L80,121h0L46,186.71h0l-10.9-5.64a3.28,3.28,0,0,1-1.41-4.43h0Z" fill="#300082"/><path d="M41.14,173.19l48.36,8.61h0l-2.73,15.31h0l-49.38-8.8a5.92,5.92,0,0,1-4.79-6.87l.47-2.62a7,7,0,0,1,8.08-5.64Z" fill="#300082"/><ellipse cx="93.07" cy="190.35" rx="8.29" ry="13.82" transform="translate(-110.65 248.59) rotate(-79.9)" fill="#505082"/><path d="M96.12,139.23a122.37,122.37,0,0,1-19-37.87l37.84.43a114.37,114.37,0,0,1-8.22,20.49A114.26,114.26,0,0,1,96.12,139.23Zm0-8.36a69.64,69.64,0,0,0,14.65-25.38H81.44c1,2.49,2.12,5.09,3.44,7.76A98.88,98.88,0,0,0,96.12,130.87Z" fill="#17003e"/><path d="M96.12,134.29a124.11,124.11,0,0,1-16.28-30.78H112a90.59,90.59,0,0,1-6.49,16.16A91.3,91.3,0,0,1,96.12,134.29Z" fill="#afb6ff"/></g><image id="terry" width="98" height="116" transform="translate(45.08 2.13) scale(0.98)" xlink:href="assets/customers/terry.png" style="isolation:isolate"/></g></g></svg>